<svg width="45" height="45" viewBox="0 0 45 45" fill="none" xmlns="http://www.w3.org/2000/svg">
<g clip-path="url(#clip0_241_323)">
<ellipse cx="22" cy="15.5" rx="7" ry="6.5" fill="#23262D"/>
<ellipse cx="22.5" cy="29.5" rx="12.5" ry="6.5" fill="#23262D"/>
<path d="M22.5 3.75C32.85 3.75 41.25 12.15 41.25 22.5C41.25 32.85 32.85 41.25 22.5 41.25C12.15 41.25 3.75 32.85 3.75 22.5C3.75 12.15 12.15 3.75 22.5 3.75ZM11.2931 28.905C14.0456 33.0113 18.1781 35.625 22.8 35.625C27.42 35.625 31.5544 33.0131 34.305 28.905C31.1845 25.9886 27.0711 24.369 22.8 24.375C18.5282 24.3685 14.4141 25.9882 11.2931 28.905ZM22.5 20.625C23.9918 20.625 25.4226 20.0324 26.4775 18.9775C27.5324 17.9226 28.125 16.4918 28.125 15C28.125 13.5082 27.5324 12.0774 26.4775 11.0225C25.4226 9.96763 23.9918 9.375 22.5 9.375C21.0082 9.375 19.5774 9.96763 18.5225 11.0225C17.4676 12.0774 16.875 13.5082 16.875 15C16.875 16.4918 17.4676 17.9226 18.5225 18.9775C19.5774 20.0324 21.0082 20.625 22.5 20.625Z" fill="#E36F59"/>
</g>
<defs>
<clipPath id="clip0_241_323">
<rect width="45" height="45" fill="white"/>
</clipPath>
</defs>
</svg>
