<svg width="64" height="60" viewBox="0 0 64 60" fill="none" xmlns="http://www.w3.org/2000/svg">
<g clip-path="url(#clip0_1342_578)">
<path d="M61.33 5.83002H48V3.17002C48.0013 2.81902 47.9332 2.47123 47.7994 2.14669C47.6657 1.82216 47.4691 1.52729 47.2209 1.2791C46.9727 1.0309 46.6779 0.83428 46.3533 0.700568C46.0288 0.566856 45.681 0.498697 45.33 0.500019H18.67C18.319 0.498697 17.9712 0.566856 17.6467 0.700568C17.3221 0.83428 17.0273 1.0309 16.7791 1.2791C16.5309 1.52729 16.3343 1.82216 16.2005 2.14669C16.0668 2.47123 15.9987 2.81902 16 3.17002V5.83002H2.67C1.96187 5.83002 1.28275 6.11132 0.782025 6.61204C0.281303 7.11277 0 7.79189 0 8.50002C0 9.20815 0.281303 9.88727 0.782025 10.388C1.28275 10.8887 1.96187 11.17 2.67 11.17H8V51.17C8 53.2917 8.84285 55.3266 10.3431 56.8269C11.8434 58.3272 13.8783 59.17 16 59.17H48C50.1217 59.17 52.1566 58.3272 53.6569 56.8269C55.1571 55.3266 56 53.2917 56 51.17V11.17H61.33C62.0381 11.17 62.7173 10.8887 63.218 10.388C63.7187 9.88727 64 9.20815 64 8.50002C64 7.79189 63.7187 7.11277 63.218 6.61204C62.7173 6.11132 62.0381 5.83002 61.33 5.83002ZM50.67 51.17C50.6674 51.8764 50.3849 52.553 49.8844 53.0515C49.384 53.5501 48.7064 53.83 48 53.83H16C15.2936 53.83 14.616 53.5501 14.1156 53.0515C13.6151 52.553 13.3326 51.8764 13.33 51.17V11.17H50.67V51.17Z" fill="white"/>
<path d="M24.0001 45.8299C24.7065 45.8299 25.3841 45.55 25.8845 45.0514C26.385 44.5529 26.6674 43.8763 26.6701 43.1699V21.8299C26.6701 21.1218 26.3888 20.4427 25.8881 19.9419C25.3873 19.4412 24.7082 19.1599 24.0001 19.1599C23.292 19.1599 22.6128 19.4412 22.1121 19.9419C21.6114 20.4427 21.3301 21.1218 21.3301 21.8299V43.1699C21.3327 43.8763 21.6152 44.5529 22.1156 45.0514C22.6161 45.55 23.2937 45.8299 24.0001 45.8299Z" fill="white"/>
<path d="M40.0001 45.8299C40.7065 45.8299 41.3841 45.55 41.8845 45.0514C42.385 44.5529 42.6674 43.8763 42.6701 43.1699V21.8299C42.6701 21.1218 42.3888 20.4427 41.8881 19.9419C41.3873 19.4412 40.7082 19.1599 40.0001 19.1599C39.2919 19.1599 38.6128 19.4412 38.1121 19.9419C37.6114 20.4427 37.3301 21.1218 37.3301 21.8299V43.1699C37.3327 43.8763 37.6152 44.5529 38.1156 45.0514C38.6161 45.55 39.2937 45.8299 40.0001 45.8299Z" fill="white"/>
</g>
<defs>
<clipPath id="clip0_1342_578">
<rect width="64" height="58.67" fill="white" transform="translate(0 0.5)"/>
</clipPath>
</defs>
</svg>
