<svg width="22" height="30" viewBox="0 0 22 30" fill="none" xmlns="http://www.w3.org/2000/svg">
<path d="M10.9998 24.7448L5.49984 16.3073C4.81234 15 3.6665 13.1395 3.6665 11.25C3.6665 7.10813 6.95 3.75 10.9998 3.75C15.0497 3.75 18.3332 7.10813 18.3332 11.25C18.3332 13.1395 17.3913 15 16.4998 16.3073L10.9998 24.7448Z" fill="#E36F59"/>
<path d="M11 0C4.92525 0 0 5.03719 0 11.25C0 13.6964 0.784208 15.9413 2.08771 17.7797C2.11108 17.8238 2.11475 17.873 2.14133 17.9152L9.47467 29.1652C9.81475 29.6869 10.3877 30 11 30C11.6123 30 12.1852 29.6869 12.5253 29.1652L19.8587 17.9152C19.8857 17.873 19.8889 17.8238 19.9123 17.7797C21.2158 15.9413 22 13.6964 22 11.25C22 5.03719 17.0748 0 11 0ZM16.5 16.3073L11 24.7448L5.5 16.3073C4.8125 15 3.66667 13.1395 3.66667 11.25C3.66667 7.10812 6.95017 3.75 11 3.75C15.0498 3.75 18.3333 7.10812 18.3333 11.25C18.3333 13.1395 17.3915 15 16.5 16.3073Z" fill="#394240"/>
<path d="M11.0002 15C13.0252 15 14.6668 13.3211 14.6668 11.25C14.6668 9.17893 13.0252 7.5 11.0002 7.5C8.97512 7.5 7.3335 9.17893 7.3335 11.25C7.3335 13.3211 8.97512 15 11.0002 15Z" fill="#394240"/>
</svg>
