<svg width="61" height="60" viewBox="0 0 61 60" fill="none" xmlns="http://www.w3.org/2000/svg">
<path d="M16.5895 9.34692C10.7074 9.34692 7.99994 16.3602 12.7021 19.8875C14.3051 15.8556 17.4962 12.9606 21.6795 11.8179C20.5351 10.3277 18.6863 9.34692 16.5895 9.34692Z" fill="#E36F59"/>
<path d="M4.4378 18.7899C4.67752 19.5145 4.9881 20.2096 5.35706 20.8682L3.42486 22.6893C2.90597 23.1781 2.90597 23.9714 3.42486 24.4612L6.83065 27.6704C7.07868 27.9041 7.41852 28.0356 7.77272 28.0356C8.12303 28.0356 8.46059 27.9041 8.71292 27.6704L10.643 25.8493C10.9326 25.9937 11.2537 26.0822 11.5537 26.2067C11.5537 26.186 11.5515 26.1645 11.5515 26.1438C11.5515 24.6555 11.733 23.2517 12.056 21.9334C9.72574 20.5206 8.17082 18.0683 8.17082 15.2685C8.17082 10.895 11.9476 7.33632 16.5894 7.33632C19.7325 7.33632 22.4463 8.98461 23.8949 11.3928C25.4415 11.2121 26.8943 11.2121 28.643 11.5234C28.418 10.8823 28.1534 10.255 27.8218 9.66696L29.7541 7.84495C30.0061 7.6103 30.1457 7.29118 30.1457 6.95943C30.1457 6.62754 30.0061 6.30856 29.7541 6.0739L26.3501 2.86671C26.0898 2.62131 25.7499 2.49955 25.4102 2.49955C25.0704 2.49955 24.7307 2.62131 24.4722 2.86671L22.5338 4.68872C21.8336 4.33926 21.0978 4.0467 20.3267 3.82582V1.25167C20.3267 0.560598 19.7347 0 18.9989 0H14.1821C13.4504 0 12.8521 0.560598 12.8521 1.25167V3.82569C12.083 4.04657 11.3471 4.33913 10.6447 4.68859L8.71292 2.86861C8.45227 2.6232 8.11257 2.50145 7.77272 2.50145C7.43302 2.50145 7.0913 2.6232 6.83279 2.86759L3.42486 6.07478C3.17682 6.31045 3.03723 6.62843 3.03723 6.96132C3.03723 7.29409 3.17682 7.61219 3.42486 7.84685L5.35706 9.66784C4.98796 10.3276 4.67752 11.0217 4.4421 11.7461H1.71156C0.975776 11.7461 0.381592 12.3076 0.381592 12.9997V17.5372C0.381592 18.2273 0.975776 18.7899 1.71156 18.7899H4.4378Z" fill="#E36F59"/>
<path d="M46.1641 43.0694C48.2944 41.9688 49.7575 39.8622 49.7575 37.4175C49.7575 33.85 46.675 30.9482 42.8877 30.9482C41.5559 30.9482 40.3217 31.3232 39.2672 31.9436C38.6357 34.3114 37.6414 36.5763 36.3408 38.5436C40.0278 39.1965 43.4108 40.778 46.1641 43.0694Z" fill="#E36F59"/>
<path d="M60.3794 34.9694C60.3794 34.2223 59.7353 33.6175 58.9453 33.6175H55.9983C55.7438 32.835 55.4063 32.085 55.006 31.3733L57.0923 29.4081C57.3634 29.1547 57.5133 28.8112 57.5133 28.4529C57.5133 28.0944 57.3633 27.7508 57.0923 27.4967L53.4197 24.0361C53.1405 23.7719 52.7716 23.6394 52.4049 23.6394C52.0379 23.6394 51.6711 23.7719 51.3919 24.0361L49.3013 26.0024C48.5466 25.6254 47.7526 25.3094 46.9188 25.0707V22.2945C46.9188 21.5485 46.2789 20.9436 45.4869 20.9436H40.2907C39.9426 20.9436 39.6361 21.0751 39.3862 21.2695C39.8238 22.7734 40.0635 24.4042 40.0635 26.1437C40.0635 27.2481 39.972 28.3694 39.801 29.4844C40.768 29.1486 41.7976 28.9377 42.8878 28.9377C47.8526 28.9377 51.892 32.7419 51.892 37.4175C51.892 40.406 50.2351 43.0251 47.7484 44.536C49.5577 46.4052 50.9958 48.6228 51.9317 51.1074C52.0858 51.1575 52.2464 51.1939 52.4069 51.1939C52.7737 51.1939 53.1407 51.0624 53.422 50.7981L57.0967 47.3376C57.3657 47.0842 57.5136 46.7407 57.5136 46.3824C57.5136 46.0241 57.3657 45.6806 57.0967 45.4262L55.0061 43.4599C55.4064 42.7493 55.7439 41.999 55.9984 41.2158H58.9455C59.3248 41.2158 59.6937 41.0744 59.9606 40.819C60.2295 40.5667 60.3817 40.2223 60.3817 39.8638L60.3794 34.9694Z" fill="#E36F59"/>
<path d="M49.0052 52.3307C46.7769 46.1548 40.8889 41.907 34.0918 41.3289C31.8157 43.5993 28.9977 45.0398 25.8063 45.0398C22.6175 45.0398 19.7973 43.5994 17.5233 41.3289C10.7222 41.907 4.83394 46.1548 2.60565 52.3317L1.37392 55.747C1.0216 56.7297 1.19031 57.8126 1.83241 58.6558C2.47438 59.4992 3.50826 59.9999 4.60872 59.9999H47.002C48.1046 59.9999 49.1385 59.4992 49.7806 58.6558C50.4204 57.8126 50.5914 56.7297 50.2369 55.747L49.0052 52.3307Z" fill="white"/>
<path d="M14.7532 26.1437C14.7532 33.8041 19.7035 42.0239 25.8063 42.0239C31.9115 42.0239 36.8616 33.8041 36.8616 26.1437C36.8617 10.2647 14.7532 10.2332 14.7532 26.1437Z" fill="white"/>
</svg>
