<svg width="13" height="13" viewBox="0 0 13 13" fill="none" xmlns="http://www.w3.org/2000/svg">
<g clip-path="url(#clip0_141_483)">
<path d="M12.7817 5.81152L6.949 0.496818C6.69298 0.263504 6.30692 0.263529 6.05101 0.496792L0.218309 5.81155C0.0132296 5.99842 -0.0545125 6.28635 0.0456788 6.54506C0.145895 6.80376 0.389899 6.97091 0.667342 6.97091H1.59892V12.2958C1.59892 12.507 1.77011 12.6782 1.98123 12.6782H5.17826C5.38938 12.6782 5.56056 12.507 5.56056 12.2958V9.06271H7.43952V12.2959C7.43952 12.507 7.6107 12.6782 7.82182 12.6782H11.0187C11.2298 12.6782 11.401 12.507 11.401 12.2959V6.97091H12.3328C12.6102 6.97091 12.8542 6.80373 12.9544 6.54506C13.0545 6.28633 12.9867 5.99842 12.7817 5.81152Z" fill="#E36F59"/>
<path d="M11.3012 1.08496H8.73376L11.6835 3.76712V1.46724C11.6835 1.25612 11.5124 1.08496 11.3012 1.08496Z" fill="#E36F59"/>
</g>
<defs>
<clipPath id="clip0_141_483">
<rect width="13" height="13" fill="white"/>
</clipPath>
</defs>
</svg>
