<svg width="30" height="30" viewBox="0 0 30 30" fill="none" xmlns="http://www.w3.org/2000/svg">
<g clip-path="url(#clip0_1402_930)">
<path d="M28.125 13.125H24.375C23.3386 13.125 22.5 13.9636 22.5 15C22.5 16.0364 23.3386 16.875 24.375 16.875H28.125C29.1614 16.875 30 16.0364 30 15C30 13.9636 29.1614 13.125 28.125 13.125Z" fill="#394240"/>
<path d="M23.302 9.12417L26.5504 7.24917C27.4476 6.7312 27.7551 5.58463 27.2353 4.68745C26.7187 3.79026 25.5726 3.48276 24.6754 4.00073L21.427 5.87573C20.5298 6.3937 20.2223 7.54026 20.7422 8.43745C21.2587 9.33463 22.4048 9.64213 23.302 9.12417Z" fill="#394240"/>
<path d="M26.5506 22.7507L23.3021 20.8757C22.4049 20.3578 21.2603 20.6653 20.7423 21.5624C20.2243 22.4596 20.5299 23.6057 21.4271 24.1242L24.6756 25.9992C25.5728 26.5171 26.7189 26.2096 27.2368 25.3124C27.7548 24.4153 27.4478 23.2692 26.5506 22.7507Z" fill="#394240"/>
<path d="M13.125 0H5.625C5.38125 0 5.13797 0.0492187 4.90922 0.144844C4.67812 0.24 4.46953 0.377344 4.29562 0.553125C4.10906 0.739687 0 5.625 0 15C0 24.375 3.89812 28.9163 4.065 29.1652C4.11797 29.2458 4.18781 29.31 4.25016 29.3794C4.27922 29.4103 4.30125 29.4436 4.33266 29.4727C4.48641 29.6208 4.66031 29.7361 4.84922 29.8205C4.88953 29.8425 4.93172 29.8533 4.97391 29.8683C5.18203 29.9452 5.4 30 5.62125 30C5.62312 30 5.625 30 5.625 30H13.125C14.1614 30 15 29.1614 15 28.125V20.625C15 19.5886 14.1614 18.75 13.125 18.75H11.25V11.25H13.125C14.1614 11.25 15 10.4114 15 9.375V1.875C15 0.838594 14.1614 0 13.125 0ZM11.25 7.5H9.375C8.33859 7.5 7.5 8.33859 7.5 9.375V20.625C7.5 21.6614 8.33859 22.5 9.375 22.5H11.25V26.25H6.69609C5.74781 24.5231 3.75 22.5 3.75 15C3.75 7.5 5.62312 4.92188 6.50578 3.75H11.25V7.5Z" fill="#394240"/>
<path d="M11.25 7.5H9.375C8.33859 7.5 7.5 8.33859 7.5 9.375V20.625C7.5 21.6614 8.33859 22.5 9.375 22.5H11.25V26.25H6.69609C5.74781 24.5231 3.75 22.5 3.75 15C3.75 7.5 5.62312 4.92188 6.50578 3.75H11.25V7.5Z" fill="#E36F59"/>
</g>
<defs>
<clipPath id="clip0_1402_930">
<rect width="30" height="30" fill="white"/>
</clipPath>
</defs>
</svg>
