<svg width="369" height="300" viewBox="0 0 369 300" fill="none" xmlns="http://www.w3.org/2000/svg">
<path d="M319.099 133.504C306.466 111.53 289.111 92.3256 270.898 77.4794C252.469 62.4508 230.589 51.1793 207.394 49.3866C184.332 47.5547 161.228 52.2551 140.33 63.0304C125.173 70.9044 111.629 81.8861 101.578 96.641C99.9667 99.008 98.971 101.418 97.8866 104.155C97.6993 104.635 97.5169 105.113 97.3395 105.588C94.6632 112.791 92.604 120.248 91.1882 127.863C90.3847 132.2 90.0446 136.886 88.4821 141.008C83.8686 153.176 69.1951 156.686 59.8941 163.341C37.694 179.245 17.2635 206.839 21.5812 237.54V237.647C25.5244 265.139 36.3337 268 36.3337 268H325.861C325.861 268 339.633 244.791 338.977 201.23C338.598 177.007 330.815 153.895 319.099 133.504Z" fill="#E36F59"/>
<path opacity="0.7" d="M319.099 133.504C306.466 111.53 289.111 92.3256 270.898 77.4794C252.469 62.4508 230.589 51.1793 207.394 49.3866C184.332 47.5547 161.228 52.2551 140.33 63.0304C125.173 70.9044 111.629 81.8861 101.578 96.641C99.9667 99.008 98.971 101.418 97.8866 104.155C97.6993 104.635 97.5169 105.113 97.3395 105.588C94.6632 112.791 92.604 120.248 91.1882 127.863C90.3847 132.2 90.0446 136.886 88.4821 141.008C83.8686 153.176 69.1951 156.686 59.8941 163.341C37.694 179.245 17.2635 206.839 21.5812 237.54V237.647C25.5244 265.139 36.3337 268 36.3337 268H325.861C325.861 268 339.633 244.791 338.977 201.23C338.598 177.007 330.815 153.895 319.099 133.504Z" fill="white"/>
<path d="M141.524 56.358L130.424 48.546V64.176L141.524 56.358Z" stroke="#263238" stroke-miterlimit="10"/>
<path d="M148.963 56.196C148.901 56.4391 148.87 56.6918 148.869 56.946C148.869 57.03 148.869 57.114 148.869 57.198H145.169V56.196H148.963Z" stroke="#263238" stroke-miterlimit="10"/>
<path d="M193.592 56.196V57.198H152.963C152.963 57.114 152.963 57.03 152.963 56.946C152.962 56.6918 152.931 56.4391 152.869 56.196H193.592Z" stroke="#263238" stroke-miterlimit="10"/>
<path d="M152.973 56.946C152.973 57.03 152.973 57.114 152.973 57.198C152.923 57.8162 152.686 58.3897 152.309 58.807C151.931 59.2242 151.44 59.4553 150.931 59.4553C150.421 59.4553 149.93 59.2242 149.553 58.807C149.175 58.3897 148.939 57.8162 148.889 57.198C148.889 57.114 148.889 57.03 148.889 56.946C148.89 56.6918 148.921 56.439 148.982 56.196C149.108 55.6778 149.367 55.223 149.722 54.8995C150.076 54.576 150.507 54.4011 150.95 54.4011C151.393 54.4011 151.824 54.576 152.179 54.8995C152.534 55.223 152.793 55.6778 152.918 56.196C152.966 56.4414 152.985 56.6941 152.973 56.946V56.946Z" stroke="#263238" stroke-miterlimit="10"/>
<path d="M38.5974 230.724V247.752L32.59 242.43H29.7217V236.046H32.59L38.5974 230.724Z" stroke="#263238" stroke-miterlimit="10"/>
<path d="M43.8519 232.374C44.6531 233.217 45.287 234.271 45.7059 235.456C46.1249 236.641 46.318 237.926 46.2706 239.216C46.2232 240.505 45.9367 241.764 45.4325 242.899C44.9283 244.033 44.2197 245.014 43.3599 245.766" stroke="#263238" stroke-linecap="round" stroke-linejoin="round"/>
<path d="M40.6736 234.834C41.3177 235.166 41.8674 235.722 42.2538 236.433C42.6403 237.143 42.8464 237.977 42.8464 238.83C42.8464 239.683 42.6403 240.517 42.2538 241.227C41.8674 241.938 41.3177 242.494 40.6736 242.826" stroke="#263238" stroke-linecap="round" stroke-linejoin="round"/>
<path d="M188.697 250.446C189.062 250.446 189.424 250.358 189.762 250.187C190.099 250.017 190.406 249.766 190.664 249.451C190.922 249.136 191.127 248.761 191.266 248.349C191.406 247.937 191.477 247.496 191.476 247.05V236.298C191.492 235.84 191.432 235.384 191.299 234.955C191.166 234.527 190.964 234.136 190.704 233.805C190.444 233.474 190.132 233.211 189.787 233.032C189.441 232.852 189.07 232.759 188.694 232.759C188.319 232.759 187.947 232.852 187.601 233.032C187.256 233.211 186.944 233.474 186.684 233.805C186.424 234.136 186.222 234.527 186.089 234.955C185.956 235.384 185.896 235.84 185.912 236.298V247.05C185.912 247.496 185.984 247.938 186.124 248.35C186.264 248.762 186.469 249.136 186.728 249.451C186.986 249.767 187.293 250.017 187.631 250.187C187.969 250.358 188.331 250.446 188.697 250.446V250.446Z" stroke="#263238" stroke-miterlimit="10"/>
<path d="M193.636 246.888V241.842C193.636 241.677 193.583 241.519 193.487 241.403C193.392 241.286 193.262 241.221 193.127 241.221C192.992 241.221 192.863 241.286 192.767 241.403C192.672 241.519 192.618 241.677 192.618 241.842V246.888C192.618 248.15 192.207 249.36 191.475 250.252C190.743 251.145 189.751 251.646 188.716 251.646C187.682 251.646 186.689 251.145 185.958 250.252C185.226 249.36 184.815 248.15 184.815 246.888V241.842C184.815 241.678 184.761 241.521 184.666 241.405C184.571 241.289 184.442 241.224 184.308 241.224C184.174 241.224 184.045 241.289 183.95 241.405C183.855 241.521 183.801 241.678 183.801 241.842V246.888C183.802 248.374 184.256 249.807 185.074 250.909C185.892 252.011 187.017 252.703 188.229 252.852V258.426H185.346C185.211 258.426 185.082 258.491 184.986 258.608C184.891 258.724 184.837 258.882 184.837 259.047C184.837 259.212 184.891 259.37 184.986 259.486C185.082 259.603 185.211 259.668 185.346 259.668H192.131C192.266 259.668 192.395 259.603 192.491 259.486C192.586 259.37 192.64 259.212 192.64 259.047C192.64 258.882 192.586 258.724 192.491 258.608C192.395 258.491 192.266 258.426 192.131 258.426H189.248V252.852C190.453 252.692 191.568 251.995 192.378 250.894C193.188 249.794 193.636 248.367 193.636 246.888V246.888Z" stroke="#263238" stroke-miterlimit="10"/>
<path d="M237.193 46.278C237.193 48.922 236.55 51.5065 235.346 53.7049C234.141 55.9033 232.429 57.6167 230.426 58.6285C228.423 59.6403 226.219 59.905 224.093 59.3892C221.966 58.8734 220.013 57.6002 218.48 55.7306C216.947 53.8611 215.903 51.4791 215.48 48.886C215.057 46.2929 215.274 43.605 216.104 41.1623C216.934 38.7196 218.339 36.6319 220.141 35.163C221.944 33.6941 224.063 32.91 226.231 32.91C227.671 32.9085 229.097 33.2532 230.428 33.9244C231.758 34.5957 232.967 35.5803 233.985 36.8219C235.003 38.0636 235.811 39.5379 236.361 41.1605C236.912 42.7831 237.194 44.5221 237.193 46.278V46.278Z" stroke="#263238" stroke-miterlimit="10"/>
<path d="M226.231 48.348C228.726 48.348 230.748 45.882 230.748 42.84C230.748 39.798 228.726 37.332 226.231 37.332C223.737 37.332 221.715 39.798 221.715 42.84C221.715 45.882 223.737 48.348 226.231 48.348Z" stroke="#263238" stroke-miterlimit="10"/>
<path d="M233.021 56.778C231.088 58.6409 228.696 59.6543 226.232 59.6543C223.767 59.6543 221.375 58.6409 219.442 56.778C219.668 54.7775 220.48 52.9443 221.728 51.6173C222.976 50.2903 224.576 49.5592 226.232 49.5592C227.887 49.5592 229.487 50.2903 230.735 51.6173C231.983 52.9443 232.795 54.7775 233.021 56.778V56.778Z" stroke="#263238" stroke-miterlimit="10"/>
<path d="M307.992 239.286C307.993 241.593 307.433 243.849 306.382 245.768C305.331 247.688 303.838 249.183 302.09 250.067C300.342 250.951 298.418 251.182 296.563 250.732C294.707 250.282 293.002 249.171 291.664 247.54C290.326 245.908 289.415 243.829 289.046 241.566C288.677 239.303 288.867 236.957 289.592 234.826C290.316 232.694 291.543 230.873 293.117 229.591C294.69 228.31 296.54 227.627 298.432 227.628C299.688 227.626 300.932 227.926 302.093 228.511C303.253 229.096 304.308 229.954 305.196 231.037C306.084 232.12 306.788 233.406 307.268 234.822C307.748 236.237 307.994 237.754 307.992 239.286V239.286Z" stroke="#263238" stroke-miterlimit="10"/>
<path d="M301.203 239.679C302.74 237.804 302.74 234.765 301.203 232.89C299.666 231.016 297.174 231.016 295.637 232.89C294.1 234.765 294.1 237.804 295.637 239.679C297.174 241.553 299.666 241.553 301.203 239.679Z" stroke="#263238" stroke-miterlimit="10"/>
<path d="M304.342 248.442C302.654 250.066 300.567 250.95 298.418 250.95C296.268 250.95 294.181 250.066 292.494 248.442C292.696 246.701 293.407 245.108 294.495 243.956C295.583 242.803 296.976 242.168 298.418 242.168C299.859 242.168 301.252 242.803 302.341 243.956C303.429 245.108 304.14 246.701 304.342 248.442V248.442Z" stroke="#263238" stroke-miterlimit="10"/>
<path d="M333.98 239.286C333.981 241.593 333.42 243.849 332.37 245.768C331.319 247.688 329.825 249.183 328.078 250.067C326.33 250.951 324.406 251.182 322.55 250.732C320.695 250.282 318.99 249.171 317.652 247.54C316.314 245.908 315.403 243.829 315.034 241.566C314.665 239.303 314.855 236.957 315.58 234.826C316.304 232.694 317.531 230.873 319.104 229.591C320.678 228.31 322.528 227.627 324.42 227.628C325.676 227.626 326.92 227.926 328.081 228.511C329.241 229.096 330.296 229.954 331.184 231.037C332.072 232.12 332.776 233.406 333.256 234.822C333.736 236.237 333.981 237.754 333.98 239.286Z" stroke="#263238" stroke-miterlimit="10"/>
<path d="M328.254 237.4C328.755 234.82 327.447 232.234 325.331 231.622C323.216 231.011 321.095 232.607 320.594 235.186C320.093 237.766 321.401 240.353 323.516 240.964C325.632 241.575 327.753 239.979 328.254 237.4Z" stroke="#263238" stroke-miterlimit="10"/>
<path d="M330.343 248.442C328.656 250.066 326.569 250.95 324.42 250.95C322.27 250.95 320.183 250.066 318.496 248.442C318.698 246.701 319.409 245.108 320.497 243.956C321.585 242.803 322.978 242.168 324.42 242.168C325.861 242.168 327.254 242.803 328.343 243.956C329.431 245.108 330.141 246.701 330.343 248.442V248.442Z" stroke="#263238" stroke-miterlimit="10"/>
<path d="M51.4582 111.804C51.4573 114.11 50.8958 116.363 49.8448 118.279C48.7938 120.196 47.3004 121.689 45.5536 122.57C43.8067 123.452 41.8847 123.682 40.0307 123.231C38.1766 122.781 36.4737 121.67 35.1373 120.039C33.8009 118.409 32.8909 116.331 32.5224 114.07C32.154 111.809 32.3436 109.465 33.0673 107.335C33.7909 105.205 35.0162 103.385 36.5882 102.104C38.1601 100.824 40.0082 100.14 41.8987 100.14C43.1548 100.138 44.3989 100.439 45.5596 101.025C46.7204 101.61 47.7749 102.47 48.6629 103.553C49.5509 104.637 50.2549 105.923 50.7346 107.339C51.2143 108.755 51.4602 110.272 51.4582 111.804V111.804Z" stroke="#263238" stroke-miterlimit="10"/>
<path d="M45.7896 109.576C46.1379 106.96 44.6808 104.494 42.5351 104.069C40.3894 103.645 38.3676 105.422 38.0193 108.038C37.671 110.655 39.1281 113.121 41.2738 113.545C43.4195 113.97 45.4413 112.193 45.7896 109.576Z" stroke="#263238" stroke-miterlimit="10"/>
<path d="M47.8225 120.96C46.136 122.587 44.0489 123.471 41.8988 123.471C39.7487 123.471 37.6615 122.587 35.9751 120.96C36.1771 119.22 36.8876 117.626 37.976 116.474C39.0643 115.321 40.4573 114.687 41.8988 114.687C43.3402 114.687 44.7332 115.321 45.8216 116.474C46.9099 117.626 47.6204 119.22 47.8225 120.96V120.96Z" stroke="#263238" stroke-miterlimit="10"/>
<path d="M336.149 268.068H348.838" stroke="#263238" stroke-miterlimit="10"/>
<path d="M103.866 268.068H331.815" stroke="#263238" stroke-miterlimit="10"/>
<path d="M17.7415 268.068H98.6656" stroke="#263238" stroke-miterlimit="10"/>
<path d="M156.756 105.762C158.975 106.962 164.397 106.794 164.397 106.794C164.397 106.794 163.236 102.462 163.132 102.204C161.942 99.1679 158.178 94.1579 155.118 94.6619C152.914 95.0219 151.674 97.7159 152.166 100.248C152.658 102.78 154.867 104.754 156.756 105.762Z" fill="#263238"/>
<path d="M158.626 124.914C160.928 125.322 165.765 123.612 166.148 123.468C166.953 126.846 167.939 130.155 169.1 133.374C169.765 135.252 170.483 137.118 171.221 138.978C170.783 138.192 170.38 137.49 170.316 137.4C168.515 134.856 163.802 131.238 160.968 132.708C158.916 133.77 158.321 136.758 159.349 139.038C160.377 141.318 162.911 142.524 164.948 142.884C166.985 143.244 171.167 141.894 172.264 141.516C172.549 142.23 172.835 142.944 173.125 143.652C174.527 147.054 175.939 150.438 177.238 153.816C177.696 155.016 178.114 156.216 178.532 157.386C178.138 156.684 177.804 156.102 177.745 156.018C175.939 153.474 171.226 149.85 168.397 151.326C167.931 151.587 167.515 151.964 167.176 152.433C166.837 152.903 166.583 153.454 166.431 154.051C166.278 154.648 166.23 155.277 166.29 155.899C166.35 156.52 166.516 157.118 166.778 157.656C167.831 159.99 170.345 161.142 172.382 161.502C174.419 161.862 178.198 160.644 179.496 160.2C179.895 161.436 180.298 162.672 180.638 163.89C180.859 164.73 181.13 165.516 181.297 166.374C181.464 167.232 181.681 168.054 181.868 168.882C182.183 170.49 182.522 172.146 182.798 173.73C182.995 174.822 183.167 175.872 183.344 176.934C182.901 175.734 181.991 173.436 181.892 173.25C180.416 170.406 176.22 165.954 173.223 166.884C172.73 167.055 172.272 167.352 171.879 167.753C171.486 168.155 171.167 168.653 170.942 169.214C170.716 169.776 170.591 170.39 170.573 171.015C170.555 171.64 170.645 172.262 170.837 172.842C171.585 175.344 173.927 176.946 175.9 177.678C178.07 178.488 182.872 177.75 183.467 177.678C183.757 179.424 184.023 181.134 184.254 182.748C184.425 183.948 184.589 185.096 184.746 186.192H186.67C186.488 184.992 186.291 183.678 186.07 182.334C185.784 180.534 185.45 178.662 185.086 176.724C186.532 176.026 187.943 175.224 189.312 174.324C190.891 176.412 194.94 178.86 195.467 179.166C194.916 180.822 194.365 182.424 193.828 183.924C193.543 184.722 193.267 185.472 192.992 186.216H195.029L195.521 184.794C196.087 183.114 196.662 181.314 197.238 179.454C197.818 179.598 202.576 180.78 204.79 180.168C206.797 179.616 209.218 178.23 210.133 175.806C211.048 173.382 210.227 170.508 208.116 169.644C205.189 168.444 200.736 172.5 199.083 175.206C198.985 175.368 198.099 177.24 197.548 178.434C197.784 177.672 198.04 176.94 198.247 176.148C198.714 174.6 199.142 173.028 199.609 171.348L200.219 168.852C200.441 168.024 200.584 167.118 200.77 166.242C201.169 164.208 201.494 162.114 201.779 160.002C202.896 160.5 206.881 162.186 208.943 162.012C211.004 161.838 213.577 160.914 214.768 158.688C215.959 156.462 215.516 153.468 213.538 152.22C210.793 150.498 205.873 153.678 203.914 156.054C203.796 156.198 202.547 158.094 201.882 159.15C202.045 157.878 202.212 156.612 202.345 155.316C202.724 151.584 203.014 147.786 203.329 144.006C203.417 142.842 203.521 141.69 203.624 140.532C204.018 140.718 208.716 142.848 211.004 142.65C213.061 142.476 215.639 141.558 216.829 139.326C217.124 138.813 217.326 138.231 217.424 137.617C217.522 137.002 217.512 136.37 217.396 135.76C217.28 135.151 217.06 134.578 216.751 134.079C216.441 133.58 216.049 133.166 215.599 132.864C212.854 131.136 207.934 134.322 205.981 136.692C205.833 136.872 204.042 139.602 203.614 140.292C203.836 137.748 204.077 135.216 204.392 132.732C204.802 129.368 205.388 126.039 206.148 122.766C206.335 122.85 211.23 125.106 213.602 124.902C215.653 124.728 218.232 123.804 219.422 121.578C220.613 119.352 220.17 116.358 218.192 115.116C215.447 113.388 210.527 116.568 208.574 118.944C208.421 119.13 206.497 122.07 206.178 122.628C206.222 122.442 206.251 122.238 206.301 122.028C207.145 118.778 208.227 115.628 209.533 112.614C210.237 110.94 211.009 109.386 211.737 107.892C212.618 108.426 216.657 110.814 218.792 110.892C220.854 110.994 223.496 110.424 224.878 108.366C225.219 107.896 225.475 107.344 225.629 106.746C225.783 106.147 225.831 105.516 225.771 104.893C225.711 104.27 225.544 103.669 225.281 103.131C225.018 102.592 224.664 102.127 224.244 101.766C221.671 99.6839 216.49 102.192 214.335 104.286C214.217 104.4 213.13 105.72 212.367 106.686C212.716 106.02 213.07 105.324 213.415 104.694C214.704 102.294 216.008 100.248 217.174 98.4179C217.848 97.3859 218.468 96.4679 219.058 95.6159C220.141 95.6159 224.514 95.4299 226.438 94.3379C228.362 93.2459 230.438 91.2779 230.866 88.6739C231.294 86.0699 230.025 83.4779 227.811 83.1899C224.741 82.7879 221.09 87.9179 219.968 90.9899C219.87 91.2539 218.748 95.6219 218.802 95.6219H218.871C218.286 96.4259 217.671 97.2959 217.016 98.2619C215.816 100.062 214.468 102.108 213.13 104.46C211.665 106.962 210.321 109.567 209.105 112.26C207.73 115.277 206.577 118.438 205.661 121.704C205.661 121.746 205.661 121.788 205.636 121.824C205.636 120.72 205.612 117.624 205.587 117.396C205.233 114.06 202.94 107.868 199.9 107.196C197.71 106.704 195.86 108.792 195.683 111.396C195.506 114 197.08 116.7 198.635 118.374C200.367 120.258 205.174 122.088 205.558 122.232C204.698 125.574 204.019 128.981 203.526 132.432C203.23 134.448 202.989 136.494 202.763 138.54C202.763 137.586 202.734 136.74 202.724 136.614C202.365 133.278 200.077 127.086 197.036 126.414C194.847 125.922 192.997 128.01 192.82 130.614C192.643 133.218 194.217 135.918 195.772 137.592C197.326 139.266 201.405 140.946 202.488 141.366C202.409 142.158 202.32 142.944 202.242 143.73C201.873 147.51 201.518 151.284 201.076 154.974C200.918 156.27 200.726 157.548 200.539 158.82C200.539 157.974 200.515 157.26 200.5 157.152C200.146 153.816 197.853 147.624 194.817 146.952C194.31 146.855 193.791 146.89 193.295 147.054C192.8 147.218 192.338 147.508 191.94 147.904C191.542 148.3 191.217 148.794 190.987 149.354C190.756 149.913 190.624 150.526 190.601 151.152C190.424 153.798 191.998 156.45 193.553 158.124C195.108 159.798 198.793 161.316 200.077 161.826C199.85 163.128 199.629 164.424 199.363 165.672C199.162 166.518 199.024 167.346 198.783 168.186C198.542 169.026 198.345 169.842 198.128 170.658C197.666 172.218 197.194 173.826 196.711 175.326C196.382 176.376 196.052 177.366 195.727 178.368C195.895 177.078 196.18 174.54 196.185 174.324C196.147 171.372 195.491 168.481 194.281 165.924C194.289 165.593 194.273 165.261 194.232 164.934C194.167 164.313 193.996 163.716 193.729 163.181C193.463 162.646 193.108 162.186 192.686 161.83C192.264 161.473 191.786 161.229 191.282 161.112C190.777 160.996 190.259 161.01 189.76 161.154C186.778 162.126 184.884 168.516 184.741 171.87C184.741 172.068 184.84 174.234 184.923 175.596C184.776 174.804 184.638 174.036 184.475 173.196C184.161 171.588 183.811 169.992 183.437 168.27C183.236 167.448 183.029 166.62 182.817 165.78C182.606 164.94 182.325 164.094 182.099 163.236C181.509 161.268 180.83 159.306 180.131 157.35C181.287 157.014 185.376 155.742 187.019 154.206C188.662 152.67 190.384 150.174 190.37 147.516C190.384 146.892 190.29 146.271 190.094 145.693C189.899 145.116 189.606 144.595 189.235 144.165C188.864 143.734 188.423 143.404 187.94 143.194C187.458 142.985 186.944 142.902 186.434 142.95C183.364 143.358 180.697 149.322 180.141 152.622C180.106 152.826 179.924 155.244 179.846 156.576C179.403 155.376 178.97 154.23 178.498 153.066C177.125 149.694 175.649 146.334 174.188 142.974C173.74 141.942 173.307 140.91 172.864 139.884C173.278 139.764 178.163 138.384 180.003 136.662C181.637 135.132 183.373 132.63 183.354 129.972C183.368 129.348 183.274 128.727 183.078 128.15C182.883 127.573 182.59 127.053 182.219 126.622C181.848 126.192 181.406 125.862 180.924 125.654C180.441 125.445 179.928 125.363 179.418 125.412C176.348 125.814 173.681 131.784 173.125 135.078C173.086 135.324 172.825 138.804 172.795 139.692C171.811 137.424 170.881 135.15 170.025 132.864C168.85 129.782 167.843 126.609 167.009 123.366C167.201 123.312 172.303 121.896 174.188 120.138C175.826 118.608 177.558 116.106 177.543 113.448C177.528 110.79 175.806 108.588 173.607 108.882C170.537 109.29 167.87 115.254 167.314 118.548C167.27 118.806 166.995 122.55 166.985 123.234C166.941 123.048 166.872 122.856 166.827 122.67C166.063 119.391 165.54 116.036 165.263 112.644C165.091 110.772 165.012 108.972 164.968 107.244C165.952 107.1 170.38 106.38 172.22 105.024C173.981 103.722 175.929 101.466 176.156 98.8199C176.226 98.2001 176.188 97.5693 176.045 96.9685C175.902 96.3677 175.657 95.8104 175.325 95.3327C174.994 94.8551 174.584 94.4678 174.122 94.1962C173.659 93.9245 173.156 93.7745 172.643 93.7559C169.553 93.7559 166.37 99.3239 165.519 102.522C165.469 102.696 165.16 104.526 164.953 105.864C164.953 105.072 164.918 104.256 164.923 103.5C164.923 100.65 165.071 98.0399 165.219 95.7359C165.312 94.4219 165.415 93.2399 165.524 92.1359C166.419 91.3859 169.991 88.3139 171.088 86.1359C172.185 83.9579 173.056 80.8979 172.234 78.4259C171.413 75.9539 169.179 74.6579 167.206 75.8999C164.461 77.6339 163.738 84.3659 164.195 87.6839C164.235 87.9719 165.268 92.3699 165.317 92.3339L165.371 92.2859C165.248 93.3479 165.13 94.4939 165.022 95.7419C164.83 98.0519 164.638 100.662 164.584 103.542C164.494 106.624 164.553 109.709 164.761 112.782C164.982 116.226 165.453 119.639 166.168 122.982C166.176 123.021 166.186 123.059 166.198 123.096C165.706 122.166 164.279 119.616 164.151 119.436C162.35 116.892 157.637 113.274 154.803 114.744C152.756 115.806 152.156 118.794 153.184 121.08C154.213 123.366 156.589 124.548 158.626 124.914Z" fill="#263238"/>
<path d="M211.595 107.214C211.644 107.25 212.579 102.822 212.613 102.534C212.992 99.204 212.121 92.49 209.341 90.852C207.339 89.652 205.1 91.092 204.367 93.54C203.634 95.988 204.569 99.102 205.686 101.214C206.999 103.686 211.59 107.214 211.595 107.214Z" fill="#263238"/>
<path d="M272.253 230.4C270.462 230.85 267.166 233.82 267.166 233.826C267.166 233.832 269.429 235.878 269.587 235.986C271.407 237.228 275.52 238.326 277.232 236.388C277.509 236.056 277.725 235.658 277.867 235.218C278.009 234.778 278.074 234.306 278.057 233.834C278.04 233.361 277.941 232.898 277.768 232.475C277.594 232.052 277.35 231.678 277.05 231.378C275.81 230.052 273.783 230.022 272.253 230.4Z" fill="#263238"/>
<path d="M264.258 219.564C262.689 220.53 260.322 224.16 260.125 224.448C258.425 222.786 256.637 221.263 254.772 219.888C253.69 219.084 252.578 218.31 251.456 217.554C252.012 217.806 252.509 218.028 252.583 218.052C254.605 218.652 258.812 218.394 260.042 215.976C260.24 215.566 260.364 215.11 260.408 214.637C260.451 214.164 260.412 213.685 260.293 213.232C260.174 212.779 259.978 212.361 259.718 212.007C259.457 211.653 259.139 211.37 258.782 211.176C257.306 210.294 255.338 210.918 253.946 211.776C252.553 212.634 250.458 215.688 249.916 216.504C249.483 216.216 249.055 215.904 248.617 215.646C246.536 214.29 244.455 212.946 242.448 211.548C241.739 211.056 241.055 210.54 240.372 210.03C240.864 210.252 241.282 210.438 241.356 210.456C243.383 211.056 247.589 210.804 248.819 208.386C249.018 207.976 249.143 207.519 249.186 207.046C249.23 206.572 249.19 206.093 249.071 205.64C248.952 205.186 248.755 204.769 248.493 204.415C248.232 204.061 247.912 203.778 247.555 203.586C246.079 202.704 244.111 203.328 242.718 204.186C241.326 205.044 239.437 207.786 238.782 208.77C238.099 208.224 237.405 207.672 236.76 207.102C236.327 206.7 235.885 206.346 235.466 205.902L234.192 204.726C233.425 203.898 232.623 203.052 231.889 202.224C231.373 201.624 230.905 201.096 230.413 200.532C231.117 201.036 232.504 201.972 232.627 202.038C234.551 203.016 238.738 203.532 240.258 201.366C240.502 200.998 240.679 200.571 240.778 200.114C240.878 199.657 240.897 199.18 240.835 198.713C240.774 198.246 240.632 197.801 240.42 197.405C240.208 197.009 239.93 196.672 239.604 196.416C238.246 195.27 236.229 195.522 234.748 196.116C233.119 196.77 230.418 199.776 230.079 200.154C229.277 199.224 228.505 198.312 227.786 197.436C227.25 196.794 226.743 196.164 226.261 195.564L225.07 196.584C225.621 197.244 226.205 197.932 226.822 198.648C227.634 199.596 228.514 200.586 229.429 201.594C228.79 202.8 228.208 204.05 227.688 205.338C225.966 204.888 222.591 205.53 222.153 205.614C221.902 204.3 221.661 203.016 221.469 201.804C221.356 201.162 221.257 200.55 221.164 199.944L219.924 201C219.993 201.378 220.062 201.75 220.136 202.14C220.382 203.478 220.672 204.9 220.977 206.34C220.569 206.562 217.208 208.356 216.057 209.94C215.014 211.35 214.005 213.504 214.315 215.478C214.376 215.944 214.516 216.39 214.727 216.786C214.938 217.182 215.215 217.52 215.539 217.777C215.864 218.035 216.229 218.206 216.612 218.28C216.994 218.354 217.385 218.33 217.759 218.208C219.998 217.398 221.307 212.514 221.351 209.976C221.351 209.826 221.238 208.176 221.144 207.168C221.272 207.768 221.395 208.338 221.533 208.968C221.799 210.168 222.094 211.368 222.404 212.658C222.576 213.258 222.743 213.894 222.92 214.524C223.097 215.154 223.314 215.79 223.511 216.426C224.003 217.896 224.539 219.36 225.12 220.818C224.254 221.106 221.184 222.18 219.973 223.386C218.763 224.592 217.513 226.524 217.562 228.534C217.564 229.007 217.646 229.475 217.805 229.907C217.965 230.339 218.197 230.725 218.486 231.04C218.776 231.355 219.117 231.593 219.486 231.737C219.856 231.881 220.247 231.928 220.633 231.876C222.945 231.48 224.849 226.902 225.208 224.394C225.208 224.238 225.326 222.408 225.361 221.394C225.71 222.264 226.059 223.14 226.443 224.01C227.54 226.518 228.721 229.014 229.887 231.516C230.246 232.278 230.596 233.046 230.945 233.814C230.635 233.91 226.969 235.092 225.612 236.442C224.406 237.642 223.152 239.58 223.201 241.59C223.202 242.063 223.285 242.531 223.444 242.963C223.603 243.395 223.835 243.781 224.124 244.096C224.414 244.411 224.755 244.649 225.125 244.793C225.494 244.937 225.885 244.984 226.271 244.932C228.583 244.542 230.487 239.958 230.846 237.456C230.871 237.264 231.004 234.63 231.009 233.952C231.781 235.644 232.539 237.336 233.233 239.04C234.178 241.336 234.999 243.705 235.693 246.132C235.55 246.18 231.717 247.386 230.33 248.772C229.12 249.972 227.87 251.91 227.919 253.92C227.92 254.393 228.003 254.86 228.162 255.291C228.321 255.723 228.552 256.109 228.841 256.424C229.13 256.739 229.47 256.976 229.84 257.121C230.209 257.265 230.599 257.313 230.984 257.262C233.302 256.866 235.201 252.288 235.565 249.78C235.589 249.588 235.732 246.75 235.727 246.234C235.766 246.372 235.816 246.516 235.855 246.654C236.493 249.112 236.95 251.634 237.223 254.19C237.385 255.594 237.479 256.956 237.547 258.276C236.814 258.414 233.469 259.08 232.106 260.16C230.743 261.24 229.366 262.944 229.247 264.96C229.206 265.43 229.246 265.906 229.366 266.356C229.485 266.806 229.681 267.22 229.94 267.572C230.2 267.923 230.517 268.204 230.872 268.396C231.226 268.588 231.61 268.687 231.998 268.686C234.33 268.608 236.632 264.312 237.218 261.87C237.252 261.738 237.449 260.34 237.582 259.326C237.582 259.926 237.641 260.526 237.651 261.126C237.7 263.28 237.651 265.254 237.567 267C237.523 267.996 237.469 268.89 237.405 269.73C236.746 270.33 234.103 272.73 233.311 274.434C232.519 276.138 231.934 278.448 232.588 280.296C232.728 280.737 232.943 281.137 233.219 281.471C233.494 281.804 233.825 282.062 234.188 282.229C234.551 282.396 234.938 282.468 235.326 282.44C235.713 282.412 236.091 282.284 236.436 282.066C238.477 280.68 238.896 275.574 238.492 273.066C238.458 272.85 237.592 269.556 237.557 269.586L237.518 269.622C237.592 268.812 237.661 267.948 237.72 267C237.818 265.254 237.916 263.274 237.907 261.108C237.916 258.779 237.814 256.451 237.602 254.136C237.372 251.542 236.954 248.978 236.352 246.474C236.342 246.445 236.333 246.415 236.327 246.384C236.711 247.074 237.838 248.958 237.936 249.09C239.348 250.962 242.974 253.572 245.1 252.384C245.447 252.173 245.754 251.876 246.001 251.512C246.248 251.148 246.429 250.724 246.533 250.269C246.638 249.814 246.663 249.337 246.606 248.869C246.55 248.402 246.414 247.953 246.207 247.554C245.37 245.82 243.447 245.016 241.902 244.8C240.155 244.554 236.529 246 236.244 246.096C235.577 243.566 234.775 241.093 233.843 238.692C233.302 237.294 232.726 235.902 232.131 234.492C232.48 235.092 232.795 235.59 232.849 235.656C234.256 237.534 237.887 240.138 240.007 238.95C240.352 238.74 240.656 238.444 240.901 238.082C241.146 237.72 241.326 237.3 241.431 236.848C241.535 236.396 241.56 235.923 241.506 235.458C241.452 234.994 241.318 234.548 241.114 234.15C240.278 232.416 238.354 231.612 236.809 231.396C235.265 231.18 232.131 232.314 231.309 232.632C231.078 232.104 230.851 231.57 230.615 231.042C229.493 228.51 228.367 225.99 227.319 223.476C226.95 222.588 226.615 221.676 226.276 220.812C226.586 221.328 226.851 221.766 226.896 221.826C228.308 223.698 231.934 226.302 234.059 225.114C234.406 224.903 234.713 224.606 234.96 224.242C235.207 223.878 235.389 223.454 235.493 222.999C235.597 222.544 235.622 222.067 235.566 221.599C235.51 221.132 235.373 220.683 235.166 220.284C234.33 218.55 232.406 217.752 230.861 217.53C229.316 217.308 226.482 218.34 225.508 218.73C225.184 217.806 224.854 216.882 224.573 215.97C224.396 215.37 224.185 214.77 224.032 214.116C223.88 213.462 223.712 212.856 223.54 212.238C223.27 211.038 222.984 209.784 222.748 208.596C222.576 207.774 222.428 206.988 222.256 206.196C222.615 207.084 223.343 208.806 223.417 208.938C224.496 210.75 225.938 212.196 227.604 213.138C227.717 213.351 227.846 213.552 227.988 213.738C228.25 214.087 228.569 214.365 228.924 214.554C229.28 214.743 229.664 214.839 230.052 214.835C230.44 214.831 230.823 214.728 231.176 214.531C231.529 214.335 231.844 214.05 232.101 213.696C233.577 211.512 232.485 206.562 231.373 204.408C231.304 204.282 230.468 203.004 229.926 202.206L231.053 203.436C231.826 204.264 232.613 205.062 233.454 205.926L234.728 207.126C235.142 207.54 235.629 207.912 236.081 208.326C237.149 209.226 238.266 210.078 239.412 210.906C238.817 211.728 236.746 214.686 236.278 216.51C235.811 218.334 235.639 220.788 236.598 222.42C236.813 222.814 237.093 223.148 237.421 223.401C237.748 223.654 238.116 223.82 238.5 223.889C238.883 223.957 239.275 223.926 239.648 223.798C240.021 223.67 240.368 223.448 240.667 223.146C242.418 221.262 241.936 216.162 241.105 213.828C241.051 213.684 240.298 212.094 239.875 211.23C240.563 211.716 241.247 212.214 241.961 212.682C244.012 214.038 246.123 215.328 248.224 216.63C248.868 217.026 249.508 217.434 250.148 217.83C249.931 218.118 247.407 221.568 246.886 223.608C246.423 225.408 246.246 227.892 247.205 229.524C247.42 229.918 247.701 230.252 248.028 230.505C248.356 230.758 248.724 230.924 249.108 230.992C249.492 231.06 249.883 231.029 250.257 230.9C250.63 230.771 250.977 230.547 251.274 230.244C253.026 228.366 252.544 223.26 251.712 220.932C251.648 220.752 250.561 218.466 250.266 217.902C251.673 218.79 253.07 219.702 254.418 220.65C256.243 221.933 257.998 223.358 259.673 224.916C259.574 225.048 256.922 228.636 256.391 230.724C255.929 232.524 255.751 235.008 256.711 236.64C256.926 237.034 257.206 237.368 257.534 237.621C257.862 237.874 258.229 238.04 258.613 238.108C258.997 238.176 259.389 238.145 259.762 238.016C260.135 237.887 260.482 237.663 260.78 237.36C262.531 235.482 262.044 230.376 261.213 228.048C261.149 227.862 259.978 225.402 259.737 224.976C259.835 225.066 259.943 225.15 260.037 225.24C261.68 226.859 263.201 228.655 264.583 230.604C265.36 231.666 266.059 232.74 266.703 233.796C266.157 234.396 263.668 237.21 263.018 239.028C262.369 240.846 261.995 243.192 262.802 244.95C262.98 245.37 263.228 245.741 263.532 246.036C263.835 246.331 264.186 246.546 264.561 246.664C264.937 246.783 265.329 246.804 265.711 246.726C266.094 246.648 266.459 246.472 266.782 246.21C268.696 244.572 268.671 239.436 268.056 237.006C268.022 236.874 267.564 235.578 267.21 234.642C267.496 235.128 267.805 235.62 268.071 236.088C269.09 237.852 269.931 239.538 270.664 241.044C271.077 241.902 271.432 242.688 271.761 243.444C271.476 244.38 270.369 248.178 270.477 250.122C270.585 252.066 271.146 254.394 272.524 255.522C272.841 255.795 273.201 255.983 273.582 256.074C273.962 256.166 274.354 256.159 274.733 256.054C275.111 255.949 275.467 255.747 275.777 255.464C276.087 255.18 276.345 254.819 276.534 254.406C277.611 251.88 275.648 247.332 274.182 245.526C274.054 245.37 271.845 243.204 271.83 243.252V243.306C271.525 242.586 271.19 241.818 270.812 240.99C270.103 239.46 269.291 237.744 268.307 235.95C267.26 234 266.12 232.127 264.893 230.34C263.529 228.328 262.021 226.469 260.386 224.784L260.322 224.73C260.957 225.048 262.753 225.864 262.895 225.93C264.917 226.53 269.124 226.272 270.354 223.854C270.549 223.446 270.672 222.992 270.714 222.522C270.756 222.052 270.716 221.576 270.597 221.126C270.478 220.676 270.283 220.262 270.024 219.91C269.765 219.558 269.449 219.277 269.095 219.084C267.609 218.082 265.646 218.706 264.258 219.564Z" fill="#263238"/>
<path d="M237.852 258.642C237.813 258.642 238.836 261.876 238.895 262.074C239.85 264.336 242.787 268.014 245.09 267.552C245.471 267.462 245.832 267.275 246.149 267.003C246.467 266.732 246.734 266.382 246.934 265.976C247.133 265.57 247.261 265.118 247.308 264.648C247.354 264.179 247.319 263.702 247.205 263.25C246.772 261.312 245.095 259.914 243.648 259.206C241.951 258.378 237.857 258.642 237.852 258.642Z" fill="#263238"/>
<path d="M108.24 230.4C110.031 230.85 113.327 233.82 113.332 233.826C113.337 233.832 111.064 235.878 110.907 235.986C109.086 237.228 104.973 238.326 103.261 236.388C102.984 236.056 102.768 235.658 102.626 235.218C102.484 234.778 102.419 234.306 102.437 233.834C102.454 233.361 102.552 232.898 102.726 232.475C102.899 232.052 103.143 231.678 103.443 231.378C104.658 230.052 106.69 230.022 108.24 230.4Z" fill="#263238"/>
<path d="M116.215 219.564C117.78 220.53 120.151 224.16 120.348 224.448C122.046 222.785 123.832 221.261 125.696 219.888C126.779 219.084 127.891 218.31 129.012 217.554C128.456 217.806 127.959 218.028 127.891 218.052C125.863 218.652 121.657 218.394 120.427 215.976C120.228 215.566 120.103 215.109 120.06 214.636C120.016 214.162 120.056 213.683 120.175 213.23C120.295 212.776 120.491 212.359 120.753 212.005C121.014 211.651 121.334 211.368 121.691 211.176C123.167 210.294 125.135 210.918 126.528 211.776C127.92 212.634 130.016 215.688 130.557 216.504L131.851 215.646C133.932 214.29 136.013 212.946 138.021 211.548C138.729 211.056 139.413 210.54 140.097 210.03C139.605 210.252 139.187 210.438 139.113 210.456C137.091 211.056 132.884 210.804 131.654 208.386C131.455 207.976 131.329 207.52 131.285 207.047C131.24 206.573 131.279 206.094 131.398 205.64C131.517 205.186 131.714 204.769 131.975 204.415C132.236 204.061 132.556 203.778 132.914 203.586C134.39 202.704 136.358 203.328 137.75 204.186C139.143 205.044 141.032 207.786 141.686 208.77C142.375 208.224 143.064 207.672 143.708 207.102C144.146 206.7 144.584 206.346 145.002 205.902L146.252 204.66C147.024 203.832 147.821 202.986 148.555 202.158C149.071 201.558 149.539 201.03 150.031 200.466C149.332 200.97 147.944 201.906 147.821 201.972C145.898 202.95 141.706 203.466 140.191 201.3C139.946 200.933 139.767 200.506 139.667 200.049C139.567 199.592 139.547 199.114 139.609 198.646C139.67 198.179 139.813 197.733 140.026 197.337C140.239 196.941 140.518 196.605 140.845 196.35C142.198 195.204 144.215 195.456 145.696 196.05C147.325 196.704 150.031 199.71 150.365 200.088C151.167 199.158 151.939 198.246 152.663 197.37C153.194 196.728 153.701 196.098 154.183 195.498L155.374 196.518C154.823 197.178 154.24 197.866 153.627 198.582C152.815 199.53 151.93 200.52 151.015 201.528C151.656 202.733 152.24 203.983 152.761 205.272C154.483 204.822 157.858 205.464 158.291 205.548C158.542 204.234 158.783 202.95 158.98 201.738C159.088 201.096 159.187 200.484 159.285 199.878L160.54 200.958C160.471 201.336 160.407 201.708 160.333 202.098C160.082 203.436 159.792 204.858 159.487 206.298C159.9 206.52 163.255 208.314 164.407 209.898C165.45 211.308 166.458 213.462 166.148 215.436C166.089 215.903 165.949 216.349 165.738 216.746C165.527 217.142 165.251 217.48 164.926 217.738C164.601 217.995 164.235 218.166 163.852 218.24C163.47 218.314 163.079 218.289 162.704 218.166C160.471 217.356 159.157 212.472 159.113 209.934C159.113 209.784 159.231 208.134 159.319 207.126C159.192 207.726 159.073 208.296 158.936 208.926C158.67 210.126 158.375 211.326 158.06 212.616L157.568 214.482C157.406 215.082 157.169 215.748 156.973 216.384C156.481 217.854 155.944 219.318 155.364 220.776C156.235 221.064 159.3 222.138 160.51 223.344C161.72 224.55 162.97 226.482 162.921 228.492C162.92 228.965 162.837 229.433 162.678 229.865C162.519 230.297 162.287 230.683 161.997 230.998C161.708 231.313 161.367 231.551 160.997 231.695C160.627 231.839 160.237 231.886 159.851 231.834C157.538 231.438 155.634 226.86 155.275 224.352C155.275 224.196 155.162 222.366 155.128 221.352C154.773 222.222 154.424 223.098 154.04 223.968C152.943 226.476 151.767 228.972 150.596 231.474C150.237 232.236 149.893 233.004 149.539 233.772C149.848 233.868 153.514 235.05 154.872 236.4C156.082 237.6 157.332 239.538 157.283 241.548C157.281 242.021 157.199 242.488 157.04 242.919C156.881 243.351 156.65 243.736 156.361 244.052C156.071 244.367 155.731 244.604 155.362 244.749C154.993 244.893 154.603 244.941 154.217 244.89C151.905 244.5 150.001 239.916 149.637 237.414C149.612 237.222 149.479 234.588 149.475 233.91C148.702 235.602 147.944 237.294 147.256 238.998C146.309 241.293 145.487 243.662 144.796 246.09C144.938 246.138 148.771 247.344 150.163 248.73C151.369 249.93 152.623 251.868 152.569 253.878C152.569 254.351 152.487 254.819 152.328 255.251C152.169 255.682 151.938 256.069 151.649 256.384C151.36 256.699 151.019 256.937 150.649 257.081C150.28 257.225 149.89 257.272 149.504 257.22C147.192 256.824 145.288 252.246 144.928 249.738C144.899 249.546 144.761 246.708 144.766 246.192C144.727 246.33 144.673 246.474 144.633 246.612C143.996 249.07 143.538 251.592 143.266 254.148C143.103 255.552 143.01 256.914 142.946 258.234C143.679 258.372 147.019 259.038 148.358 260.118C149.696 261.198 151.098 262.902 151.216 264.918C151.258 265.388 151.218 265.863 151.098 266.313C150.979 266.762 150.784 267.176 150.525 267.528C150.266 267.879 149.949 268.16 149.595 268.353C149.241 268.545 148.858 268.644 148.471 268.644C146.134 268.566 143.831 264.27 143.246 261.828C143.216 261.696 143.015 260.298 142.882 259.284C142.882 259.884 142.828 260.484 142.813 261.084C142.764 263.238 142.813 265.212 142.897 266.958C142.941 267.954 143 268.848 143.059 269.688C143.723 270.288 146.365 272.688 147.152 274.392C147.94 276.096 148.53 278.406 147.88 280.254C147.74 280.695 147.524 281.096 147.248 281.429C146.972 281.762 146.642 282.02 146.278 282.187C145.915 282.354 145.527 282.426 145.139 282.398C144.751 282.37 144.373 282.242 144.028 282.024C141.986 280.638 141.568 275.532 141.972 273.024C142.006 272.808 142.872 269.514 142.906 269.544L142.946 269.58C142.872 268.77 142.803 267.906 142.744 266.958C142.646 265.212 142.547 263.232 142.557 261.066C142.549 258.737 142.653 256.409 142.867 254.094C143.109 251.508 143.54 248.954 144.156 246.462C144.154 246.432 144.154 246.402 144.156 246.372C143.772 247.062 142.641 248.946 142.542 249.078C141.13 250.95 137.504 253.56 135.384 252.372C135.036 252.163 134.728 251.866 134.48 251.502C134.232 251.138 134.05 250.714 133.945 250.259C133.841 249.803 133.816 249.325 133.873 248.857C133.931 248.389 134.068 247.941 134.277 247.542C135.113 245.808 137.032 245.004 138.582 244.788C140.323 244.542 143.949 245.988 144.24 246.084C144.902 243.553 145.704 241.079 146.641 238.68C147.177 237.282 147.753 235.89 148.348 234.48C147.999 235.08 147.684 235.578 147.634 235.644C146.222 237.522 142.596 240.126 140.471 238.938C140.127 238.727 139.824 238.431 139.579 238.069C139.334 237.707 139.154 237.287 139.05 236.835C138.946 236.384 138.92 235.911 138.974 235.446C139.028 234.982 139.161 234.536 139.364 234.138C140.205 232.404 142.124 231.6 143.674 231.384C145.224 231.168 148.353 232.302 149.17 232.62C149.406 232.092 149.632 231.558 149.863 231.03C150.985 228.498 152.117 225.978 153.16 223.464C153.529 222.576 153.863 221.664 154.203 220.8C153.893 221.316 153.627 221.754 153.583 221.814C152.171 223.686 148.545 226.29 146.424 225.102C146.076 224.893 145.768 224.596 145.52 224.232C145.272 223.868 145.09 223.444 144.986 222.989C144.881 222.533 144.857 222.055 144.914 221.587C144.971 221.119 145.108 220.671 145.317 220.272C146.154 218.538 148.072 217.74 149.622 217.518C151.172 217.296 153.996 218.328 154.975 218.718C155.3 217.794 155.625 216.87 155.905 215.958C156.087 215.358 156.294 214.758 156.446 214.104C156.599 213.45 156.766 212.844 156.938 212.226C157.204 211.026 157.489 209.772 157.725 208.584C157.898 207.762 158.045 206.976 158.217 206.184C157.858 207.072 157.125 208.794 157.051 208.926C155.974 210.738 154.534 212.184 152.869 213.126C152.756 213.339 152.628 213.54 152.486 213.726C152.224 214.075 151.905 214.353 151.549 214.542C151.194 214.731 150.809 214.827 150.421 214.823C150.033 214.819 149.651 214.716 149.298 214.519C148.945 214.323 148.629 214.038 148.372 213.684C146.872 211.5 147.989 206.55 149.101 204.396C149.165 204.27 150.001 202.992 150.542 202.194L149.401 203.4C148.633 204.228 147.846 205.026 147 205.89L145.73 207.09C145.312 207.504 144.825 207.876 144.373 208.29C143.305 209.19 142.188 210.042 141.047 210.87C141.637 211.692 143.713 214.65 144.176 216.474C144.638 218.298 144.815 220.752 143.856 222.384C143.642 222.778 143.361 223.113 143.034 223.367C142.706 223.621 142.338 223.787 141.954 223.856C141.571 223.924 141.179 223.893 140.806 223.765C140.432 223.636 140.085 223.413 139.787 223.11C138.036 221.226 138.523 216.126 139.354 213.792C139.403 213.648 140.156 212.058 140.584 211.194C139.895 211.68 139.207 212.178 138.498 212.646C136.441 214.002 134.331 215.292 132.23 216.594C131.585 216.99 130.946 217.398 130.306 217.794C130.523 218.082 133.047 221.532 133.568 223.572C134.031 225.372 134.208 227.856 133.248 229.488C133.034 229.882 132.753 230.216 132.425 230.469C132.098 230.722 131.73 230.888 131.346 230.956C130.962 231.024 130.571 230.993 130.197 230.864C129.824 230.735 129.477 230.511 129.18 230.208C127.428 228.33 127.915 223.224 128.747 220.896C128.811 220.716 129.893 218.43 130.193 217.866C128.781 218.754 127.384 219.666 126.036 220.614C124.211 221.897 122.456 223.322 120.781 224.88C120.884 225.012 123.531 228.6 124.068 230.688C124.53 232.488 124.707 234.972 123.748 236.604C123.533 236.998 123.253 237.332 122.925 237.585C122.597 237.838 122.229 238.004 121.845 238.072C121.461 238.14 121.07 238.109 120.697 237.98C120.323 237.851 119.977 237.627 119.679 237.324C117.923 235.446 118.41 230.34 119.241 228.012C119.31 227.826 120.476 225.366 120.717 224.94C120.624 225.03 120.515 225.114 120.417 225.204C118.774 226.823 117.252 228.619 115.871 230.568C115.094 231.63 114.395 232.704 113.75 233.76C114.301 234.36 116.786 237.174 117.436 238.992C118.085 240.81 118.459 243.156 117.652 244.914C117.474 245.334 117.225 245.705 116.922 246C116.619 246.295 116.268 246.509 115.893 246.628C115.517 246.747 115.125 246.768 114.742 246.69C114.36 246.612 113.995 246.436 113.672 246.174C111.763 244.536 111.782 239.4 112.402 236.97C112.437 236.838 112.894 235.542 113.249 234.606C112.958 235.092 112.653 235.584 112.383 236.052C111.369 237.816 110.528 239.502 109.795 241.008C109.381 241.866 109.022 242.652 108.693 243.408C108.978 244.344 110.085 248.142 109.982 250.086C109.878 252.03 109.313 254.358 107.935 255.486C107.618 255.759 107.258 255.947 106.877 256.038C106.496 256.13 106.104 256.123 105.726 256.018C105.348 255.913 104.992 255.711 104.682 255.428C104.372 255.144 104.114 254.783 103.925 254.37C102.848 251.844 104.806 247.296 106.272 245.49C106.4 245.334 108.609 243.168 108.629 243.216V243.27C108.934 242.55 109.268 241.782 109.647 240.954C110.356 239.424 111.167 237.708 112.156 235.914C113.201 233.964 114.34 232.091 115.566 230.304C116.931 228.294 118.439 226.435 120.073 224.748L120.137 224.694C119.502 225.012 117.711 225.828 117.568 225.894C115.541 226.494 111.335 226.236 110.105 223.818C109.91 223.409 109.787 222.955 109.746 222.485C109.704 222.014 109.744 221.539 109.864 221.089C109.983 220.639 110.179 220.224 110.438 219.873C110.697 219.521 111.015 219.24 111.369 219.048C112.86 218.082 114.823 218.706 116.215 219.564Z" fill="#263238"/>
<path d="M142.616 258.642C142.66 258.642 141.657 261.876 141.573 262.074C140.619 264.336 137.681 268.014 135.379 267.552C134.998 267.462 134.637 267.275 134.319 267.003C134.001 266.732 133.734 266.382 133.535 265.976C133.335 265.57 133.208 265.118 133.161 264.648C133.114 264.179 133.149 263.702 133.263 263.25C133.696 261.312 135.379 259.914 136.82 259.206C138.518 258.378 142.611 258.642 142.616 258.642Z" fill="#263238"/>
<path d="M324.671 73.9081C322.417 70.5301 321.3 66.2344 321.544 61.8898C321.789 57.5452 323.377 53.4761 325.989 50.5055C328.6 47.5349 332.039 45.8846 335.609 45.8884C339.18 45.8923 342.617 47.5499 345.224 50.5261C347.831 53.5023 349.413 57.5749 349.652 61.92C349.89 66.2651 348.766 70.5584 346.508 73.9315C344.249 77.3046 341.024 79.5056 337.485 80.0894C333.947 80.6732 330.358 79.5961 327.446 77.0761L321.173 80.7841L324.671 73.9081Z" fill="white" stroke="#263238" stroke-miterlimit="10"/>
<path d="M326.526 66.462H330.127V60.078H326.526V66.462Z" fill="#263238"/>
<path d="M329.394 66.462L335.406 71.784V54.75L329.394 60.072V66.462Z" fill="#263238"/>
<path d="M340.656 56.4C341.459 57.2418 342.094 58.2952 342.515 59.4805C342.935 60.6658 343.128 61.952 343.081 63.242C343.033 64.5319 342.746 65.7919 342.241 66.9266C341.736 68.0613 341.025 69.0412 340.164 69.792" stroke="#263238" stroke-linecap="round" stroke-linejoin="round"/>
<path d="M337.478 58.8661C338.122 59.198 338.671 59.754 339.058 60.4647C339.444 61.1755 339.65 62.0093 339.65 62.8621C339.65 63.7149 339.444 64.5487 339.058 65.2594C338.671 65.9702 338.122 66.5262 337.478 66.8581" stroke="#263238" stroke-linecap="round" stroke-linejoin="round"/>
<path d="M75.0939 76.0234C77.339 73.3648 78.45 69.9857 78.2024 66.5696C77.9547 63.1535 76.3668 59.9552 73.7598 57.6218C71.1528 55.2883 67.7213 53.9938 64.1593 54C60.5974 54.0062 57.1708 55.3127 54.5726 57.6553C51.9745 59.9978 50.3986 63.2016 50.1639 66.6186C49.9291 70.0355 51.0529 73.4107 53.308 76.0614C55.5631 78.7122 58.7812 80.4406 62.3114 80.8972C65.8415 81.3537 69.4203 80.5044 72.3239 78.5208L78.5969 81.444L75.0939 76.0234Z" fill="white" stroke="#263238" stroke-miterlimit="10"/>
<path d="M64.1715 70.688C63.4568 70.6867 62.7718 70.4132 62.2665 69.9274C61.7611 69.4416 61.4766 68.783 61.4753 68.0959V59.8988C61.4766 59.2122 61.7613 58.5541 62.2668 58.069C62.7723 57.584 63.4573 57.3115 64.1715 57.3115C64.8853 57.3115 65.5698 57.5841 66.0745 58.0693C66.5792 58.5545 66.8627 59.2126 66.8627 59.8988V68.1101C66.8588 68.7943 66.5737 69.4492 66.0696 69.9321C65.5655 70.415 64.8832 70.6867 64.1715 70.688Z" fill="#263238"/>
<path d="M64.1913 72.58C62.9286 72.5787 61.7179 72.0959 60.8251 71.2375C59.9322 70.3791 59.43 69.2153 59.4287 68.0013V64.1322C59.4287 64.0067 59.4805 63.8864 59.5728 63.7977C59.6651 63.709 59.7902 63.6592 59.9207 63.6592C60.0512 63.6592 60.1763 63.709 60.2686 63.7977C60.3609 63.8864 60.4127 64.0067 60.4127 64.1322V67.9824C60.3944 68.4702 60.4785 68.9565 60.66 69.4123C60.8415 69.8681 61.1167 70.2841 61.4692 70.6354C61.8216 70.9867 62.2441 71.2661 62.7114 71.4569C63.1786 71.6477 63.6811 71.7461 64.1888 71.7461C64.6965 71.7461 65.199 71.6477 65.6662 71.4569C66.1335 71.2661 66.556 70.9867 66.9084 70.6354C67.2609 70.2841 67.5361 69.8681 67.7176 69.4123C67.8991 68.9565 67.9832 68.4702 67.9649 67.9824V64.1322C67.9649 64.0067 68.0167 63.8864 68.109 63.7977C68.2013 63.709 68.3264 63.6592 68.4569 63.6592C68.5874 63.6592 68.7125 63.709 68.8048 63.7977C68.8971 63.8864 68.9489 64.0067 68.9489 64.1322V67.9824C68.9509 68.5847 68.8293 69.1815 68.5912 69.7386C68.3531 70.2957 68.0031 70.8022 67.5612 71.2292C67.1194 71.6562 66.5943 71.9952 66.0161 72.227C65.4379 72.4588 64.8178 72.5787 64.1913 72.58Z" fill="#263238"/>
<path d="M64.1912 77.4897C64.0607 77.4897 63.9356 77.4398 63.8433 77.3511C63.7511 77.2624 63.6992 77.1421 63.6992 77.0167V72.1069C63.6992 71.9815 63.7511 71.8612 63.8433 71.7724C63.9356 71.6837 64.0607 71.6339 64.1912 71.6339C64.3217 71.6339 64.4468 71.6837 64.5391 71.7724C64.6314 71.8612 64.6832 71.9815 64.6832 72.1069V77.0356C64.6781 77.1577 64.6241 77.2732 64.5323 77.3579C64.4406 77.4425 64.3184 77.4898 64.1912 77.4897Z" fill="#263238"/>
<path d="M67.4777 77.7404H60.9095C60.779 77.7404 60.6539 77.6906 60.5616 77.6019C60.4693 77.5132 60.4175 77.3929 60.4175 77.2674C60.4175 77.142 60.4693 77.0217 60.5616 76.933C60.6539 76.8443 60.779 76.7944 60.9095 76.7944H67.4777C67.6082 76.7944 67.7333 76.8443 67.8256 76.933C67.9178 77.0217 67.9697 77.142 67.9697 77.2674C67.9697 77.3929 67.9178 77.5132 67.8256 77.6019C67.7333 77.6906 67.6082 77.7404 67.4777 77.7404Z" fill="#263238"/>
<path d="M293.664 122.671L296.202 120.313C296.202 120.313 296.414 114.743 296.837 114.065C297.26 113.387 299.44 110.694 299.789 109.762C300.138 108.831 302.741 109.851 303.312 109.851C303.882 109.851 304.788 109.344 304.719 109.851C304.65 110.358 304.365 111.366 303.735 111.702C303.105 112.038 301.481 111.537 301.481 111.537L301.201 114.826C301.201 114.826 307.189 112.969 306.342 115.162C305.496 117.354 304.089 121.238 303.105 122.417C302.121 123.596 298.101 124.445 298.101 124.445L294.721 128.919L293.664 122.671Z" fill="white" stroke="#263238" stroke-miterlimit="10"/>
<path d="M307.961 110.859C307.961 110.859 309.585 110.776 309.585 111.537C309.585 112.297 308.876 112.969 307.961 113.476C307.046 113.983 306.411 113.729 306.411 113.476C306.411 113.222 307.961 110.859 307.961 110.859Z" fill="white" stroke="#263238" stroke-miterlimit="10"/>
<path d="M307.961 113.476C308.197 113.784 308.333 114.183 308.347 114.6C308.36 115.018 308.25 115.427 308.035 115.757C307.258 117.018 304.232 116.682 304.232 116.682L306.412 113.476C306.651 113.625 306.917 113.702 307.186 113.702C307.456 113.702 307.722 113.625 307.961 113.476Z" fill="white" stroke="#263238" stroke-miterlimit="10"/>
<path d="M307.612 116.582C307.612 116.582 307.12 118.268 306.554 118.604C305.988 118.94 303.386 118.268 303.386 118.268L304.232 116.665C304.232 116.665 307.258 116.682 307.612 116.582Z" fill="white" stroke="#263238" stroke-miterlimit="10"/>
<path d="M306.554 118.621C306.237 119.334 305.834 119.988 305.359 120.561C304.867 120.985 303.174 120.985 302.82 120.814C302.466 120.643 302.608 119.464 303.105 119.211C303.915 119.005 304.738 118.893 305.565 118.875L306.554 118.621Z" fill="white" stroke="#263238" stroke-miterlimit="10"/>
<path d="M309.959 102.436L301.103 115.68C301.013 115.815 300.971 115.986 300.984 116.158L301.255 119.246C301.266 119.372 301.307 119.492 301.373 119.591C301.439 119.689 301.528 119.763 301.629 119.802C301.729 119.842 301.837 119.845 301.94 119.812C302.042 119.779 302.134 119.712 302.205 119.618L312.448 106.238C312.531 106.128 312.581 105.989 312.591 105.842C312.601 105.695 312.57 105.548 312.502 105.424L310.834 102.477C310.786 102.393 310.722 102.323 310.648 102.274C310.573 102.225 310.49 102.197 310.405 102.193C310.32 102.189 310.235 102.209 310.158 102.251C310.08 102.293 310.012 102.356 309.959 102.436Z" fill="#263238" stroke="#263238" stroke-linecap="round" stroke-linejoin="round"/>
<path d="M300.778 116.093C300.778 116.093 299.863 118.875 298.736 119.464" stroke="#263238" stroke-miterlimit="10"/>
<path d="M288.173 125.288L294.161 121.745L295.637 129.679L288.104 137.1L288.173 125.288Z" fill="#E36F59" stroke="#263238" stroke-miterlimit="10"/>
<path d="M290.992 95.8875L293.993 99.6951L293.816 103.609L291.976 101.387L288.891 103.921L290.008 144.526L280.66 145.794L286.22 95.8875C286.22 95.8875 286.938 92.4158 290.992 95.8875Z" fill="#E36F59" stroke="#263238" stroke-miterlimit="10"/>
<path d="M287.548 100.485C287.692 105.583 287.527 110.687 287.056 115.757C286.279 123.178 284.38 140.731 284.448 141.827C284.517 142.923 284.591 144.609 284.237 145.116C283.883 145.623 279.184 145.876 279.184 145.876C279.184 145.876 283.268 112.55 283.902 106.974C284.537 101.399 284.596 97.6145 285.428 97.7206C286.259 97.8267 287.548 100.485 287.548 100.485Z" fill="white" stroke="#263238" stroke-miterlimit="10"/>
<path d="M311.828 79.7078C311.828 79.7078 309.176 84.046 308.473 85.101C307.769 86.1561 305.914 86.8693 305.649 87.6415C305.383 88.4136 304.768 91.343 304.502 92.1859C304.237 93.0288 301.412 91.9737 301.412 91.9737C301.412 91.9737 296.734 95.6753 295.853 95.8875C294.972 96.0997 292.675 93.1408 292.675 93.1408L289.516 99.2707L281.924 87.0049L286.692 80.4505C286.692 80.4505 285.9 71.7801 286.426 67.4479C286.953 63.1156 291.725 58.4592 296.31 56.3432C299.828 54.7223 305.939 59.249 308.61 61.4535C309.439 62.1489 310.124 63.0622 310.613 64.1236C311.744 66.552 313.865 71.1966 314.549 73.5543C315.533 76.855 314.209 78.9711 311.828 79.7078Z" fill="white" stroke="#263238" stroke-miterlimit="10"/>
<path d="M292.675 93.1408L290.82 90.4943L290.293 97.6852L292.675 93.1408Z" fill="#263238" stroke="#263238" stroke-miterlimit="10"/>
<path d="M306.707 86.0559C306.707 86.0559 306.884 83.6216 304.94 83.5155" stroke="#263238" stroke-miterlimit="10"/>
<path d="M304.227 87.2761C303.735 87.7004 303.213 87.8655 303.071 87.612C302.928 87.3586 303.218 86.8399 303.715 86.4332C304.212 86.0265 304.729 85.8438 304.871 86.1031C305.014 86.3625 304.724 86.8576 304.227 87.2761Z" fill="#263238"/>
<path d="M297.969 89.6514C298.127 90.6162 298.527 91.5004 299.115 92.1859" stroke="#263238" stroke-miterlimit="10"/>
<path d="M314.564 73.5543C313.865 71.1966 311.744 66.5284 310.628 64.1236C310.13 63.0584 309.435 62.1447 308.596 61.4535C305.934 59.249 299.823 54.7223 296.296 56.3432C291.71 58.4592 286.948 63.1097 286.411 67.4479C285.875 71.786 286.677 80.4505 286.677 80.4505C287.603 80.8995 288.586 81.1585 289.585 81.2168C290.212 81.1635 290.81 80.8813 291.299 80.4081C291.788 79.9349 292.145 79.2935 292.32 78.5703C292.497 77.5152 296.379 76.3481 296.202 76.8786C296.041 77.6799 295.835 78.4676 295.587 79.2363C295.52 79.3587 295.484 79.5014 295.483 79.6475C295.482 79.7936 295.516 79.937 295.581 80.0609C295.645 80.1848 295.738 80.284 295.848 80.3468C295.958 80.4095 296.081 80.4332 296.202 80.4152C296.733 80.3091 298.411 78.4052 298.411 78.4052C298.411 78.4052 302.913 80.1735 303.439 79.7786C303.966 79.3837 304.502 76.9258 304.502 76.9258C304.502 76.9258 304.591 80.6273 305.826 80.7334C306.771 80.7218 307.704 80.4686 308.561 79.9908C308.561 79.9908 308.118 82.2129 309.004 82.1068C309.89 82.0007 311.828 79.7491 311.828 79.7491C314.209 78.9711 315.533 76.855 314.564 73.5543Z" fill="#263238" stroke="#263238" stroke-linecap="round" stroke-linejoin="round"/>
<path d="M295.588 79.7079C295.588 79.7079 295.588 74.4031 294.604 74.3206C293.62 74.2381 292.04 75.5878 292.04 78.0163C292.029 79.4422 292.437 80.8274 293.192 81.93" fill="white"/>
<path d="M295.588 79.7079C295.588 79.7079 295.588 74.4031 294.604 74.3206C293.62 74.2381 292.04 75.5878 292.04 78.0163C292.029 79.4422 292.437 80.8274 293.192 81.93" stroke="#263238" stroke-miterlimit="10"/>
<path d="M307.932 208.532L314.854 209.221C314.854 209.221 321.742 207.1 322.136 208.868C322.529 210.636 320.266 212.286 318.396 214.173C316.527 216.059 310.426 219.36 310.426 219.36C310.426 219.36 305.309 222.66 303.538 223.132C301.767 223.603 299.996 215.469 299.996 215.469L307.932 208.532Z" fill="white" stroke="#263238" stroke-miterlimit="10"/>
<path d="M322.135 208.85C322.105 208.745 322.056 208.649 321.992 208.57C321.927 208.49 321.848 208.429 321.761 208.39C320.527 210.63 315.247 215.652 311.921 216.984C309.206 218.069 304.123 220.403 301.895 221.428C302.387 222.513 302.982 223.267 303.557 223.114C305.329 222.642 310.445 219.342 310.445 219.342C310.445 219.342 316.546 216.041 318.416 214.155C320.286 212.269 322.529 210.618 322.135 208.85Z" fill="white" stroke="#263238" stroke-miterlimit="10"/>
<path d="M277.56 164.29L289.368 164.054C289.368 164.054 295.764 205.078 296.65 206.964C297.034 207.904 297.569 208.746 298.224 209.439C298.224 209.439 297.24 210.618 297.535 211.679C297.831 212.74 299.7 214.744 299.995 215.452C300.291 216.159 305.801 212.504 305.801 212.504L307.931 208.514C307.931 208.514 307.243 203.681 306.849 203.327C306.336 202.948 305.953 202.363 305.767 201.677C305.668 200.969 306.16 199.791 305.865 198.848C305.57 197.905 304.783 197.315 304.684 196.49C304.586 195.665 306.391 158.513 304.817 155.331C303.243 152.148 296.65 152.973 296.65 152.973C296.65 152.973 267.72 161.225 267.917 162.757C268.114 164.29 277.56 164.29 277.56 164.29Z" fill="#263238" stroke="#263238" stroke-linecap="round" stroke-linejoin="round"/>
<path d="M296.02 202.867C296.02 202.867 297.26 204.353 297.988 205.101C298.716 205.85 303.848 209.463 303.936 210.1C304.025 210.736 303.494 212.758 302.869 213.182C302.244 213.607 295.858 212.758 294.347 212.546C292.837 212.334 287.863 208.927 286.264 207.866C284.665 206.805 282.894 204.783 282.894 204.141C282.894 203.498 287.509 194.356 287.509 194.356L296.212 201.376L296.02 202.867Z" fill="white" stroke="#263238" stroke-miterlimit="10"/>
<path d="M300.724 212.015C298.151 211.591 293.708 211.267 291.135 209.251C289.167 207.712 285.162 204.388 283.356 202.885C283.151 203.278 282.985 203.7 282.864 204.141C282.864 204.783 284.64 206.799 286.234 207.866C287.829 208.933 292.808 212.334 294.318 212.546C295.828 212.758 302.22 213.613 302.839 213.182C303.088 212.966 303.285 212.676 303.41 212.339C302.938 212.316 302.101 212.239 300.724 212.015Z" fill="white" stroke="#263238" stroke-miterlimit="10"/>
<path d="M279.332 143.188C279.332 143.188 292.719 142.97 301.472 144.267C310.224 145.564 314.077 146.195 317.408 148.729C321.23 151.641 299.4 195.983 299.4 195.983L297.531 198.812C297.531 198.812 297.924 200.227 297.629 200.463C297.05 201.223 296.511 202.026 296.015 202.867L287.499 195.629V193.154L289.27 192.446C289.123 192.041 289.079 191.593 289.142 191.157C289.205 190.721 289.372 190.317 289.624 189.994C290.129 189.38 290.696 188.843 291.312 188.397L298.692 161.909C298.692 161.909 282.687 163.936 277.57 164.266C272.453 164.596 254.54 164.266 254.54 164.266C254.54 164.266 251.883 163.441 252.08 157.665C252.277 151.888 253.949 146.937 257.3 145.287C260.65 143.636 279.332 143.188 279.332 143.188Z" fill="#263238" stroke="#263238" stroke-linecap="round" stroke-linejoin="round"/>
<path d="M297.388 201.423C297.388 201.423 298.402 200.616 298.402 200.109C298.402 199.602 298.062 198.689 298.23 198.081C298.397 197.474 304.744 185.421 304.744 185.421" stroke="white" stroke-miterlimit="10"/>
<path d="M293.132 182.079L298.717 162.427L290.85 164.048" stroke="white" stroke-miterlimit="10"/>
<path d="M298.682 161.908L307.833 159.433" stroke="white" stroke-miterlimit="10"/>
<path d="M302.52 162.144C302.52 162.144 307.538 161.909 309.998 160.258" stroke="white" stroke-miterlimit="10"/>
<path d="M287.115 100.013L280.66 145.794L279.425 161.019C279.425 161.019 270.953 164.196 263.189 162.922C255.425 161.649 253.305 159.539 253.305 159.539C253.305 159.539 259.927 126.532 259.927 126.237C259.927 125.942 263.632 106.356 265.132 102.23C266.633 98.1037 280.227 86.7927 280.227 86.7927L287.115 100.013Z" fill="#E36F59" stroke="#263238" stroke-miterlimit="10"/>
<path d="M282.79 83.7277L291.617 99.4829L287.469 102.548L280.232 86.7926L282.79 83.7277Z" fill="white" stroke="#263238" stroke-miterlimit="10"/>
<path d="M248.439 156.663L246.806 159.61C246.806 159.61 240.311 159.969 239.795 160.276C239.278 160.582 237 163.936 237 164.243C237 164.549 244.483 164.243 244.483 164.243L247.106 163.417C247.106 163.417 245.63 164.296 245.945 164.396C246.746 164.449 247.549 164.449 248.35 164.396C248.35 164.396 251.617 163.164 252.09 162.492C252.562 161.82 253.467 158.219 253.467 158.219L248.439 156.663Z" fill="white" stroke="#263238" stroke-miterlimit="10"/>
<path d="M242.117 164.219C242.117 164.219 244.995 160.971 245.167 160.818C245.472 160.68 245.792 160.593 246.117 160.559" stroke="#263238" stroke-miterlimit="10"/>
<path d="M243.578 160.252C243.164 160.363 242.771 160.562 242.417 160.842C242.2 161.148 240.223 164.343 240.223 164.343" stroke="#263238" stroke-miterlimit="10"/>
<path d="M241.384 160.459C241.384 160.459 240.528 160.612 240.355 160.871C240.183 161.131 238.461 164.219 238.461 164.219" stroke="#263238" stroke-miterlimit="10"/>
<path d="M271.509 99.1647C271.509 99.1647 253.954 119.529 253.6 121.162C253.246 122.795 247.868 157.117 247.868 157.117C248.703 157.601 249.573 157.996 250.466 158.295C251.795 158.62 253.142 158.834 254.495 158.938L262.648 129.426C262.648 129.426 279.75 114.814 280.66 113.977C281.57 113.14 282.274 109.037 282.274 107.641" fill="#E36F59"/>
<path d="M271.509 99.1647C271.509 99.1647 253.954 119.529 253.6 121.162C253.246 122.795 247.868 157.117 247.868 157.117C248.703 157.601 249.573 157.996 250.466 158.295C251.795 158.62 253.142 158.834 254.495 158.938L262.648 129.426C262.648 129.426 279.75 114.814 280.66 113.977C281.57 113.14 282.274 109.037 282.274 107.641" stroke="#263238" stroke-miterlimit="10"/>
<path d="M91.1678 81.1953C91.1678 81.1953 83.6648 87.8673 83.7632 91.6469C83.8616 95.4266 88.0485 98.2066 88.634 98.6559C89.2194 99.1052 96.132 105.659 95.5515 108.552C94.9709 111.444 89.2194 110.888 88.2453 114.331C87.2711 117.773 89.121 119.228 91.8467 120.003C94.5724 120.778 99.5416 117.756 100.909 118.318C102.277 118.88 105.682 121.435 108.407 122.991C111.133 124.546 112.988 124.878 116.201 121.435C119.413 117.992 117.677 114.651 117.677 114.651C117.677 114.651 123.428 116.987 124.889 111.315C126.351 105.642 124.304 101.767 121.48 101.082C120.071 100.711 118.635 100.487 117.19 100.414C117.19 100.414 117.386 92.0738 115.438 89.1814C113.49 86.2891 108.422 80.2854 104.432 78.6174C100.442 76.9494 94.1837 78.9488 91.1678 81.1953Z" fill="#263238" stroke="#263238" stroke-linecap="round" stroke-linejoin="round"/>
<path d="M68.1766 145.781L66.5137 140.019L70.1791 138.334C70.1791 138.334 69.141 144.416 68.1766 145.781Z" fill="#263238" stroke="#263238" stroke-miterlimit="10"/>
<path d="M87.8025 227.609C87.8025 227.609 90.1789 229.76 90.0805 230.978C89.9821 232.197 88.6931 235.612 89.0965 237.987C89.4999 240.363 89.0965 243.525 88.3044 245.109C87.5123 246.692 86.7201 247.355 86.4249 247.029C85.9021 246.375 85.5883 245.538 85.5344 244.654C85.5344 243.637 86.1297 226.233 86.1297 226.233L87.8025 227.609Z" fill="white" stroke="#263238" stroke-miterlimit="10"/>
<path d="M77.0081 246.26L77.6034 255.302C77.6034 255.302 77.8986 256.206 80.2749 255.864C82.6513 255.521 85.6082 252.247 85.6082 252.247L84.9145 243.884C84.9145 243.884 79.7042 246.372 77.0081 246.26Z" fill="white" stroke="#263238" stroke-miterlimit="10"/>
<path d="M79.9797 253.494C79.9797 253.494 77.7017 248.86 76.4176 249.534C75.1335 250.208 75.8223 254.168 75.8223 255.072C75.8223 255.976 72.7522 262.305 71.4632 263.665C70.1741 265.024 68.2996 265.911 68.398 267.034C68.4964 268.157 70.671 268.506 72.334 268.393C73.997 268.281 77.9773 266.81 79.5615 265.793C81.1457 264.777 87.8763 259.351 88.2699 258.559C88.6635 257.768 88.1715 254.83 87.4778 253.926C86.784 253.022 85.4015 250.652 85.4015 250.197C85.4015 249.742 85.4015 249.517 84.4175 250.309C83.4335 251.101 82.4495 252.342 82.0412 252.556C81.6328 252.769 79.9797 253.494 79.9797 253.494Z" fill="white" stroke="#263238" stroke-miterlimit="10"/>
<path d="M94.4346 161.259L93.7409 159.114C93.7409 159.114 78.7939 155.155 72.0584 150.634C72.0584 150.634 62.4546 161.827 58.1004 169.055C53.7462 176.283 48.3982 192.687 48.7918 194.838C49.1854 196.989 71.5664 224.11 71.5664 224.11C71.5664 224.11 74.5184 239.706 74.9317 243.092C75.345 246.479 78.4938 248.405 81.067 248.293C83.6401 248.181 86.3166 245.693 86.6118 244.789C86.907 243.884 87.8024 222.751 88.196 215.405C88.9306 204.926 90.3881 194.53 92.5552 184.314C94.7298 174.71 95.9401 167.022 94.4346 161.259ZM71.2663 201.943L66.7153 194.597L71.96 183.623L71.2663 201.943Z" fill="#E36F59" stroke="#263238" stroke-miterlimit="10"/>
<path d="M71.96 183.634C71.96 183.634 72.6537 168.605 73.3474 165.213" stroke="#263238" stroke-miterlimit="10"/>
<path d="M71.2664 201.943C71.2664 201.943 71.168 216.185 71.5665 224.099" stroke="#263238" stroke-miterlimit="10"/>
<path d="M66.7153 194.608C66.7153 194.608 64.3389 192.362 62.553 192.013" stroke="#263238" stroke-miterlimit="10"/>
<path d="M81.0669 161.035C81.0669 161.035 79.7828 170.751 79.0989 176.288" stroke="#263238" stroke-miterlimit="10"/>
<path d="M82.1641 168.942C82.1641 168.942 82.3609 178.439 82.2625 178.889" stroke="#263238" stroke-miterlimit="10"/>
<path d="M71.6649 155.155C71.6649 155.155 67.2073 161.372 65.1311 165.101" stroke="#263238" stroke-miterlimit="10"/>
<path d="M72.7522 155.834L69.6821 163.18" stroke="#263238" stroke-miterlimit="10"/>
<path d="M94.282 117.195C94.282 117.195 84.5404 119.307 83.458 120.419C82.3756 121.531 69.9182 133.544 69.9182 133.544L68.1765 145.781L73.3376 143.67C73.3376 143.67 69.4409 148.674 69.6377 149.561C69.8345 150.448 73.7263 154.677 76.3585 156.57C78.9907 158.463 92.0434 161.574 95.2562 161.793C98.469 162.012 98.1787 157.789 98.3755 157.014C98.5723 156.239 100.516 147.893 100.516 147.893L115.714 143.535C115.714 143.535 113.185 120.739 110.749 116.847C108.314 112.955 105.485 113.73 103.246 114.6C101.008 115.471 94.282 117.195 94.282 117.195Z" fill="#CCCCCC" stroke="#263238" stroke-miterlimit="10"/>
<path d="M101.588 122.979L102.563 144.664" stroke="#263238" stroke-miterlimit="10"/>
<path d="M88.8257 92.9555C88.8257 92.9555 88.2451 98.1786 88.2451 101.408C88.2451 104.637 89.7998 109.748 91.4579 111.747C93.1159 113.747 93.7949 113.859 94.9658 113.432L93.1159 123.215C93.1159 123.215 99.8366 118.436 101.101 117.324C101.93 116.564 102.653 115.664 103.246 114.656L104.417 107.316C105.047 106.317 105.569 105.234 105.972 104.092C106.464 102.537 106.754 100.419 105.48 99.4197C104.206 98.42 103.241 97.5327 99.7333 93.0847C96.2254 88.6367 96.127 88.0807 96.127 88.0807L88.8257 92.9555Z" fill="white" stroke="#263238" stroke-miterlimit="10"/>
<path d="M103.537 101.627C103.537 101.627 105.583 96.9599 106.853 99.3804C108.122 101.801 107.532 103.716 106.656 104.94C105.78 106.165 103.832 105.833 103.832 105.833" fill="white"/>
<path d="M103.537 101.627C103.537 101.627 105.583 96.9599 106.853 99.3804C108.122 101.801 107.532 103.716 106.656 104.94C105.78 106.165 103.832 105.833 103.832 105.833" stroke="#263238" stroke-miterlimit="10"/>
<path d="M94.9659 113.415L98.3754 111.747L94.282 117.195L94.9659 113.415Z" fill="#263238" stroke="#263238" stroke-linecap="round" stroke-linejoin="round"/>
<path d="M92.4322 97.0665C92.4322 97.0665 91.6549 100.184 91.1678 101.408C90.6807 102.632 89.6082 103.093 90.1838 103.407C90.8348 103.821 91.5873 103.977 92.324 103.851" stroke="#263238" stroke-linecap="round" stroke-linejoin="round"/>
<path d="M91.3596 106.3C93.038 106.506 94.7199 105.947 96.0385 104.744C96.0385 104.744 95.2563 108.08 93.9918 108.636C92.7274 109.192 91.3596 106.3 91.3596 106.3Z" stroke="#263238" stroke-linecap="round" stroke-linejoin="round"/>
<path d="M94.9561 94.0675C94.9561 94.0675 96.1221 93.0678 97.8785 94.6291" stroke="#263238" stroke-linecap="round" stroke-linejoin="round"/>
<path d="M92.2354 94.2865C92.0917 94.0836 91.9133 93.9162 91.711 93.7946C91.5088 93.673 91.2869 93.5997 91.059 93.5792C90.8311 93.5587 90.6019 93.5914 90.3855 93.6754C90.169 93.7593 89.9698 93.8928 89.8 94.0675" stroke="#263238" stroke-linecap="round" stroke-linejoin="round"/>
<path d="M96.7176 98.0719C96.7176 98.7458 96.4568 99.2906 96.1321 99.2906C95.8074 99.2906 95.5515 98.729 95.5515 98.0719C95.5515 97.4148 95.8123 96.8475 96.1321 96.8475C96.4519 96.8475 96.7176 97.3923 96.7176 98.0719Z" fill="#263238"/>
<path d="M91.2613 97.0665C91.2613 97.746 91.0005 98.2908 90.6807 98.2908C90.3609 98.2908 90.0952 97.7292 90.0952 97.0665C90.0952 96.4038 90.356 95.8478 90.6807 95.8478C91.0054 95.8478 91.2613 96.3925 91.2613 97.0665Z" fill="#263238"/>
<path d="M73.3376 143.664L81.8148 127.096" stroke="#263238" stroke-miterlimit="10"/>
<path d="M71.6156 103.694L78.7988 119.98C78.8838 120.176 79.0171 120.34 79.1823 120.451C79.3475 120.561 79.5374 120.615 79.7287 120.604L85.7311 120.273C85.8919 120.265 86.0485 120.212 86.1874 120.119C86.3262 120.027 86.443 119.896 86.5275 119.74C86.612 119.584 86.6616 119.406 86.672 119.223C86.6824 119.04 86.6533 118.856 86.5872 118.689L79.9747 101.627C79.8875 101.401 79.7376 101.215 79.5482 101.096C79.3588 100.977 79.1404 100.933 78.9267 100.97L72.3585 102.065C72.2023 102.089 72.0533 102.155 71.9243 102.259C71.7953 102.362 71.6899 102.5 71.6171 102.659C71.5443 102.819 71.5061 102.996 71.5059 103.176C71.5056 103.356 71.5432 103.534 71.6156 103.694Z" fill="#263238" stroke="#263238" stroke-miterlimit="10"/>
<path d="M71.8764 112.747C71.8764 112.747 75.3844 121.531 75.286 121.98C75.1876 122.429 60.772 136.211 60.6736 137.66C60.5752 139.109 61.5493 143.439 63.0106 144.108C64.4718 144.776 66.5185 143.546 67.104 142.984C67.6895 142.423 78.0166 125.967 78.5971 125.192C79.1777 124.417 79.281 122.188 79.281 122.188C80.2545 120.893 81.33 119.703 82.4938 118.633C84.0534 117.296 83.4778 116.515 82.4003 117.071C81.5868 117.525 80.804 118.047 80.0584 118.633C79.3843 119.194 79.2761 117.813 81.6918 115.735C83.8074 113.915 83.3548 113.157 83.4679 112.848C83.7631 112.067 82.5922 112.623 82.5922 112.623C82.5922 112.623 82.8874 111.579 82.4987 111.354C82.3579 111.296 82.2081 111.273 82.0589 111.286C81.9098 111.298 81.7646 111.346 81.6328 111.427L76.4569 114.516L74.7841 113.64C74.7841 113.64 78.3905 110.748 79.5565 110.192C80.7226 109.635 81.2146 108.08 80.0485 108.411C78.8825 108.743 72.6587 111.523 71.8764 112.747Z" fill="white" stroke="#263238" stroke-miterlimit="10"/>
<path d="M82.5922 112.646C82.5922 112.646 77.5295 116.319 77.1359 116.987C76.8744 117.611 76.7415 118.295 76.7473 118.987" stroke="#263238" stroke-miterlimit="10"/>
<path d="M76.4569 114.527C76.4569 114.527 74.7988 115.415 74.7004 116.212" stroke="#263238" stroke-miterlimit="10"/>
<path d="M115.325 140.918C115.325 140.918 84.5355 147.466 83.9402 148.264C83.3448 149.061 79.704 161.596 79.7828 162.63C79.8615 163.663 82.0607 167.263 82.5527 167.83C83.0447 168.398 84.1369 168.622 84.8307 168.847C85.5244 169.071 88.0975 168.167 87.7039 167.263C87.3103 166.359 85.7359 166.589 85.7359 166.589L84.7519 163.876C85.282 162.403 85.5833 160.835 85.6425 159.243C85.6425 156.997 86.1345 152.122 86.1345 152.122H115.226C115.226 152.122 116.515 151.667 116.614 150.881C116.712 150.094 115.325 140.918 115.325 140.918Z" fill="white" stroke="#263238" stroke-miterlimit="10"/>
<path d="M82.7544 163.517C82.7544 163.517 83.8417 166.887 84.0385 167.364C84.2353 167.841 84.8306 168.83 84.8306 168.83" stroke="#263238" stroke-miterlimit="10"/>
<path d="M81.1702 163.86L82.5527 167.813" stroke="#263238" stroke-miterlimit="10"/>
<path d="M280.893 164.451H96.1417C93.7831 164.451 91.8711 166.293 91.8711 168.565V225.248C91.8711 227.52 93.7831 229.362 96.1417 229.362H280.893C283.251 229.362 285.163 227.52 285.163 225.248V168.565C285.163 166.293 283.251 164.451 280.893 164.451Z" fill="#263238" stroke="#263238" stroke-linecap="round" stroke-linejoin="round"/>
<path d="M283.943 162H99.192C96.8334 162 94.9214 163.842 94.9214 166.114V222.797C94.9214 225.07 96.8334 226.911 99.192 226.911H283.943C286.301 226.911 288.213 225.07 288.213 222.797V166.114C288.213 163.842 286.301 162 283.943 162Z" fill="white" stroke="#263238" stroke-miterlimit="10"/>
<path d="M159.408 187.249C159.099 187.249 158.802 187.367 158.583 187.578C158.365 187.789 158.242 188.074 158.242 188.372V199.056C158.232 199.21 158.254 199.364 158.308 199.509C158.362 199.655 158.447 199.788 158.556 199.9C158.666 200.013 158.798 200.103 158.945 200.164C159.092 200.225 159.25 200.257 159.41 200.257C159.571 200.257 159.729 200.225 159.876 200.164C160.023 200.103 160.155 200.013 160.265 199.9C160.374 199.788 160.459 199.655 160.513 199.509C160.567 199.364 160.589 199.21 160.579 199.056V188.372C160.578 188.074 160.454 187.788 160.234 187.578C160.015 187.367 159.718 187.249 159.408 187.249Z" fill="#263238"/>
<path d="M173.676 187.249C173.366 187.249 173.069 187.367 172.85 187.578C172.63 187.788 172.506 188.074 172.505 188.372V199.056C172.495 199.21 172.517 199.364 172.571 199.509C172.625 199.655 172.709 199.788 172.819 199.9C172.929 200.013 173.061 200.103 173.208 200.164C173.355 200.225 173.513 200.257 173.673 200.257C173.834 200.257 173.992 200.225 174.139 200.164C174.286 200.103 174.418 200.013 174.528 199.9C174.637 199.788 174.722 199.655 174.776 199.509C174.83 199.364 174.852 199.21 174.842 199.056V188.372C174.842 188.074 174.719 187.789 174.5 187.578C174.282 187.367 173.985 187.249 173.676 187.249Z" fill="#263238"/>
<path d="M184.347 187.249C184.038 187.249 183.742 187.367 183.523 187.578C183.304 187.789 183.181 188.074 183.181 188.372V199.056C183.181 199.354 183.304 199.639 183.523 199.85C183.742 200.061 184.038 200.179 184.347 200.179C184.657 200.179 184.953 200.061 185.172 199.85C185.391 199.639 185.513 199.354 185.513 199.056V188.372C185.513 188.074 185.391 187.789 185.172 187.578C184.953 187.367 184.657 187.249 184.347 187.249Z" fill="#263238"/>
<path d="M191.471 187.249C191.162 187.249 190.866 187.367 190.647 187.578C190.428 187.789 190.305 188.074 190.305 188.372V199.056C190.305 199.354 190.428 199.639 190.647 199.85C190.866 200.061 191.162 200.179 191.471 200.179C191.781 200.179 192.077 200.061 192.296 199.85C192.515 199.639 192.638 199.354 192.638 199.056V188.372C192.638 188.074 192.515 187.789 192.296 187.578C192.077 187.367 191.781 187.249 191.471 187.249Z" fill="#263238"/>
<path d="M195.034 187.249C194.724 187.249 194.428 187.367 194.209 187.578C193.991 187.789 193.868 188.074 193.868 188.372V199.056C193.857 199.21 193.88 199.364 193.934 199.509C193.988 199.655 194.072 199.788 194.182 199.9C194.291 200.013 194.424 200.103 194.571 200.164C194.718 200.225 194.876 200.257 195.036 200.257C195.196 200.257 195.355 200.225 195.502 200.164C195.649 200.103 195.781 200.013 195.891 199.9C196 199.788 196.084 199.655 196.139 199.509C196.193 199.364 196.215 199.21 196.205 199.056V188.372C196.203 188.074 196.079 187.788 195.86 187.578C195.641 187.367 195.343 187.249 195.034 187.249Z" fill="#263238"/>
<path d="M212.849 187.249C212.539 187.249 212.242 187.367 212.023 187.578C211.803 187.788 211.679 188.074 211.678 188.372V199.056C211.668 199.21 211.69 199.364 211.744 199.509C211.798 199.655 211.883 199.788 211.992 199.9C212.102 200.013 212.234 200.103 212.381 200.164C212.528 200.225 212.686 200.257 212.846 200.257C213.007 200.257 213.165 200.225 213.312 200.164C213.459 200.103 213.591 200.013 213.701 199.9C213.81 199.788 213.895 199.655 213.949 199.509C214.003 199.364 214.025 199.21 214.015 199.056V188.372C214.015 188.074 213.892 187.789 213.673 187.578C213.455 187.367 213.158 187.249 212.849 187.249Z" fill="#263238"/>
<path d="M234.221 187.249C233.912 187.249 233.616 187.367 233.397 187.578C233.178 187.789 233.055 188.074 233.055 188.372V199.056C233.055 199.354 233.178 199.639 233.397 199.85C233.616 200.061 233.912 200.179 234.221 200.179C234.531 200.179 234.827 200.061 235.046 199.85C235.265 199.639 235.387 199.354 235.387 199.056V188.372C235.387 188.074 235.265 187.789 235.046 187.578C234.827 187.367 234.531 187.249 234.221 187.249Z" fill="#263238"/>
<path d="M244.908 187.249C244.599 187.249 244.302 187.367 244.083 187.578C243.865 187.789 243.742 188.074 243.742 188.372V199.056C243.731 199.21 243.754 199.364 243.808 199.509C243.862 199.655 243.946 199.788 244.056 199.9C244.165 200.013 244.298 200.103 244.445 200.164C244.592 200.225 244.75 200.257 244.91 200.257C245.07 200.257 245.229 200.225 245.376 200.164C245.523 200.103 245.655 200.013 245.765 199.9C245.874 199.788 245.959 199.655 246.013 199.509C246.067 199.364 246.089 199.21 246.079 199.056V188.372C246.077 188.074 245.953 187.788 245.734 187.578C245.515 187.367 245.217 187.249 244.908 187.249Z" fill="#263238"/>
<path d="M248.46 187.249C248.307 187.248 248.154 187.277 248.012 187.333C247.87 187.389 247.741 187.472 247.632 187.576C247.524 187.681 247.437 187.805 247.378 187.941C247.319 188.078 247.289 188.224 247.289 188.372V199.056C247.279 199.21 247.301 199.364 247.355 199.509C247.409 199.655 247.494 199.788 247.603 199.9C247.713 200.013 247.845 200.103 247.992 200.164C248.139 200.225 248.297 200.257 248.458 200.257C248.618 200.257 248.776 200.225 248.923 200.164C249.07 200.103 249.202 200.013 249.312 199.9C249.421 199.788 249.506 199.655 249.56 199.509C249.614 199.364 249.636 199.21 249.626 199.056V188.372C249.626 188.074 249.503 187.789 249.285 187.578C249.066 187.367 248.769 187.249 248.46 187.249Z" fill="#263238"/>
<path d="M262.728 187.249C262.419 187.249 262.122 187.367 261.904 187.578C261.685 187.789 261.562 188.074 261.562 188.372V199.056C261.562 199.354 261.685 199.639 261.904 199.85C262.122 200.061 262.419 200.179 262.728 200.179C263.037 200.179 263.334 200.061 263.553 199.85C263.771 199.639 263.894 199.354 263.894 199.056V188.372C263.894 188.074 263.771 187.789 263.553 187.578C263.334 187.367 263.037 187.249 262.728 187.249Z" fill="#263238"/>
<path d="M266.285 187.249C265.976 187.249 265.679 187.367 265.461 187.578C265.242 187.789 265.119 188.074 265.119 188.372V199.056C265.119 199.354 265.242 199.639 265.461 199.85C265.679 200.061 265.976 200.179 266.285 200.179C266.594 200.179 266.891 200.061 267.11 199.85C267.328 199.639 267.451 199.354 267.451 199.056V188.372C267.451 188.074 267.328 187.789 267.11 187.578C266.891 187.367 266.594 187.249 266.285 187.249Z" fill="#263238"/>
<path d="M269.847 187.249C269.538 187.249 269.241 187.367 269.023 187.578C268.804 187.789 268.681 188.074 268.681 188.372V199.056C268.681 199.354 268.804 199.639 269.023 199.85C269.241 200.061 269.538 200.179 269.847 200.179C270.156 200.179 270.453 200.061 270.672 199.85C270.89 199.639 271.013 199.354 271.013 199.056V188.372C271.013 188.074 270.89 187.789 270.672 187.578C270.453 187.367 270.156 187.249 269.847 187.249Z" fill="#263238"/>
<path d="M273.409 187.249C273.1 187.249 272.803 187.367 272.585 187.578C272.366 187.789 272.243 188.074 272.243 188.372V199.056C272.243 199.354 272.366 199.639 272.585 199.85C272.803 200.061 273.1 200.179 273.409 200.179C273.718 200.179 274.015 200.061 274.234 199.85C274.452 199.639 274.575 199.354 274.575 199.056V188.372C274.575 188.074 274.452 187.789 274.234 187.578C274.015 187.367 273.718 187.249 273.409 187.249Z" fill="#263238"/>
<path d="M148.825 187.249C148.516 187.249 148.219 187.367 148 187.578C147.782 187.789 147.659 188.074 147.659 188.372V199.056C147.659 199.354 147.782 199.639 148 199.85C148.219 200.061 148.516 200.179 148.825 200.179C149.134 200.179 149.431 200.061 149.649 199.85C149.868 199.639 149.991 199.354 149.991 199.056V188.372C149.991 188.074 149.868 187.789 149.649 187.578C149.431 187.367 149.134 187.249 148.825 187.249Z" fill="#263238"/>
<path d="M152.387 187.249C152.078 187.249 151.781 187.367 151.563 187.578C151.344 187.789 151.221 188.074 151.221 188.372V199.056C151.211 199.21 151.233 199.364 151.287 199.509C151.341 199.655 151.426 199.788 151.535 199.9C151.645 200.013 151.777 200.103 151.924 200.164C152.071 200.225 152.229 200.257 152.389 200.257C152.55 200.257 152.708 200.225 152.855 200.164C153.002 200.103 153.134 200.013 153.244 199.9C153.353 199.788 153.438 199.655 153.492 199.509C153.546 199.364 153.568 199.21 153.558 199.056V188.372C153.557 188.074 153.433 187.788 153.213 187.578C152.994 187.367 152.697 187.249 152.387 187.249Z" fill="#263238"/>
<path d="M155.964 187.249C155.655 187.249 155.358 187.367 155.139 187.578C154.921 187.789 154.798 188.074 154.798 188.372V199.056C154.787 199.21 154.81 199.364 154.864 199.509C154.918 199.655 155.002 199.788 155.112 199.9C155.221 200.013 155.354 200.103 155.501 200.164C155.648 200.225 155.806 200.257 155.966 200.257C156.127 200.257 156.285 200.225 156.432 200.164C156.579 200.103 156.711 200.013 156.821 199.9C156.93 199.788 157.015 199.655 157.069 199.509C157.123 199.364 157.145 199.21 157.135 199.056V188.372C157.134 188.074 157.01 187.788 156.79 187.578C156.571 187.367 156.274 187.249 155.964 187.249Z" fill="#263238"/>
<path d="M216.411 187.249C216.101 187.249 215.804 187.367 215.585 187.578C215.365 187.788 215.241 188.074 215.24 188.372V199.056C215.23 199.21 215.252 199.364 215.306 199.509C215.36 199.655 215.445 199.788 215.554 199.9C215.664 200.013 215.796 200.103 215.943 200.164C216.09 200.225 216.248 200.257 216.409 200.257C216.569 200.257 216.727 200.225 216.874 200.164C217.021 200.103 217.153 200.013 217.263 199.9C217.372 199.788 217.457 199.655 217.511 199.509C217.565 199.364 217.587 199.21 217.577 199.056V188.372C217.577 188.074 217.454 187.789 217.235 187.578C217.017 187.367 216.72 187.249 216.411 187.249Z" fill="#263238"/>
<path d="M198.596 187.249C198.286 187.249 197.99 187.367 197.771 187.578C197.553 187.789 197.43 188.074 197.43 188.372V199.056C197.419 199.21 197.442 199.364 197.496 199.509C197.55 199.655 197.634 199.788 197.744 199.9C197.853 200.013 197.986 200.103 198.133 200.164C198.28 200.225 198.438 200.257 198.598 200.257C198.758 200.257 198.917 200.225 199.064 200.164C199.211 200.103 199.343 200.013 199.453 199.9C199.562 199.788 199.647 199.655 199.701 199.509C199.755 199.364 199.777 199.21 199.767 199.056V188.372C199.765 188.074 199.641 187.788 199.422 187.578C199.203 187.367 198.905 187.249 198.596 187.249Z" fill="#263238"/>
<path d="M162.975 182.509H162.97C162.326 182.509 161.804 183.012 161.804 183.632V203.8C161.804 204.421 162.326 204.924 162.97 204.924H162.975C163.619 204.924 164.141 204.421 164.141 203.8V183.632C164.141 183.012 163.619 182.509 162.975 182.509Z" fill="#263238"/>
<path d="M170.099 182.509C169.789 182.509 169.492 182.627 169.273 182.838C169.053 183.048 168.93 183.334 168.928 183.632V203.796C168.918 203.95 168.94 204.104 168.994 204.249C169.048 204.394 169.133 204.527 169.242 204.64C169.352 204.753 169.484 204.842 169.631 204.904C169.778 204.965 169.937 204.997 170.097 204.997C170.257 204.997 170.415 204.965 170.562 204.904C170.709 204.842 170.842 204.753 170.951 204.64C171.061 204.527 171.145 204.394 171.199 204.249C171.253 204.104 171.276 203.95 171.265 203.796V183.632C171.265 183.335 171.142 183.049 170.924 182.838C170.705 182.628 170.408 182.509 170.099 182.509Z" fill="#263238"/>
<path d="M180.785 182.509C180.476 182.509 180.18 182.628 179.961 182.838C179.742 183.049 179.619 183.335 179.619 183.632V203.796C179.619 204.093 179.742 204.379 179.961 204.59C180.18 204.801 180.476 204.919 180.785 204.919C181.095 204.919 181.391 204.801 181.61 204.59C181.829 204.379 181.951 204.093 181.951 203.796V183.632C181.951 183.335 181.829 183.049 181.61 182.838C181.391 182.628 181.095 182.509 180.785 182.509Z" fill="#263238"/>
<path d="M187.909 182.509C187.6 182.509 187.304 182.628 187.085 182.838C186.866 183.049 186.743 183.335 186.743 183.632V203.796C186.743 204.093 186.866 204.379 187.085 204.59C187.304 204.801 187.6 204.919 187.909 204.919C188.219 204.919 188.515 204.801 188.734 204.59C188.953 204.379 189.075 204.093 189.075 203.796V183.632C189.075 183.335 188.953 183.049 188.734 182.838C188.515 182.628 188.219 182.509 187.909 182.509Z" fill="#263238"/>
<path d="M202.158 182.509C201.849 182.509 201.552 182.628 201.333 182.838C201.115 183.049 200.992 183.335 200.992 183.632V203.796C200.981 203.95 201.004 204.104 201.058 204.249C201.112 204.394 201.196 204.527 201.306 204.64C201.415 204.753 201.548 204.842 201.695 204.904C201.842 204.965 202 204.997 202.16 204.997C202.32 204.997 202.479 204.965 202.626 204.904C202.773 204.842 202.905 204.753 203.015 204.64C203.124 204.527 203.209 204.394 203.263 204.249C203.317 204.104 203.339 203.95 203.329 203.796V183.632C203.327 183.334 203.203 183.048 202.984 182.838C202.765 182.627 202.467 182.509 202.158 182.509Z" fill="#263238"/>
<path d="M219.973 182.509C219.82 182.509 219.668 182.538 219.527 182.595C219.385 182.651 219.257 182.734 219.149 182.838C219.04 182.942 218.954 183.066 218.896 183.203C218.837 183.339 218.807 183.485 218.807 183.632V203.796C218.807 204.093 218.93 204.379 219.149 204.59C219.367 204.801 219.664 204.919 219.973 204.919C220.282 204.919 220.579 204.801 220.798 204.59C221.016 204.379 221.139 204.093 221.139 203.796V183.632C221.139 183.335 221.016 183.049 220.798 182.838C220.579 182.628 220.282 182.509 219.973 182.509Z" fill="#263238"/>
<path d="M223.54 182.509H223.535C222.891 182.509 222.369 183.012 222.369 183.632V203.8C222.369 204.421 222.891 204.924 223.535 204.924H223.54C224.184 204.924 224.706 204.421 224.706 203.8V183.632C224.706 183.012 224.184 182.509 223.54 182.509Z" fill="#263238"/>
<path d="M227.097 182.509C226.788 182.509 226.491 182.628 226.273 182.838C226.054 183.049 225.931 183.335 225.931 183.632V203.796C225.931 204.093 226.054 204.379 226.273 204.59C226.491 204.801 226.788 204.919 227.097 204.919C227.406 204.919 227.703 204.801 227.922 204.59C228.14 204.379 228.263 204.093 228.263 203.796V183.632C228.263 183.335 228.14 183.049 227.922 182.838C227.703 182.628 227.406 182.509 227.097 182.509Z" fill="#263238"/>
<path d="M230.659 182.509C230.35 182.509 230.054 182.628 229.835 182.838C229.616 183.049 229.493 183.335 229.493 183.632V203.796C229.493 204.093 229.616 204.379 229.835 204.59C230.054 204.801 230.35 204.919 230.659 204.919C230.969 204.919 231.265 204.801 231.484 204.59C231.703 204.379 231.825 204.093 231.825 203.796V183.632C231.825 183.335 231.703 183.049 231.484 182.838C231.265 182.628 230.969 182.509 230.659 182.509Z" fill="#263238"/>
<path d="M252.037 182.509H252.032C251.388 182.509 250.866 183.012 250.866 183.632V203.8C250.866 204.421 251.388 204.924 252.032 204.924H252.037C252.681 204.924 253.203 204.421 253.203 203.8V183.632C253.203 183.012 252.681 182.509 252.037 182.509Z" fill="#263238"/>
<path d="M259.161 182.509C258.851 182.509 258.554 182.627 258.334 182.838C258.115 183.048 257.991 183.334 257.99 183.632V203.796C257.979 203.95 258.002 204.104 258.056 204.249C258.11 204.394 258.194 204.527 258.304 204.64C258.413 204.753 258.546 204.842 258.693 204.904C258.84 204.965 258.998 204.997 259.158 204.997C259.318 204.997 259.477 204.965 259.624 204.904C259.771 204.842 259.903 204.753 260.013 204.64C260.122 204.527 260.207 204.394 260.261 204.249C260.315 204.104 260.337 203.95 260.327 203.796V183.632C260.327 183.335 260.204 183.049 259.985 182.838C259.767 182.628 259.47 182.509 259.161 182.509Z" fill="#263238"/>
<path d="M166.537 177.769C166.227 177.769 165.93 177.887 165.711 178.098C165.491 178.309 165.367 178.594 165.366 178.893V208.535C165.356 208.689 165.378 208.844 165.432 208.989C165.486 209.134 165.571 209.267 165.68 209.38C165.79 209.492 165.922 209.582 166.069 209.643C166.216 209.705 166.374 209.736 166.534 209.736C166.695 209.736 166.853 209.705 167 209.643C167.147 209.582 167.279 209.492 167.389 209.38C167.498 209.267 167.583 209.134 167.637 208.989C167.691 208.844 167.713 208.689 167.703 208.535V178.893C167.703 178.595 167.58 178.309 167.361 178.098C167.143 177.888 166.846 177.769 166.537 177.769Z" fill="#263238"/>
<path d="M177.223 177.769C176.914 177.769 176.617 177.888 176.399 178.098C176.18 178.309 176.057 178.595 176.057 178.893V208.535C176.057 208.833 176.18 209.119 176.399 209.33C176.617 209.54 176.914 209.659 177.223 209.659C177.532 209.659 177.829 209.54 178.048 209.33C178.266 209.119 178.389 208.833 178.389 208.535V178.893C178.389 178.595 178.266 178.309 178.048 178.098C177.829 177.888 177.532 177.769 177.223 177.769Z" fill="#263238"/>
<path d="M205.72 177.769C205.411 177.769 205.114 177.888 204.895 178.098C204.677 178.309 204.554 178.595 204.554 178.893V208.535C204.544 208.689 204.566 208.844 204.62 208.989C204.674 209.134 204.759 209.267 204.868 209.38C204.978 209.492 205.11 209.582 205.257 209.643C205.404 209.705 205.562 209.736 205.722 209.736C205.883 209.736 206.041 209.705 206.188 209.643C206.335 209.582 206.467 209.492 206.577 209.38C206.686 209.267 206.771 209.134 206.825 208.989C206.879 208.844 206.901 208.689 206.891 208.535V178.893C206.891 178.745 206.861 178.598 206.802 178.462C206.743 178.325 206.657 178.201 206.548 178.097C206.439 177.992 206.31 177.91 206.168 177.853C206.026 177.797 205.874 177.769 205.72 177.769Z" fill="#263238"/>
<path d="M209.287 177.769C208.977 177.769 208.68 177.887 208.461 178.098C208.241 178.309 208.117 178.594 208.116 178.893V208.535C208.106 208.689 208.128 208.844 208.182 208.989C208.236 209.134 208.321 209.267 208.43 209.38C208.54 209.492 208.672 209.582 208.819 209.643C208.966 209.705 209.124 209.736 209.284 209.736C209.445 209.736 209.603 209.705 209.75 209.643C209.897 209.582 210.029 209.492 210.139 209.38C210.248 209.267 210.333 209.134 210.387 208.989C210.441 208.844 210.463 208.689 210.453 208.535V178.893C210.453 178.595 210.33 178.309 210.111 178.098C209.893 177.888 209.596 177.769 209.287 177.769Z" fill="#263238"/>
<path d="M237.783 177.769C237.63 177.769 237.479 177.798 237.337 177.855C237.196 177.911 237.067 177.994 236.959 178.098C236.851 178.203 236.765 178.326 236.706 178.463C236.648 178.599 236.617 178.745 236.617 178.893V208.535C236.607 208.689 236.63 208.844 236.684 208.989C236.738 209.134 236.822 209.267 236.932 209.38C237.041 209.492 237.173 209.582 237.32 209.643C237.467 209.705 237.626 209.736 237.786 209.736C237.946 209.736 238.105 209.705 238.252 209.643C238.398 209.582 238.531 209.492 238.64 209.38C238.75 209.267 238.834 209.134 238.888 208.989C238.942 208.844 238.965 208.689 238.954 208.535V178.893C238.953 178.594 238.829 178.309 238.61 178.098C238.39 177.887 238.093 177.769 237.783 177.769Z" fill="#263238"/>
<path d="M241.346 177.769C241.036 177.769 240.74 177.888 240.521 178.098C240.303 178.309 240.18 178.595 240.18 178.893V208.535C240.169 208.689 240.192 208.844 240.246 208.989C240.3 209.134 240.384 209.267 240.494 209.38C240.603 209.492 240.736 209.582 240.883 209.643C241.03 209.705 241.188 209.736 241.348 209.736C241.508 209.736 241.667 209.705 241.814 209.643C241.961 209.582 242.093 209.492 242.203 209.38C242.312 209.267 242.396 209.134 242.451 208.989C242.505 208.844 242.527 208.689 242.517 208.535V178.893C242.515 178.594 242.391 178.309 242.172 178.098C241.953 177.887 241.655 177.769 241.346 177.769Z" fill="#263238"/>
<path d="M255.599 177.769C255.289 177.769 254.992 177.887 254.772 178.098C254.553 178.309 254.429 178.594 254.428 178.893V208.535C254.417 208.689 254.44 208.844 254.494 208.989C254.548 209.134 254.632 209.267 254.742 209.38C254.851 209.492 254.984 209.582 255.131 209.643C255.278 209.705 255.436 209.736 255.596 209.736C255.756 209.736 255.915 209.705 256.062 209.643C256.209 209.582 256.341 209.492 256.451 209.38C256.56 209.267 256.645 209.134 256.699 208.989C256.753 208.844 256.775 208.689 256.765 208.535V178.893C256.765 178.595 256.642 178.309 256.423 178.098C256.205 177.888 255.908 177.769 255.599 177.769Z" fill="#263238"/>
<path d="M134.506 206.943C141.331 200.368 141.331 189.708 134.506 183.133C127.681 176.559 116.616 176.559 109.792 183.133C102.967 189.708 102.967 200.368 109.792 206.943C116.616 213.518 127.681 213.518 134.506 206.943Z" fill="#263238"/>
<path d="M135.098 195.036L114.203 183.414V206.658L135.098 195.036Z" fill="#E36F59" stroke="#263238" stroke-miterlimit="10"/>
</svg>
