<svg width="80" height="41" viewBox="0 0 80 41" fill="none" xmlns="http://www.w3.org/2000/svg">
<g clip-path="url(#clip0_305_15)">
<path d="M33 0H9C6.23858 0 4 2.23858 4 5V28C4 30.7614 6.23858 33 9 33H33C35.7614 33 38 30.7614 38 28V5C38 2.23858 35.7614 0 33 0Z" fill="#FFA849"/>
<path d="M34 18.5C34 23.7467 29.7467 28 24.5 28H15V18.5C15 13.2533 19.2533 9 24.5 9C29.7467 9 34 13.2533 34 18.5Z" fill="#302C2E"/>
<path d="M32 16H21V17H32V16Z" fill="#FFA849"/>
<path d="M32 18H21V19H32V18Z" fill="#FFA849"/>
<path d="M26 20H21V21H26V20Z" fill="#FFA849"/>
<path d="M32 20H27V21H32V20Z" fill="#FFA849"/>
<path d="M8.71094 7.98438H11.7461V28H8.71094V7.98438ZM17.0312 10.375H13.8086V7.98438H23.2773V10.375H20.0664V28H17.0312V10.375Z" fill="white"/>
<path d="M43.99 15V7.3H45.343V13.768H49.391V15H43.99ZM50.1405 15L53.5285 7.245H54.7825L58.1705 15H56.7405L55.9595 13.141H52.3185L51.5265 15H50.1405ZM52.8135 11.942H55.4645L54.1335 8.862L52.8135 11.942ZM59.491 15V7.3H60.745L64.87 12.624V7.3H66.201V15H65.068L60.822 9.522V15H59.491ZM71.8334 15.132C70.6454 15.132 69.6811 14.758 68.9404 14.01C68.2071 13.2547 67.8404 12.3013 67.8404 11.15C67.8404 10.05 68.2144 9.11133 68.9624 8.334C69.7177 7.55667 70.6674 7.168 71.8114 7.168C72.4567 7.168 73.0067 7.256 73.4614 7.432C73.9161 7.60067 74.3524 7.861 74.7704 8.213L73.9124 9.236C73.5897 8.95733 73.2634 8.752 72.9334 8.62C72.6107 8.48067 72.2184 8.411 71.7564 8.411C71.0524 8.411 70.4584 8.67867 69.9744 9.214C69.4977 9.74933 69.2594 10.3947 69.2594 11.15C69.2594 11.9493 69.5014 12.6093 69.9854 13.13C70.4694 13.6433 71.1001 13.9 71.8774 13.9C72.5961 13.9 73.2157 13.7057 73.7364 13.317V11.876H71.7674V10.699H75.0454V13.933C74.1141 14.7323 73.0434 15.132 71.8334 15.132Z" fill="white"/>
<path d="M48.008 17.4V21.944L44.4 17.4H43.912V23H44.504V18.456L48.104 23H48.592V17.4H48.008ZM51.0118 22.488V20.408H53.9078V19.904H51.0118V17.912H54.2598V17.4H50.4198V23H54.3798V22.488H51.0118ZM61.0994 17.4L58.6914 21.552L56.2594 17.4H55.7714V23H56.3394V18.544L58.5394 22.288H58.8194L61.0194 18.52V23H61.5874V17.4H61.0994ZM67.436 23H68.14L65.548 19.936L67.972 17.4H67.292L64.004 20.784V17.4H63.412V23H64.004V21.528L65.148 20.368L67.436 23Z" fill="white"/>
</g>
<defs>
<clipPath id="clip0_305_15">
<rect width="80" height="41" fill="white"/>
</clipPath>
</defs>
</svg>
