<svg width="126" height="63" viewBox="0 0 126 63" fill="none" xmlns="http://www.w3.org/2000/svg">
<g filter="url(#filter0_d_115_4522)">
<path d="M51.975 0H14.175C9.82575 0 6.29999 3.43977 6.29999 7.68293V43.0244C6.29999 47.2675 9.82575 50.7073 14.175 50.7073H51.975C56.3242 50.7073 59.85 47.2675 59.85 43.0244V7.68293C59.85 3.43977 56.3242 0 51.975 0Z" fill="#302C2D"/>
</g>
<path d="M53.55 28.4268C53.55 36.4888 46.8511 43.0244 38.5875 43.0244H23.625V28.4268C23.625 20.3648 30.3239 13.8293 38.5875 13.8293C46.8511 13.8293 53.55 20.3648 53.55 28.4268Z" fill="black"/>
<path d="M53.55 28.4268C53.55 36.4888 46.8511 43.0244 38.5875 43.0244H23.625V28.4268C23.625 20.3648 30.3239 13.8293 38.5875 13.8293C46.8511 13.8293 53.55 20.3648 53.55 28.4268Z" fill="#E36F59"/>
<path d="M13.7197 12.2687H18.5001V43.0244H13.7197V12.2687ZM26.8241 15.9421H21.7485V12.2687H36.6617V15.9421H31.6046V43.0244H26.8241V15.9421Z" fill="white"/>
<path d="M50.4 24.5854H33.075V26.122H50.4V24.5854Z" fill="white" fill-opacity="0.64"/>
<path d="M50.4 27.6585H33.075V29.1951H50.4V27.6585Z" fill="white" fill-opacity="0.64"/>
<path d="M40.95 30.7317H33.075V32.2683H40.95V30.7317Z" fill="white" fill-opacity="0.64"/>
<path d="M50.4 30.7317H42.525V32.2683H50.4V30.7317Z" fill="white" fill-opacity="0.64"/>
<path d="M71.588 19.972H73.203V24H63.684V22.632L65.394 22.138L65.09 22.67V12.03L65.394 12.543L63.684 12.087V10.719L69.327 10.624V11.992L67.522 12.543L67.807 12.03V22.461L67.389 22.043H71.531L71.151 22.48L71.588 19.972ZM82.6414 22.651L82.2804 22.119L83.9144 22.632V23.981L80.5894 24.152L80.2284 22.328L80.4184 22.385C79.9117 23.0057 79.3607 23.468 78.7654 23.772C78.1701 24.076 77.5557 24.228 76.9224 24.228C76.1117 24.228 75.4404 23.9683 74.9084 23.449C74.3764 22.9297 74.1104 22.1823 74.1104 21.207C74.1104 20.485 74.2624 19.915 74.5664 19.497C74.8831 19.0663 75.3391 18.756 75.9344 18.566C76.5297 18.376 77.2517 18.281 78.1004 18.281H80.1714L79.9814 18.49V17.236C79.9814 16.6407 79.8357 16.2163 79.5444 15.963C79.2657 15.7097 78.8541 15.583 78.3094 15.583C78.0434 15.583 77.7584 15.6083 77.4544 15.659C77.1504 15.7097 76.8211 15.7857 76.4664 15.887L76.7324 15.602L76.4854 17.141H74.8324L74.6804 14.367C75.5417 14.1137 76.3271 13.93 77.0364 13.816C77.7584 13.6893 78.4171 13.626 79.0124 13.626C80.1904 13.626 81.0897 13.8793 81.7104 14.386C82.3311 14.8927 82.6414 15.678 82.6414 16.742V22.651ZM76.7894 20.941C76.7894 21.4097 76.8971 21.758 77.1124 21.986C77.3404 22.2013 77.6254 22.309 77.9674 22.309C78.2841 22.309 78.6324 22.214 79.0124 22.024C79.3924 21.8213 79.7534 21.549 80.0954 21.207L79.9814 21.663V19.497L80.1714 19.687H78.5374C77.8787 19.687 77.4227 19.7883 77.1694 19.991C76.9161 20.1937 76.7894 20.5103 76.7894 20.941ZM84.6848 24V22.632L86.2808 22.176L85.9578 22.556V15.317L86.2808 15.754L84.6848 15.279V13.911L88.0288 13.759L88.3708 15.583L88.0288 15.45C88.6368 14.8293 89.2828 14.3733 89.9668 14.082C90.6508 13.778 91.3031 13.626 91.9238 13.626C92.7851 13.626 93.5008 13.8983 94.0708 14.443C94.6408 14.975 94.9195 15.7857 94.9068 16.875V22.556L94.6598 22.176L96.1798 22.632V24H91.1068V22.632L92.5508 22.214L92.2468 22.613V17.445C92.2468 16.8243 92.1075 16.3683 91.8288 16.077C91.5628 15.7857 91.2081 15.64 90.7648 15.64C90.4228 15.64 90.0491 15.735 89.6438 15.925C89.2385 16.115 88.8395 16.4 88.4468 16.78L88.6178 16.381V22.613L88.3708 22.214L89.7578 22.632V24H84.6848ZM101.301 28.598C99.718 28.598 98.54 28.389 97.7673 27.971C96.9947 27.553 96.6083 26.9323 96.6083 26.109C96.6083 25.4757 96.8237 24.9437 97.2543 24.513C97.6977 24.095 98.3437 23.7467 99.1923 23.468L99.1543 24C98.673 23.962 98.2803 23.8353 97.9763 23.62C97.6723 23.4047 97.5203 23.1197 97.5203 22.765C97.5203 22.651 97.5393 22.5307 97.5773 22.404C97.6153 22.2773 97.685 22.119 97.7863 21.929C97.8877 21.7263 98.027 21.4793 98.2043 21.188C98.3817 20.8967 98.6033 20.5293 98.8693 20.086L98.9073 20.523C98.274 20.2317 97.7927 19.82 97.4633 19.288C97.134 18.756 96.9693 18.1227 96.9693 17.388C96.9693 16.21 97.3683 15.2917 98.1663 14.633C98.977 13.9617 100.098 13.626 101.529 13.626C102.555 13.626 103.429 13.8033 104.151 14.158L103.543 14.044L106.716 13.93V15.355L105.215 15.659L105.386 15.374C105.576 15.602 105.722 15.868 105.823 16.172C105.925 16.476 105.975 16.8243 105.975 17.217C105.975 18.395 105.564 19.326 104.74 20.01C103.917 20.6813 102.809 21.017 101.415 21.017C100.757 21.017 100.123 20.9283 99.5153 20.751L99.9523 20.485L99.6483 22.518L99.2493 22.328H103.049C104.329 22.328 105.298 22.575 105.956 23.069C106.615 23.563 106.944 24.285 106.944 25.235C106.944 26.3243 106.469 27.154 105.519 27.724C104.582 28.3067 103.176 28.598 101.301 28.598ZM101.529 26.736C102.543 26.736 103.271 26.6283 103.714 26.413C104.17 26.1977 104.398 25.881 104.398 25.463C104.398 25.0577 104.246 24.76 103.942 24.57C103.638 24.38 103.201 24.285 102.631 24.285H99.3253L99.9523 24.152C99.2683 24.5827 98.9263 25.0703 98.9263 25.615C98.9263 25.9823 99.1353 26.261 99.5533 26.451C99.9713 26.641 100.63 26.736 101.529 26.736ZM101.415 19.231C102.036 19.231 102.511 19.0663 102.84 18.737C103.17 18.4077 103.334 17.92 103.334 17.274C103.334 16.628 103.182 16.1593 102.878 15.868C102.574 15.564 102.118 15.412 101.51 15.412C100.89 15.412 100.421 15.5703 100.104 15.887C99.7877 16.2037 99.6293 16.6787 99.6293 17.312C99.6293 17.9327 99.7813 18.4077 100.085 18.737C100.389 19.0663 100.833 19.231 101.415 19.231Z" fill="#302C2D"/>
<path d="M70.695 32.605L74.34 32.53V33.175L72.84 33.52L73.035 33.235V43H71.655L65.895 33.835L66.075 33.82V42.31L65.85 42.04L67.365 42.355V43H63.735V42.355L65.25 42.04L65.025 42.31V33.235L65.19 33.505L63.735 33.25V32.605L66.495 32.53L72.18 41.545L72 41.56V33.235L72.21 33.505L70.695 33.25V32.605ZM81.6899 40.54H82.4399V43H74.8649V42.355L76.3499 42.04L76.1549 42.31V33.25L76.3499 33.52L74.8649 33.25V32.605L77.3699 32.53H82.2599V34.9H81.5099L81.2399 33.25L81.4949 33.445H77.1599L77.3849 33.22V37.42L77.1599 37.195H81.1649V38.095H77.1599L77.3849 37.84V42.31L77.1599 42.085H81.6899L81.4199 42.31L81.6899 40.54ZM95.3413 33.175L93.8413 33.52L94.0363 33.19V42.31L93.8413 42.04L95.3413 42.355V43H91.6063V42.355L93.1363 42.04L92.8963 42.31V33.895L93.0913 33.91L89.6863 40.27L88.8613 40.33L85.5613 33.88L85.7413 33.865V42.31L85.5613 42.055L87.0463 42.355V43H83.4313V42.355L84.9313 42.04L84.7213 42.31V33.19L84.9313 33.52L83.4313 33.25V32.605L86.2363 32.53L89.4913 39.115H89.3113L92.6713 32.605L95.3413 32.53V33.175ZM104.681 42.31L104.306 42.055L105.716 42.355V43H101.981V42.355L103.316 42.055L103.256 42.28L100.226 37.855L100.616 38.095H98.3357L98.5607 37.84V42.31L98.3657 42.025L99.8357 42.355V43H96.0407V42.355L97.5107 42.055L97.3307 42.31V33.235L97.4957 33.49L96.0407 33.25V32.605L99.8357 32.53V33.175L98.3807 33.505L98.5607 33.205V37.405L98.3357 37.18H100.631L100.271 37.405L102.791 33.25L102.911 33.46L101.471 33.25V32.605L105.116 32.53V33.175L103.676 33.505L103.991 33.265L101.216 37.735V37.39L104.681 42.31Z" fill="#302C2D"/>
<defs>
<filter id="filter0_d_115_4522" x="2.29999" y="0" width="61.55" height="58.7073" filterUnits="userSpaceOnUse" color-interpolation-filters="sRGB">
<feFlood flood-opacity="0" result="BackgroundImageFix"/>
<feColorMatrix in="SourceAlpha" type="matrix" values="0 0 0 0 0 0 0 0 0 0 0 0 0 0 0 0 0 0 127 0" result="hardAlpha"/>
<feOffset dy="4"/>
<feGaussianBlur stdDeviation="2"/>
<feColorMatrix type="matrix" values="0 0 0 0 0 0 0 0 0 0 0 0 0 0 0 0 0 0 0.25 0"/>
<feBlend mode="normal" in2="BackgroundImageFix" result="effect1_dropShadow_115_4522"/>
<feBlend mode="normal" in="SourceGraphic" in2="effect1_dropShadow_115_4522" result="shape"/>
</filter>
</defs>
</svg>
