<svg width="309" height="309" viewBox="0 0 309 309" fill="none" xmlns="http://www.w3.org/2000/svg">
<path d="M292.147 125.256C284.89 110.343 276.884 95.806 268.162 81.6995C254.931 60.2611 237.621 40.1699 214.959 27.4824C162.386 -1.92207 101.828 9.56037 61.905 43.4639C21.9822 77.3673 54.5817 120.825 47.2645 153.431C39.9474 186.036 16.6859 184.782 10.6666 232.065C4.64725 279.348 72.5531 307.504 125.12 295.354C177.687 283.205 178.355 261.47 222.943 260.178C267.532 258.886 294.168 245.488 303.438 195.622C306.707 178.101 307.053 159.055 299.909 142.319C297.511 136.646 294.903 130.942 292.147 125.256Z" fill="#E36F59"/>
<path opacity="0.7" d="M292.147 125.256C284.89 110.343 276.884 95.806 268.162 81.6995C254.931 60.2611 237.621 40.1699 214.959 27.4824C162.386 -1.92207 101.828 9.56037 61.905 43.4639C21.9822 77.3673 54.5817 120.825 47.2645 153.431C39.9474 186.036 16.6859 184.782 10.6666 232.065C4.64725 279.348 72.5531 307.504 125.12 295.354C177.687 283.205 178.355 261.47 222.943 260.178C267.532 258.886 294.168 245.488 303.438 195.622C306.707 178.101 307.053 159.055 299.909 142.319C297.511 136.646 294.903 130.942 292.147 125.256Z" fill="white"/>
<path d="M273.255 166.452C273.259 166.438 273.259 166.423 273.253 166.409C273.247 166.396 273.237 166.385 273.224 166.378C273.213 166.369 273.198 166.363 273.184 166.363C273.169 166.363 273.155 166.369 273.144 166.378C271.419 170.534 270.054 174.831 269.065 179.22C268.065 183.597 267.313 188.027 266.815 192.489L266.494 195.844C266.444 196.407 266.383 196.963 266.346 197.525L266.253 199.206C266.203 200.331 266.135 201.45 266.104 202.574L266.135 205.942L266.172 207.63C266.172 208.192 266.234 208.754 266.271 209.311C266.358 210.435 266.426 211.554 266.531 212.673C266.747 214.903 267.081 217.128 267.427 219.341C267.429 219.354 267.435 219.367 267.445 219.376C267.456 219.385 267.469 219.39 267.483 219.39C267.49 219.391 267.498 219.39 267.506 219.388C267.513 219.385 267.52 219.381 267.526 219.376C267.532 219.371 267.537 219.365 267.54 219.357C267.543 219.35 267.544 219.342 267.544 219.335C267.544 218.21 267.489 217.091 267.464 215.979C267.439 214.866 267.334 213.748 267.353 212.629C267.371 211.511 267.353 210.398 267.316 209.28L267.285 207.611L267.316 205.942V202.599L267.408 199.262V197.593C267.408 197.037 267.476 196.481 267.507 195.925L267.711 192.588C268.092 188.143 268.723 183.723 269.602 179.35C270.445 174.953 271.667 170.638 273.255 166.452Z" fill="#263238"/>
<path d="M273.737 183.923C273.741 183.908 273.739 183.892 273.732 183.879C273.725 183.865 273.714 183.854 273.7 183.849C273.692 183.846 273.684 183.844 273.677 183.845C273.669 183.845 273.661 183.847 273.654 183.851C273.647 183.854 273.641 183.859 273.636 183.865C273.631 183.871 273.627 183.878 273.625 183.886C272.675 186.665 271.88 189.496 271.246 192.365C270.617 195.243 270.149 198.154 269.843 201.085C269.547 204.008 269.225 206.937 269.182 209.873C269.106 212.814 269.209 215.757 269.491 218.685C269.493 218.699 269.5 218.712 269.51 218.722C269.52 218.732 269.533 218.739 269.547 218.741C269.554 218.742 269.562 218.741 269.57 218.739C269.577 218.736 269.584 218.732 269.59 218.727C269.596 218.722 269.6 218.715 269.604 218.708C269.607 218.701 269.608 218.693 269.608 218.685C269.948 215.762 270.158 212.839 270.356 209.922C270.554 207.005 270.591 204.082 270.783 201.165C271.191 195.334 272.18 189.558 273.737 183.923Z" fill="#263238"/>
<path d="M283.421 190.066C283.416 190.061 283.409 190.056 283.403 190.053C283.396 190.05 283.388 190.049 283.381 190.049C283.373 190.049 283.366 190.05 283.359 190.053C283.352 190.056 283.346 190.061 283.341 190.066C280.919 191.615 278.737 193.51 276.864 195.69C275.923 196.792 275.075 197.97 274.33 199.212L273.811 200.195L273.403 201.215C273.265 201.552 273.148 201.896 273.051 202.247C272.946 202.593 272.828 202.945 272.736 203.291C271.992 206.084 271.543 208.946 271.395 211.832C271.251 214.703 271.359 217.582 271.716 220.434C271.718 220.448 271.725 220.461 271.735 220.471C271.745 220.481 271.758 220.488 271.772 220.49C271.787 220.49 271.802 220.485 271.813 220.474C271.825 220.464 271.832 220.45 271.833 220.434L272.569 211.918C272.773 209.101 273.134 206.297 273.65 203.52C273.724 203.18 273.823 202.84 273.91 202.506C273.992 202.165 274.093 201.829 274.213 201.499L274.559 200.516L275.01 199.614C275.679 198.375 276.455 197.197 277.327 196.091C279.054 193.831 281.102 191.836 283.408 190.171C283.417 190.166 283.424 190.158 283.43 190.15C283.435 190.141 283.439 190.132 283.44 190.121C283.441 190.111 283.44 190.101 283.437 190.092C283.433 190.082 283.428 190.073 283.421 190.066Z" fill="#263238"/>
<path d="M278.718 201.005C277.461 201.925 276.45 203.141 275.776 204.546C275.068 205.922 274.514 207.373 274.126 208.872C274.009 209.242 273.922 209.613 273.836 209.996L273.57 211.127C273.429 211.887 273.334 212.655 273.286 213.426C273.286 214.199 273.255 214.971 273.286 215.738C273.346 216.509 273.447 217.276 273.589 218.037C273.592 218.049 273.598 218.059 273.606 218.068C273.615 218.077 273.626 218.083 273.638 218.086C273.646 218.088 273.654 218.088 273.662 218.086C273.669 218.085 273.677 218.082 273.683 218.077C273.69 218.072 273.695 218.066 273.699 218.059C273.703 218.052 273.705 218.045 273.706 218.037C273.887 217.291 274.023 216.536 274.114 215.775C274.237 215.027 274.355 214.279 274.441 213.538C274.528 212.796 274.651 212.054 274.707 211.307C274.763 210.559 274.868 209.811 275.028 209.082C275.281 207.609 275.696 206.168 276.264 204.787C276.781 203.372 277.629 202.1 278.736 201.079C278.744 201.068 278.747 201.055 278.747 201.042C278.747 201.028 278.744 201.016 278.736 201.005C278.73 201.004 278.724 201.004 278.718 201.005Z" fill="#263238"/>
<path d="M265.153 209.533C264.831 205.757 264.213 202.012 263.62 198.273C263.027 194.534 262.384 190.801 261.692 187.075C261 183.348 260.246 179.659 259.442 175.951C259.445 175.941 259.446 175.932 259.445 175.922C259.443 175.912 259.439 175.903 259.434 175.895C259.428 175.887 259.42 175.881 259.412 175.876C259.403 175.872 259.393 175.87 259.384 175.87C259.374 175.87 259.364 175.872 259.355 175.876C259.347 175.881 259.339 175.887 259.334 175.895C259.328 175.903 259.324 175.912 259.323 175.922C259.321 175.932 259.322 175.941 259.325 175.951C259.974 179.659 260.561 183.416 261.111 187.155C261.661 190.894 262.211 194.67 262.687 198.378C263.163 202.086 263.509 205.893 263.978 209.632L265.363 220.886C265.363 220.9 265.369 220.914 265.379 220.925C265.389 220.935 265.404 220.941 265.418 220.941C265.434 220.941 265.449 220.936 265.46 220.925C265.471 220.915 265.479 220.901 265.48 220.886C265.523 219.934 265.523 218.988 265.548 218.037C265.573 217.085 265.511 216.139 265.493 215.194C265.455 213.315 265.295 211.43 265.153 209.533Z" fill="#263238"/>
<path d="M262.885 209.502C262.681 208 262.409 206.511 262.124 205.028L261.593 202.822C261.42 202.086 261.253 201.351 261.037 200.621C260.283 197.69 259.318 194.817 258.151 192.025L257.706 190.962L257.205 189.942C256.884 189.256 256.494 188.608 256.13 187.946C255.387 186.621 254.468 185.403 253.398 184.325C253.393 184.319 253.387 184.315 253.38 184.312C253.373 184.309 253.366 184.308 253.358 184.308C253.351 184.308 253.343 184.309 253.336 184.312C253.329 184.315 253.323 184.319 253.318 184.325C253.313 184.33 253.308 184.336 253.305 184.343C253.302 184.35 253.301 184.357 253.301 184.365C253.301 184.372 253.302 184.38 253.305 184.387C253.308 184.394 253.313 184.4 253.318 184.405C254.304 185.525 255.136 186.772 255.79 188.113C256.117 188.781 256.464 189.442 256.748 190.14L257.187 191.166L257.582 192.217C258.64 195.028 259.489 197.914 260.122 200.85C260.462 202.302 260.691 203.786 260.975 205.25L261.327 207.469C261.457 208.204 261.618 208.934 261.717 209.675C261.958 211.152 262.223 212.629 262.483 214.106C262.742 215.583 262.983 217.073 263.299 218.55C263.3 218.563 263.307 218.576 263.317 218.585C263.327 218.594 263.341 218.599 263.354 218.599C263.37 218.599 263.384 218.593 263.396 218.583C263.407 218.573 263.415 218.559 263.416 218.543C263.416 217.027 263.381 215.517 263.311 214.013C263.218 212.487 263.045 210.985 262.885 209.502Z" fill="#263238"/>
<path d="M259.758 209.675C259.059 207.691 258.243 205.751 257.366 203.847C256.473 201.946 255.466 200.101 254.35 198.322C254.339 198.313 254.325 198.308 254.31 198.308C254.295 198.308 254.281 198.313 254.27 198.322C254.26 198.334 254.255 198.348 254.255 198.363C254.255 198.377 254.26 198.392 254.27 198.403C255.239 200.249 256.098 202.152 256.841 204.101C257.607 206.029 258.299 207.994 258.88 209.984C259.461 211.974 259.894 214.007 260.425 216.01C260.956 218.012 261.414 220.008 262.032 222.029C262.036 222.041 262.043 222.052 262.053 222.059C262.063 222.067 262.075 222.072 262.087 222.072C262.095 222.073 262.103 222.072 262.111 222.07C262.118 222.067 262.125 222.064 262.131 222.058C262.137 222.053 262.141 222.047 262.144 222.039C262.148 222.032 262.149 222.024 262.149 222.017C262.173 219.905 261.977 217.796 261.562 215.725C261.125 213.663 260.521 211.64 259.758 209.675Z" fill="#263238"/>
<path d="M259.628 216.3C259.241 215.063 258.681 213.888 257.965 212.808C257.293 211.703 256.478 210.691 255.543 209.798C255.062 209.368 254.545 208.979 253.998 208.637C253.46 208.288 252.872 208.021 252.255 207.846C252.241 207.844 252.228 207.847 252.216 207.854C252.205 207.861 252.196 207.872 252.191 207.885C252.186 207.897 252.185 207.911 252.189 207.924C252.193 207.937 252.201 207.949 252.212 207.957C253.328 208.491 254.316 209.258 255.11 210.206C255.915 211.132 256.592 212.161 257.125 213.265C257.7 214.353 257.996 215.552 258.497 216.671C258.719 217.245 258.936 217.82 259.189 218.395C259.405 218.992 259.659 219.574 259.949 220.138C259.955 220.147 259.963 220.155 259.973 220.16C259.983 220.165 259.994 220.168 260.005 220.168C260.02 220.169 260.035 220.163 260.046 220.153C260.058 220.142 260.065 220.128 260.067 220.113C260.085 219.467 260.06 218.821 259.992 218.179C259.912 217.536 259.776 216.918 259.628 216.3Z" fill="#263238"/>
<path d="M259.863 181.358C257.974 180.832 256.266 179.8 254.922 178.373C253.577 176.946 252.649 175.179 252.236 173.263C250.809 166.588 255.413 169.45 251.285 158.962C247.157 148.475 248.108 146.102 249.536 143.08C250.963 140.058 251.761 141.015 253.034 144.989C254.307 148.963 258.911 155.155 260.654 166.749C262.396 178.343 259.863 181.358 259.863 181.358Z" fill="#E36F59"/>
<path d="M272.093 170.086C272.093 170.086 267.965 168.652 267.804 160.872C267.644 153.091 270.82 154.692 271.296 144.989C271.772 135.286 272.408 128.47 274.157 128.303C275.906 128.136 280.51 133.068 282.099 143.87C283.687 154.673 280.034 161.792 276.858 164.994C273.681 168.195 272.093 170.086 272.093 170.086Z" fill="#E36F59"/>
<path d="M257.638 190.734C257.638 190.734 256.686 185.017 254.777 182.316C252.867 179.616 248.745 177.23 246.044 171.99C243.344 166.749 240.322 164.209 240.482 171.674C240.643 179.14 243.98 182.947 248.108 185.493C252.237 188.039 257.638 190.734 257.638 190.734Z" fill="#E36F59"/>
<path d="M255.889 200.578C255.889 200.578 252.076 193.273 246.52 187.872C240.964 182.471 236.515 179.77 238.103 182.471C239.691 185.171 241.595 185.017 244.283 189.782C246.971 194.546 246.186 198.038 249.999 200.739C253.812 203.439 255.889 200.578 255.889 200.578Z" fill="#E36F59"/>
<path d="M255.413 209.953C255.252 209.477 255.098 205.979 249.696 203.124C244.295 200.269 239.19 201.375 239.846 202.803C240.501 204.23 243.819 206.616 247.156 208.043C250.494 209.471 255.413 209.953 255.413 209.953Z" fill="#E36F59"/>
<path d="M271.772 191.048C271.772 191.048 269.392 188.032 270.684 181.692C271.976 175.351 274.812 176.927 277.989 173.59C281.165 170.253 280.529 169.777 283.705 166.285C286.882 162.793 289.743 160.884 291.01 162.311C292.277 163.739 290.392 168.188 288.47 170.728C286.548 173.268 283.526 174.542 282.117 177.718C280.708 180.895 281.326 185.981 277.667 188.36C274.009 190.739 271.772 191.048 271.772 191.048Z" fill="#E36F59"/>
<path d="M279.719 192.816C279.719 192.816 285.436 186.302 289.564 181.537C293.692 176.773 295.28 173.12 295.441 176.297C295.602 179.473 296.869 182.013 293.538 186.142C290.207 190.27 279.719 192.816 279.719 192.816Z" fill="#E36F59"/>
<path d="M276.697 203.279C276.697 203.279 276.536 200.739 285.59 194.862C294.644 188.984 298.457 187.872 297.505 190.258C296.553 192.643 292.561 195.022 288.291 199.311C284.02 203.6 276.697 203.279 276.697 203.279Z" fill="#E36F59"/>
<path d="M260.24 180.685C260.24 180.685 258.114 169.289 255.914 161.187C253.714 153.085 252.261 148.166 252.261 148.166" stroke="#263238" stroke-linecap="round" stroke-linejoin="round"/>
<path d="M271.729 170.203C271.729 170.203 275.585 157.843 276.858 150.384C278.131 142.925 276.697 137.363 276.061 134.025" stroke="#263238" stroke-linecap="round" stroke-linejoin="round"/>
<path d="M257.137 190.492C255.426 187.553 253.468 184.764 251.285 182.155C247.787 178.027 245.105 175.802 243.498 171.829" stroke="#263238" stroke-linecap="round" stroke-linejoin="round"/>
<path d="M271.771 191.048C271.771 191.048 273.045 183.422 276.06 179.455C279.076 175.487 285.114 169.289 287.5 165.315" stroke="#263238" stroke-linecap="round" stroke-linejoin="round"/>
<path d="M255.042 209.78C255.042 209.78 249.696 206.301 245.883 204.391" stroke="#263238" stroke-linecap="round" stroke-linejoin="round"/>
<path d="M285.646 241.793C285.287 232.158 274.577 225.725 274.577 225.725H258.163C258.163 225.725 247.453 232.152 247.095 241.793C246.737 251.433 259.232 286.752 259.232 286.752H273.508C273.508 286.752 286.004 251.433 285.646 241.793Z" fill="#263238" stroke="#263238" stroke-linecap="round" stroke-linejoin="round"/>
<path d="M276.691 216.25H255.747L258.163 225.731H274.274L276.691 216.25Z" fill="#263238" stroke="#263238" stroke-linecap="round" stroke-linejoin="round"/>
<path d="M255.018 119.983C262.16 118.28 266.569 111.11 264.866 103.969C263.164 96.8275 255.994 92.4185 248.853 94.1212C241.711 95.8238 237.302 102.993 239.005 110.135C240.707 117.276 247.877 121.685 255.018 119.983Z" stroke="#263238" stroke-linecap="round" stroke-linejoin="round"/>
<path d="M261.748 107.062L246.613 98.3237V115.801L261.748 107.062Z" stroke="#263238" stroke-linecap="round" stroke-linejoin="round"/>
<path d="M58.5026 225.308C60.4017 220.723 58.2245 215.466 53.6395 213.567C49.0546 211.668 43.7983 213.845 41.8991 218.43C40 223.015 42.1773 228.271 46.7622 230.171C51.3471 232.07 56.6034 229.892 58.5026 225.308Z" stroke="#263238" stroke-linecap="round" stroke-linejoin="round"/>
<path d="M56.8373 221.868L46.6033 215.96V227.776L56.8373 221.868Z" stroke="#263238" stroke-linecap="round" stroke-linejoin="round"/>
<path d="M58.8149 112.124H51.2258V136.98H58.8149V112.124Z" stroke="#263238" stroke-linecap="round" stroke-linejoin="round"/>
<path d="M72.0895 112.124H64.5005V136.98H72.0895V112.124Z" stroke="#263238" stroke-linecap="round" stroke-linejoin="round"/>
<path d="M113.564 26.0117H96.2534V43.3219H113.564V26.0117Z" stroke="#263238" stroke-linecap="round" stroke-linejoin="round"/>
<path d="M212.969 107.687H202.463V118.193H212.969V107.687Z" stroke="#263238" stroke-linecap="round" stroke-linejoin="round"/>
<path d="M40.7755 152.22H30.2695V162.726H40.7755V152.22Z" stroke="#263238" stroke-linecap="round" stroke-linejoin="round"/>
<path d="M221.893 75.2417C233.528 75.2417 242.96 65.8094 242.96 54.1741C242.96 42.5387 233.528 33.1064 221.893 33.1064C210.257 33.1064 200.825 42.5387 200.825 54.1741C200.825 65.8094 210.257 75.2417 221.893 75.2417Z" fill="white" stroke="#263238" stroke-linecap="round" stroke-linejoin="round"/>
<path d="M211.35 50.2251V58.3889L221.72 64.1672V44.4468L211.35 50.2251Z" fill="#263238"/>
<path d="M210.732 50.3672H205.547V58.1787H210.732V50.3672Z" fill="#263238"/>
<path d="M230.112 61.454C232.148 59.2815 233.274 56.4119 233.259 53.4349C233.244 50.4579 232.089 47.5997 230.032 45.4478" stroke="#263238" stroke-width="2" stroke-linecap="round" stroke-linejoin="round"/>
<path d="M227.727 59.7916C228.587 58.9567 229.267 57.9545 229.725 56.8469C230.183 55.7393 230.409 54.5497 230.39 53.3512C230.371 52.1528 230.107 50.971 229.614 49.8785C229.121 48.7861 228.409 47.8061 227.523 46.999" stroke="#263238" stroke-width="2" stroke-linecap="round" stroke-linejoin="round"/>
<path d="M225.335 57.5856C225.92 57.0479 226.382 56.3912 226.692 55.6597C227.001 54.9282 227.15 54.139 227.129 53.345C227.108 52.5511 226.917 51.7708 226.569 51.0568C226.222 50.3428 225.725 49.7116 225.113 49.2056" stroke="#263238" stroke-width="2" stroke-linecap="round" stroke-linejoin="round"/>
<path d="M202.012 61.6704L192.402 64.9952" stroke="#263238" stroke-linecap="round" stroke-linejoin="round"/>
<path d="M168.096 283.897V250.76H67.2878V247.818H215.608C220.794 247.82 225.768 249.881 229.435 253.549C233.101 257.217 235.161 262.191 235.161 267.378C235.16 272.563 233.099 277.536 229.432 281.202C225.766 284.869 220.793 286.929 215.608 286.931H67.2878V283.909L168.096 283.897Z" fill="#E36F59" stroke="#263238" stroke-miterlimit="10"/>
<path d="M212.938 267.365C212.935 262.18 210.873 257.208 207.205 253.542C203.537 249.877 198.564 247.818 193.378 247.818H198.94C204.067 247.909 208.953 250.009 212.546 253.667C216.139 257.325 218.152 262.247 218.152 267.374C218.152 272.502 216.139 277.424 212.546 281.082C208.953 284.739 204.067 286.84 198.94 286.931H193.378C195.948 286.931 198.492 286.425 200.865 285.442C203.239 284.458 205.395 283.017 207.211 281.2C209.028 279.383 210.468 277.226 211.451 274.852C212.434 272.478 212.939 269.934 212.938 267.365Z" fill="white" stroke="#263238" stroke-linecap="round" stroke-linejoin="round"/>
<path d="M71.3481 283.365C77.7011 264.059 71.3481 250.858 71.3481 250.858H167.101C171.479 250.858 175.677 252.597 178.773 255.693C181.869 258.789 183.608 262.987 183.608 267.365C183.608 271.743 181.869 275.942 178.773 279.037C175.677 282.133 171.479 283.872 167.101 283.872H71.175C71.2307 283.705 71.2925 283.538 71.3481 283.365Z" fill="white" stroke="#263238" stroke-linecap="round" stroke-linejoin="round"/>
<path d="M182.335 261.012H153.128" stroke="#263238" stroke-linecap="round" stroke-linejoin="round"/>
<path d="M183.608 267.365H171.415" stroke="#263238" stroke-linecap="round" stroke-linejoin="round"/>
<path d="M181.321 274.985H140.941" stroke="#263238" stroke-linecap="round" stroke-linejoin="round"/>
<path d="M165.828 258.985H143.481" stroke="#263238" stroke-linecap="round" stroke-linejoin="round"/>
<path d="M169.128 267.365H163.795" stroke="#263238" stroke-linecap="round" stroke-linejoin="round"/>
<path d="M136.875 274.985H132.814" stroke="#263238" stroke-linecap="round" stroke-linejoin="round"/>
<path d="M73.3813 257.712H82.021" stroke="#263238" stroke-linecap="round" stroke-linejoin="round"/>
<path d="M86.3345 263.299H76.428" stroke="#263238" stroke-linecap="round" stroke-linejoin="round"/>
<path d="M93.9546 272.445H97.7615" stroke="#263238" stroke-linecap="round" stroke-linejoin="round"/>
<path d="M75.1611 272.445H90.1476" stroke="#263238" stroke-linecap="round" stroke-linejoin="round"/>
<path d="M130.466 206.412V173.287H231.293V170.339H82.9727C77.7873 170.341 72.8147 172.402 69.1481 176.068C65.4814 179.735 63.4208 184.707 63.4192 189.893C63.4192 195.079 65.4793 200.052 69.1463 203.719C72.8133 207.386 77.7868 209.446 82.9727 209.446H231.293V206.412H130.466Z" fill="#999999" stroke="#263238" stroke-linecap="round" stroke-linejoin="round"/>
<path d="M79.7219 189.893C79.7235 184.707 81.7842 179.735 85.4508 176.068C89.1175 172.402 94.09 170.341 99.2754 170.339H93.7134C91.1456 170.339 88.603 170.845 86.2306 171.828C83.8583 172.81 81.7027 174.251 79.887 176.066C78.0713 177.882 76.631 180.038 75.6483 182.41C74.6657 184.782 74.1599 187.325 74.1599 189.893C74.1599 192.461 74.6657 195.003 75.6483 197.376C76.631 199.748 78.0713 201.904 79.887 203.719C81.7027 205.535 83.8583 206.975 86.2306 207.958C88.603 208.941 91.1456 209.446 93.7134 209.446H99.2754C94.0895 209.446 89.116 207.386 85.449 203.719C81.782 200.052 79.7219 195.079 79.7219 189.893Z" fill="white" stroke="#263238" stroke-linecap="round" stroke-linejoin="round"/>
<path d="M103.904 189.893C103.906 184.706 105.968 179.733 109.636 176.066C113.304 172.399 118.278 170.339 123.464 170.339H117.902C115.334 170.339 112.792 170.845 110.419 171.828C108.047 172.81 105.891 174.251 104.076 176.066C102.26 177.882 100.82 180.038 99.8371 182.41C98.8544 184.782 98.3486 187.325 98.3486 189.893C98.3486 192.461 98.8544 195.003 99.8371 197.376C100.82 199.748 102.26 201.904 104.076 203.719C105.891 205.535 108.047 206.975 110.419 207.958C112.792 208.941 115.334 209.446 117.902 209.446H123.464C120.896 209.447 118.353 208.942 115.979 207.96C113.606 206.977 111.45 205.537 109.634 203.721C107.817 201.906 106.377 199.75 105.393 197.377C104.41 195.004 103.904 192.461 103.904 189.893Z" fill="white" stroke="#263238" stroke-linecap="round" stroke-linejoin="round"/>
<path d="M227.232 205.893C220.879 186.593 227.232 173.386 227.232 173.386H131.486C129.315 173.382 127.166 173.806 125.159 174.634C123.153 175.462 121.33 176.677 119.794 178.21C118.258 179.743 117.039 181.564 116.207 183.569C115.376 185.574 114.948 187.723 114.948 189.893C114.946 192.064 115.373 194.215 116.204 196.221C117.035 198.227 118.253 200.05 119.789 201.584C121.326 203.119 123.149 204.335 125.156 205.163C127.164 205.992 129.314 206.416 131.486 206.412H227.424C227.35 206.233 227.288 206.072 227.232 205.893Z" fill="white" stroke="#263238" stroke-linecap="round" stroke-linejoin="round"/>
<path d="M116.246 183.546H145.453" stroke="#263238" stroke-linecap="round" stroke-linejoin="round"/>
<path d="M114.973 189.893H127.166" stroke="#263238" stroke-linecap="round" stroke-linejoin="round"/>
<path d="M117.259 197.513H157.639" stroke="#263238" stroke-linecap="round" stroke-linejoin="round"/>
<path d="M132.753 181.513H155.1" stroke="#263238" stroke-linecap="round" stroke-linejoin="round"/>
<path d="M129.452 189.893H134.786" stroke="#263238" stroke-linecap="round" stroke-linejoin="round"/>
<path d="M161.706 197.513H165.766" stroke="#263238" stroke-linecap="round" stroke-linejoin="round"/>
<path d="M225.199 180.246H216.566" stroke="#263238" stroke-linecap="round" stroke-linejoin="round"/>
<path d="M212.246 185.833H222.152" stroke="#263238" stroke-linecap="round" stroke-linejoin="round"/>
<path d="M204.626 194.973H200.819" stroke="#263238" stroke-linecap="round" stroke-linejoin="round"/>
<path d="M223.419 194.973H208.439" stroke="#263238" stroke-linecap="round" stroke-linejoin="round"/>
<path d="M138.247 245.309V212.172H239.073V209.224H90.7533C85.5668 209.224 80.5927 211.284 76.9247 214.951C73.2567 218.618 71.1952 223.591 71.1936 228.778C71.1936 231.346 71.6996 233.889 72.6826 236.262C73.6657 238.635 75.1065 240.79 76.9229 242.606C78.7393 244.422 80.8955 245.862 83.2686 246.845C85.6417 247.827 88.185 248.332 90.7533 248.331H239.073V245.309H138.247Z" fill="#263238" stroke="#263238" stroke-miterlimit="10"/>
<path d="M87.4965 228.778C87.4981 223.591 89.5596 218.618 93.2276 214.951C96.8956 211.284 101.87 209.224 107.056 209.224H101.494C96.3083 209.224 91.3348 211.284 87.6678 214.951C84.0008 218.618 81.9407 223.592 81.9407 228.778C81.9407 233.964 84.0008 238.937 87.6678 242.604C91.3348 246.271 96.3083 248.331 101.494 248.331H107.056C104.488 248.332 101.945 247.827 99.5715 246.845C97.1984 245.862 95.0421 244.422 93.2258 242.606C91.4094 240.79 89.9686 238.635 88.9855 236.262C88.0025 233.889 87.4965 231.346 87.4965 228.778Z" fill="white" stroke="#263238" stroke-linecap="round" stroke-linejoin="round"/>
<path d="M111.685 228.778C111.687 223.592 113.747 218.62 117.414 214.953C121.081 211.286 126.053 209.226 131.239 209.224H125.677C120.491 209.224 115.517 211.284 111.85 214.951C108.183 218.618 106.123 223.592 106.123 228.778C106.123 233.964 108.183 238.937 111.85 242.604C115.517 246.271 120.491 248.331 125.677 248.331H131.239C128.671 248.331 126.128 247.825 123.756 246.843C121.383 245.86 119.228 244.42 117.412 242.604C115.596 240.788 114.156 238.633 113.173 236.26C112.191 233.888 111.685 231.345 111.685 228.778Z" fill="white" stroke="#263238" stroke-linecap="round" stroke-linejoin="round"/>
<path d="M235.007 244.777C228.66 225.477 235.007 212.271 235.007 212.271H139.26C134.882 212.271 130.684 214.01 127.588 217.105C124.493 220.201 122.753 224.399 122.753 228.777C122.753 233.155 124.493 237.354 127.588 240.449C130.684 243.545 134.882 245.284 139.26 245.284H235.186C235.124 245.117 235.063 244.957 235.007 244.777Z" fill="white" stroke="#263238" stroke-linecap="round" stroke-linejoin="round"/>
<path d="M124.02 222.431H153.227" stroke="#263238" stroke-linecap="round" stroke-linejoin="round"/>
<path d="M122.753 228.777H134.94" stroke="#263238" stroke-linecap="round" stroke-linejoin="round"/>
<path d="M125.04 236.397H165.42" stroke="#263238" stroke-linecap="round" stroke-linejoin="round"/>
<path d="M140.527 220.397H162.88" stroke="#263238" stroke-linecap="round" stroke-linejoin="round"/>
<path d="M137.227 228.777H142.56" stroke="#263238" stroke-linecap="round" stroke-linejoin="round"/>
<path d="M169.48 236.397H173.547" stroke="#263238" stroke-linecap="round" stroke-linejoin="round"/>
<path d="M232.974 219.13H224.34" stroke="#263238" stroke-linecap="round" stroke-linejoin="round"/>
<path d="M220.021 224.717H229.927" stroke="#263238" stroke-linecap="round" stroke-linejoin="round"/>
<path d="M212.4 233.857H208.594" stroke="#263238" stroke-linecap="round" stroke-linejoin="round"/>
<path d="M231.2 233.857H216.213" stroke="#263238" stroke-linecap="round" stroke-linejoin="round"/>
<path d="M137.289 140.181L136.844 140.651C135.268 142.307 130.003 147.826 129.545 148.283C129.088 148.74 127.203 150.267 127.203 150.267C127.203 150.267 121.802 154.228 122.339 155.31C122.877 156.391 136.553 166.112 146.441 168.096C156.329 170.08 179.579 169.332 184.084 167.015C188.589 164.697 194.17 157.127 196.506 152.801C198.842 148.475 193.626 145.057 190.387 143.796C187.149 142.536 179.041 138.395 177.78 137.313L137.289 140.181Z" fill="#263238" stroke="#263238" stroke-miterlimit="10"/>
<path d="M150.613 77.8679C150.613 77.8679 130.466 79.005 127.71 85.1789C124.954 91.3527 131.418 117.667 131.931 123.68C132.444 129.693 132.907 140.737 140.051 143.821C147.195 146.905 162.961 148.369 169.616 145.768C176.272 143.166 179.504 140.41 179.504 138.135C179.504 135.861 176.581 129.199 176.581 121.888C176.581 114.577 185.19 99.6401 185.023 90.3701C184.856 81.1001 180.475 79.4871 176.254 78.35C172.033 77.2128 150.613 77.8679 150.613 77.8679Z" fill="#E36F59" stroke="#263238" stroke-miterlimit="10"/>
<path d="M151.991 128.315C156.447 132.178 162.429 136.875 166.693 138.321" stroke="#263238" stroke-linecap="round" stroke-linejoin="round"/>
<path d="M145.904 122.729C145.904 122.729 148.023 124.824 151.058 127.499" stroke="#263238" stroke-linecap="round" stroke-linejoin="round"/>
<path d="M165.624 140.657C166.665 140.995 167.731 141.247 168.813 141.411" stroke="#263238" stroke-linecap="round" stroke-linejoin="round"/>
<path d="M153.208 132.635C156.18 135.706 159.713 138.177 163.616 139.915" stroke="#263238" stroke-linecap="round" stroke-linejoin="round"/>
<path d="M159.982 162.874C159.982 162.874 153.11 160.328 152.238 160.173C148.091 159.444 139.668 157.355 132.252 150.792C123.248 142.869 106.296 131.523 100.196 130.442C94.0967 129.36 89.0291 134.947 90.6544 142.153C92.2798 149.358 100.196 158.177 108.119 162.862C116.042 167.546 154.945 170.605 159.988 170.964C165.031 171.322 180.518 174.023 183.398 172.2C186.278 170.377 187.359 164.815 185.202 163.016C183.045 161.218 168.813 163.733 165.748 163.375C162.682 163.016 159.982 162.874 159.982 162.874Z" fill="#263238" stroke="#263238" stroke-miterlimit="10"/>
<path d="M165.741 163.412C163.708 163.171 161.842 163.016 160.797 162.936L159.24 170.92L159.969 170.976C165.012 171.334 180.499 174.035 183.379 172.212C186.259 170.389 187.34 164.827 185.184 163.028C183.027 161.23 168.807 163.77 165.741 163.412Z" fill="white" stroke="#263238" stroke-miterlimit="10"/>
<path d="M134.23 162.534C134.23 162.534 156.916 153.715 168.807 148.672C180.697 143.629 193.119 136.065 202.482 136.065C211.844 136.065 206.987 147.949 204.286 152.992C201.585 158.035 190.072 160.915 181.42 162.719C172.768 164.524 150.261 167.398 137.653 169.561C125.046 171.724 116.765 170.098 111.901 169.561C107.038 169.023 103.799 168.837 102.897 165.599C101.995 162.361 106.5 159.116 111.005 158.393C115.51 157.67 121.27 161.273 124.15 161.996C127.03 162.719 134.23 162.534 134.23 162.534Z" fill="white" stroke="#263238" stroke-miterlimit="10"/>
<path d="M202.482 136.041C193.119 136.041 180.691 143.605 168.807 148.648C157.324 153.518 135.768 161.91 134.31 162.479C134.171 163.774 134.301 165.084 134.691 166.327C135.082 167.57 135.724 168.719 136.578 169.703L137.641 169.536C150.248 167.373 172.762 164.493 181.408 162.695C190.054 160.896 201.573 158.01 204.274 152.968C206.974 147.925 211.844 136.041 202.482 136.041Z" fill="#263238" stroke="#263238" stroke-miterlimit="10"/>
<path d="M131.059 162.534C128.754 162.503 125.763 162.385 124.144 161.978C121.264 161.255 115.492 157.652 110.999 158.375C106.506 159.098 101.995 162.336 102.891 165.581C103.787 168.825 107.031 168.998 111.895 169.542C116.097 170.005 122.865 171.279 132.765 170.222C131.964 169.352 131.357 168.322 130.985 167.2C130.39 165.696 130.417 164.018 131.059 162.534V162.534Z" stroke="#263238" stroke-linecap="round" stroke-linejoin="round"/>
<path d="M132.091 81.7921C132.091 81.7921 126.733 81.4646 124.78 90.2402C122.827 99.0158 124.62 123.705 126.406 129.551C128.192 135.397 129.656 139.785 132.258 143.518C134.86 147.251 143.79 156.032 143.79 156.032C143.79 156.032 146.219 160.173 146.837 160.976C147.455 161.78 148.431 163.634 149.754 164.783C150.447 165.4 151.186 165.962 151.966 166.464C151.966 166.464 154.438 167.966 155.155 167.435C155.872 166.903 154.537 166.112 154.537 166.112L151.707 161.168L152.683 161.082L156.391 165.327C156.391 165.327 157.541 166.563 157.893 166.297C158.079 166.048 158.208 165.759 158.27 165.454C158.332 165.148 158.326 164.833 158.251 164.53C158.072 164.178 154.543 159.042 154.543 159.042C154.543 159.042 156.583 160.896 157.553 161.873C158.523 162.849 159.5 163.554 159.765 163.38C159.966 163.185 160.086 162.922 160.102 162.643C160.118 162.364 160.028 162.089 159.852 161.873C159.413 161.168 153.839 153.913 153.839 153.913C153.839 153.913 157.287 153.115 157.905 152.85C158.523 152.584 159.852 151.527 159.759 150.996C159.666 150.464 158.875 150.73 158.257 151.082C157.268 151.455 156.224 151.664 155.167 151.7C154.549 151.7 151.459 151.7 150.032 152.145C149.236 152.434 148.404 152.613 147.56 152.677C147.201 152.677 139.86 136.93 139.773 136.485C139.687 136.04 136.22 117.624 135.342 114.33C134.464 111.036 132.598 99.7388 132.598 99.7388" fill="#E36F59"/>
<path d="M132.091 81.7921C132.091 81.7921 126.733 81.4646 124.78 90.2402C122.827 99.0158 124.62 123.705 126.406 129.551C128.192 135.397 129.656 139.785 132.258 143.518C134.86 147.251 143.79 156.032 143.79 156.032C143.79 156.032 146.219 160.173 146.837 160.976C147.455 161.78 148.431 163.634 149.754 164.783C150.447 165.4 151.186 165.962 151.966 166.464C151.966 166.464 154.438 167.966 155.155 167.435C155.872 166.903 154.537 166.112 154.537 166.112L151.707 161.168L152.683 161.082L156.391 165.327C156.391 165.327 157.541 166.563 157.893 166.297C158.079 166.047 158.208 165.759 158.27 165.454C158.332 165.148 158.326 164.833 158.251 164.53C158.072 164.178 154.543 159.042 154.543 159.042C154.543 159.042 156.583 160.896 157.553 161.873C158.523 162.849 159.5 163.554 159.765 163.38C159.966 163.185 160.086 162.922 160.102 162.643C160.118 162.364 160.028 162.089 159.852 161.873C159.413 161.168 153.839 153.913 153.839 153.913C153.839 153.913 157.287 153.115 157.905 152.85C158.523 152.584 159.852 151.527 159.759 150.996C159.666 150.464 158.875 150.73 158.257 151.082C157.268 151.455 156.224 151.664 155.167 151.7C154.549 151.7 151.459 151.7 150.032 152.145C149.236 152.434 148.404 152.613 147.56 152.677C147.201 152.677 139.86 136.93 139.773 136.485C139.687 136.04 136.22 117.624 135.342 114.33C134.464 111.036 132.598 99.7388 132.598 99.7388" stroke="#263238" stroke-miterlimit="10"/>
<path d="M157.893 166.279C158.079 166.029 158.208 165.741 158.27 165.435C158.332 165.13 158.326 164.814 158.251 164.511C158.072 164.159 154.543 159.024 154.543 159.024C154.543 159.024 156.583 160.878 157.553 161.854C158.523 162.831 159.5 163.535 159.765 163.362C159.966 163.167 160.086 162.904 160.102 162.625C160.118 162.346 160.029 162.071 159.852 161.854C159.413 161.15 153.839 153.894 153.839 153.894C153.839 153.894 157.287 153.097 157.905 152.831C158.523 152.566 159.852 151.509 159.759 150.977C159.667 150.446 158.876 150.712 158.258 151.064C157.268 151.437 156.224 151.645 155.168 151.682C154.55 151.682 151.46 151.682 150.032 152.127C149.236 152.416 148.404 152.595 147.56 152.658C147.325 152.658 144.13 145.978 141.905 141.194C138.981 142.18 136.206 143.565 133.661 145.31C137.153 149.5 143.803 156.033 143.803 156.033C143.803 156.033 146.231 160.173 146.849 160.977C147.467 161.78 148.444 163.634 149.766 164.783C150.459 165.4 151.199 165.962 151.979 166.464C151.979 166.464 154.451 167.966 155.168 167.435C155.884 166.903 154.55 166.112 154.55 166.112L151.719 161.168L152.696 161.082L156.404 165.327C156.404 165.327 157.541 166.545 157.893 166.279Z" fill="white" stroke="#263238" stroke-miterlimit="10"/>
<path d="M152.726 166.712C152.726 166.712 149.921 163.665 149.068 161.595" stroke="#263238" stroke-linecap="round" stroke-linejoin="round"/>
<path d="M147.69 60.5144C151.369 60.5144 154.352 57.2772 154.352 53.2838C154.352 49.2905 151.369 46.0532 147.69 46.0532C144.01 46.0532 141.028 49.2905 141.028 53.2838C141.028 57.2772 144.01 60.5144 147.69 60.5144Z" fill="white" stroke="#263238" stroke-miterlimit="10"/>
<path d="M154.673 32.5686C154.673 32.5686 147.201 34.5215 147.041 37.1171C146.88 39.7127 147.362 42.9634 147.362 44.7556C147.362 46.5478 137.616 66.194 138.265 67.8193C138.914 69.4447 143.463 73.3442 151.911 74.8089C160.359 76.2736 166.205 77.732 174.492 74.9696C182.78 72.2071 188.947 68.3075 189.275 64.5686C189.602 60.8297 182.291 45.5651 179.387 41.5049C176.482 37.4446 176.297 36.3075 171.915 34.1939C167.534 32.0804 161.008 29.8061 154.673 32.5686Z" fill="#263238" stroke="#263238" stroke-miterlimit="10"/>
<path d="M149.315 68.4682V78.0534C149.315 78.0534 146.386 82.2805 148.178 86.9896C149.97 91.6988 155.161 92.5146 158.066 88.7757C160.971 85.0368 162.614 78.0534 162.614 78.0534L162.775 65.6934L149.315 68.4682Z" fill="white" stroke="#263238" stroke-miterlimit="10"/>
<path d="M159.654 66.7998L149.482 73.4742L149.315 68.4684L159.654 66.7998Z" fill="#263238" stroke="#263238" stroke-miterlimit="10"/>
<path d="M148.987 41.344C148.987 41.344 142.653 56.2872 143.302 58.4008C143.951 60.5144 145.088 68.6349 147.362 69.4445C149.636 70.254 161.984 67.6584 163.43 66.5213C164.876 65.3842 168.467 58.8828 168.794 57.2513C169.122 55.6198 165.395 40.04 164.746 39.5518C164.097 39.0636 151.262 39.5518 148.987 41.344Z" fill="white" stroke="#263238" stroke-miterlimit="10"/>
<path d="M152.887 52.876C152.887 52.876 149.476 56.584 148.827 57.2638C148.178 57.9436 148.66 59.6987 149.964 59.6987C150.725 59.7009 151.485 59.6472 152.238 59.538" stroke="#263238" stroke-linecap="round" stroke-linejoin="round"/>
<path d="M146.874 59.2104C146.874 59.2104 148.178 61.8122 150.285 62.4611C152.393 63.11 155.161 62.1336 155.161 62.1336" stroke="#263238" stroke-linecap="round" stroke-linejoin="round"/>
<path d="M157.924 54.0132C157.924 54.0132 158.542 56.4481 161.823 55.7992" stroke="#263238" stroke-linecap="round" stroke-linejoin="round"/>
<path d="M148.32 49.7861C148.435 50.1728 148.638 50.5275 148.914 50.8225C149.189 51.1176 149.528 51.3449 149.906 51.4868C150.284 51.6286 150.689 51.6811 151.091 51.6402C151.492 51.5993 151.878 51.466 152.22 51.2508" stroke="#263238" stroke-linecap="round" stroke-linejoin="round"/>
<path d="M160.198 50.2744C160.198 50.2744 163.288 50.7626 164.098 54.6622" stroke="#263238" stroke-linecap="round" stroke-linejoin="round"/>
<path d="M154.185 47.8396C153.501 47.1458 152.619 46.6798 151.66 46.505C150.701 46.3303 149.712 46.4554 148.827 46.8632" stroke="#263238" stroke-linecap="round" stroke-linejoin="round"/>
<path d="M174.492 55.9598C174.492 55.9598 175.79 41.6655 171.891 34.1938C173.133 34.5506 174.284 35.1707 175.265 36.0121C176.246 36.8536 177.034 37.8965 177.576 39.0699C177.576 39.0699 179.362 50.7624 176.606 58.2279L174.492 55.9598Z" fill="white" stroke="#263238" stroke-miterlimit="10"/>
<path d="M172.539 68.9563C176.219 68.9563 179.202 65.7191 179.202 61.7257C179.202 57.7324 176.219 54.4951 172.539 54.4951C168.86 54.4951 165.877 57.7324 165.877 61.7257C165.877 65.7191 168.86 68.9563 172.539 68.9563Z" fill="white" stroke="#263238" stroke-miterlimit="10"/>
<path d="M174.492 67.152C177.004 67.152 179.041 64.9413 179.041 62.2142C179.041 59.4871 177.004 57.2764 174.492 57.2764C171.98 57.2764 169.944 59.4871 169.944 62.2142C169.944 64.9413 171.98 67.152 174.492 67.152Z" fill="white" stroke="#263238" stroke-miterlimit="10"/>
<path d="M177.255 78.7024C179.175 78.9372 180.994 79.6956 182.512 80.8945C184.031 82.0935 185.19 83.6869 185.864 85.5004C187.81 90.704 187.161 97.0385 183.911 107.13C180.66 117.222 174.814 125.67 172.867 126.288C170.92 126.906 164.58 105.499 164.419 105.011C164.258 104.522 158.239 78.0411 158.573 76.0944C158.906 74.1477 167.67 72.5162 167.67 72.5162L171.081 67.8071C171.081 67.8071 171.891 66.9975 171.569 68.6228C171.179 70.0321 170.634 71.3938 169.944 72.6831C169.944 72.6831 173.516 68.1531 174.004 67.6464C174.427 67.3115 174.934 67.0979 175.469 67.0284C175.471 67.2423 175.519 67.4532 175.611 67.6464C175.772 68.0481 175.228 68.7897 175.228 68.7897C175.228 68.7897 177.082 66.6081 177.49 66.8492C177.898 67.0902 178.052 67.8132 178.052 68.456C178.052 69.0987 175.191 73.7646 174.492 75.0068C173.794 76.2489 163.195 80.3401 163.195 80.3401L174.004 102.137L174.653 95.1474" fill="#E36F59"/>
<path d="M177.255 78.7024C179.175 78.9372 180.994 79.6956 182.512 80.8945C184.031 82.0935 185.19 83.6869 185.864 85.5004C187.81 90.704 187.161 97.0385 183.911 107.13C180.66 117.222 174.814 125.67 172.867 126.288C170.92 126.906 164.58 105.499 164.419 105.011C164.258 104.522 158.239 78.0411 158.573 76.0944C158.906 74.1477 167.67 72.5162 167.67 72.5162L171.081 67.8071C171.081 67.8071 171.891 66.9975 171.569 68.6228C171.179 70.0321 170.634 71.3938 169.944 72.6831C169.944 72.6831 173.516 68.1531 174.004 67.6464C174.427 67.3115 174.934 67.0979 175.469 67.0284C175.471 67.2423 175.519 67.4532 175.611 67.6464C175.772 68.0481 175.228 68.7897 175.228 68.7897C175.228 68.7897 177.082 66.6081 177.49 66.8492C177.898 67.0902 178.052 67.8132 178.052 68.456C178.052 69.0987 175.191 73.7646 174.492 75.0068C173.794 76.2489 163.195 80.3401 163.195 80.3401L174.004 102.137L174.653 95.1474" stroke="#263238" stroke-miterlimit="10"/>
<path d="M172.039 98.1323L163.195 80.303C163.195 80.303 173.794 76.2118 174.492 74.9697C175.191 73.7275 178.052 69.0616 178.052 68.4189C178.052 67.7761 177.891 67.0531 177.49 66.8121C177.088 66.571 175.228 68.7526 175.228 68.7526C175.228 68.7526 175.772 68.011 175.611 67.6093C175.519 67.4161 175.471 67.2052 175.469 66.9913C174.934 67.0608 174.427 67.2744 174.004 67.6093C173.516 68.116 169.944 72.646 169.944 72.646C170.634 71.3567 171.179 69.9949 171.569 68.5857C171.891 66.9604 171.081 67.77 171.081 67.77L167.67 72.4791C167.67 72.4791 158.894 74.1045 158.573 76.0573C158.313 77.5962 161.996 94.381 163.646 101.655L172.039 98.1323Z" fill="white" stroke="#263238" stroke-miterlimit="10"/>
<path d="M175.228 68.7524C175.228 68.7524 172.082 74.1847 171.891 74.4689" stroke="#263238" stroke-linecap="round" stroke-linejoin="round"/>
<path d="M177.898 68.085L173.701 74.4689" stroke="#263238" stroke-linecap="round" stroke-linejoin="round"/>
<path d="M169.944 72.6953L168.937 73.5173" stroke="#263238" stroke-linecap="round" stroke-linejoin="round"/>
<path d="M183.447 187.909H179.344" stroke="#263238" stroke-width="4" stroke-linecap="round" stroke-linejoin="round"/>
<path d="M171.081 70.6685V215.528C171.081 217.586 171.899 219.561 173.355 221.016C174.81 222.472 176.785 223.29 178.843 223.29V223.29C179.865 223.294 180.878 223.096 181.823 222.708C182.768 222.32 183.628 221.748 184.352 221.027C185.076 220.306 185.65 219.449 186.042 218.505C186.434 217.561 186.636 216.55 186.636 215.528V189.275C186.637 189.096 186.602 188.918 186.534 188.753C186.466 188.587 186.366 188.437 186.24 188.31C186.114 188.183 185.964 188.082 185.798 188.013C185.633 187.945 185.456 187.909 185.277 187.909H183.478" stroke="#263238" stroke-linecap="round" stroke-linejoin="round"/>
<path d="M27.7234 286.919H294.347" stroke="#263238" stroke-linecap="round" stroke-linejoin="round"/>
<path d="M7.51489 286.919H23.4284" stroke="#263238" stroke-linecap="round" stroke-linejoin="round"/>
</svg>
