<svg width="290" height="290" viewBox="0 0 290 290" fill="none" xmlns="http://www.w3.org/2000/svg">
<path d="M90.4449 24.1221H88.1249L87.7479 25.0733H86.3037L88.6237 19.6909H90.0679L92.3241 25.0733H90.8277L90.4449 24.1221ZM90.0331 23.0491L89.3197 21.1293L88.5715 23.0491H90.0331Z" fill="#E0E0E0"/>
<path d="M27.8397 233.339C26.9546 233.35 26.0784 233.163 25.2754 232.79C24.4724 232.418 23.7631 231.87 23.1997 231.188L24.8005 228.81C25.5043 229.652 26.5056 230.19 27.5961 230.312C28.4545 230.312 28.9881 229.784 28.9881 228.775V222.72H24.4293V219.849H32.4797V228.85C32.4797 231.704 30.7397 233.339 27.8397 233.339Z" fill="#E0E0E0"/>
<path d="M91.6977 182.34L89.2733 178.727L88.0727 180.061V182.34H85.6367V173.002H88.0727V176.9L91.5527 172.985H94.3773L90.8973 176.848L94.5687 182.323L91.6977 182.34Z" fill="#E0E0E0"/>
<path d="M28.0895 177.863L32.4801 183.698V177.863H34.8291V187.555H32.6251L28.2287 181.755V187.555H25.8623V177.863H28.0895Z" fill="#E0E0E0"/>
<path d="M231.565 157.835L232.992 160.979L234.418 157.835H235.955V163.223H234.714V159.807L233.467 162.707H232.545L231.292 159.807V163.223H230.028V157.835H231.565Z" fill="#E0E0E0"/>
<path d="M188.059 18.5596L189.486 21.7032L190.913 18.5596H192.45V23.942H191.209V20.5316L189.956 23.4316H189.039L187.786 20.5316V23.942H186.534V18.5596H188.059Z" fill="#E0E0E0"/>
<path d="M274.468 182.781V190.472H278.661V192.676H271.887V182.781H274.468Z" fill="#E0E0E0"/>
<path d="M236.193 19.7197V23.9073H238.478V25.1021H234.79V19.7197H236.193Z" fill="#E0E0E0"/>
<path d="M135.859 44.8047V48.9923H138.139V50.1929H134.45V44.8047H135.859Z" fill="#E0E0E0"/>
<path d="M265.669 95.9088C264.463 95.9088 263.668 96.3496 263.668 97.2254C263.668 100.404 273.789 98.5942 273.789 105.508C273.789 109.429 270.309 111.43 266.052 111.43C262.841 111.419 259.725 110.34 257.195 108.361L259.144 104.441C261.116 106.14 264.109 107.341 266.104 107.341C267.583 107.341 268.517 106.761 268.517 105.775C268.517 102.515 258.396 104.487 258.396 97.6836C258.396 94.0934 261.441 91.814 266.075 91.814C268.788 91.819 271.447 92.5715 273.76 93.989L271.869 97.9678C269.839 96.8136 267.258 95.9088 265.669 95.9088Z" fill="#E0E0E0"/>
<path d="M208.22 190.379C207.013 190.379 206.219 190.82 206.219 191.696C206.219 194.88 216.34 193.07 216.34 199.978C216.34 203.899 212.86 205.906 208.608 205.906C205.395 205.895 202.276 204.813 199.746 202.832L201.695 198.911C203.667 200.61 206.66 201.811 208.655 201.811C210.134 201.811 211.068 201.26 211.068 200.245C211.068 196.985 200.947 198.957 200.947 192.154C200.947 188.564 203.992 186.29 208.626 186.29C211.348 186.288 214.018 187.038 216.34 188.459L214.449 192.438C212.402 191.284 209.826 190.379 208.22 190.379Z" fill="#E0E0E0"/>
<path d="M152.453 73.0161C152.453 77.9113 148.868 81.2405 143.55 81.2405H136.636V64.8149H143.712C148.915 64.8149 152.453 68.1441 152.453 73.0161ZM148.074 73.0625C148.074 70.2263 146.224 68.3065 143.619 68.3065H140.94V77.7721H143.84C146.316 77.7721 148.074 75.8755 148.074 73.0799V73.0625Z" fill="#E0E0E0"/>
<path d="M237.429 130.389L235.973 127.6H234.03V130.366H231.42V120.396H235.909C238.56 120.396 240.074 121.678 240.074 123.876C240.12 124.527 239.976 125.178 239.66 125.749C239.344 126.321 238.869 126.788 238.293 127.095L240.369 130.36L237.429 130.389ZM234.03 125.541H235.927C236.982 125.541 237.597 125.001 237.597 123.986C237.597 122.971 236.982 122.478 235.927 122.478H234.03V125.541Z" fill="#E0E0E0"/>
<path d="M247.347 183.239V186.603H242.666V198.853H238.606V186.603H233.966V183.239H247.347Z" fill="#E0E0E0"/>
<path d="M209.798 151.165C209.799 151.807 209.581 152.431 209.181 152.933C208.78 153.435 208.22 153.785 207.594 153.926C208.347 154.055 209.028 154.453 209.51 155.046C209.993 155.639 210.243 156.387 210.215 157.151C210.215 159.332 208.301 160.695 205.303 160.695H199.004V147.935H205.065C207.959 147.94 209.798 149.199 209.798 151.165ZM206.376 151.745C206.376 150.98 205.796 150.527 204.885 150.545H202.333V153.021H204.885C205.813 153.021 206.376 152.54 206.376 151.745ZM206.776 156.733C206.776 155.933 206.045 155.422 204.885 155.44H202.333V158.114H204.885C206.045 158.114 206.776 157.603 206.776 156.733Z" fill="#E0E0E0"/>
<path d="M265.28 33.28C265.282 33.9229 265.064 34.5471 264.664 35.05C264.263 35.5528 263.703 35.9043 263.076 36.0466C263.829 36.1752 264.509 36.5723 264.991 37.1642C265.473 37.7561 265.724 38.5027 265.698 39.2656C265.698 41.4522 263.79 42.8152 260.785 42.8152H254.486V30.0552H260.547C263.442 30.061 265.28 31.3196 265.28 33.28ZM261.858 33.86C261.858 33.0944 261.278 32.6362 260.368 32.6594H257.821V35.1302H260.368C261.296 35.136 261.858 34.6662 261.858 33.8658V33.86ZM262.258 38.8422C262.258 38.0418 261.533 37.5314 260.368 37.5546H257.821V40.2284H260.368C261.533 40.2342 262.258 39.7238 262.258 38.8596V38.8422Z" fill="#E0E0E0"/>
<path d="M115.368 155.289C114.448 155.341 113.583 155.743 112.95 156.413C112.317 157.083 111.964 157.969 111.964 158.891C111.964 159.812 112.317 160.699 112.95 161.368C113.583 162.038 114.448 162.44 115.368 162.493C116.575 162.419 117.708 161.886 118.534 161.002L120.483 163.09C119.099 164.546 117.196 165.396 115.188 165.456C111.348 165.456 108.489 162.655 108.489 158.908C108.489 155.161 111.424 152.464 115.315 152.464C117.254 152.484 119.106 153.27 120.466 154.651L118.534 156.971C118.157 156.481 117.679 156.078 117.133 155.788C116.586 155.498 115.985 155.328 115.368 155.289Z" fill="#E0E0E0"/>
<path d="M257.984 222.169C257.064 222.221 256.199 222.623 255.566 223.293C254.933 223.963 254.581 224.849 254.581 225.771C254.581 226.692 254.933 227.579 255.566 228.248C256.199 228.918 257.064 229.32 257.984 229.372C259.191 229.299 260.325 228.766 261.151 227.882L263.1 229.976C261.715 231.431 259.812 232.281 257.804 232.342C256.928 232.374 256.054 232.228 255.237 231.912C254.419 231.596 253.674 231.117 253.047 230.504C252.42 229.891 251.925 229.156 251.591 228.346C251.257 227.535 251.092 226.665 251.105 225.788C251.105 222.117 254.034 219.35 257.932 219.35C259.869 219.368 261.721 220.152 263.082 221.531L261.151 223.851C260.774 223.36 260.296 222.957 259.75 222.666C259.204 222.376 258.601 222.207 257.984 222.169Z" fill="#E0E0E0"/>
<path d="M220.8 51.2081H212.489L211.12 54.6069H205.964L214.24 35.3799H219.397L227.464 54.6069H222.14L220.8 51.2081ZM219.315 47.3685L216.682 40.5071L214.02 47.3685H219.315Z" fill="#E0E0E0"/>
<path d="M176.94 42.3748V46.4348H173.634V42.4676L168.965 33.7676H172.26L175.258 39.2138L178.193 33.7676H181.54L176.94 42.3748Z" fill="#E0E0E0"/>
<path d="M110.043 63.2199C111.685 63.2199 112.821 62.1063 112.821 60.2619V52.0259H116.528V60.2677C116.528 64.0145 114.016 66.3867 110.026 66.3867C106.035 66.3867 103.443 64.0145 103.443 60.2677V52.0259H107.149V60.2677C107.122 60.6573 107.179 61.0481 107.314 61.4145C107.449 61.7809 107.66 62.1144 107.934 62.3933C108.207 62.6722 108.536 62.89 108.9 63.0325C109.264 63.1749 109.653 63.2388 110.043 63.2199Z" fill="#E0E0E0"/>
<path d="M64.3798 188.366V191.591H56.8398V195.042H63.7998V198.267H56.8398V203.858H52.7798V188.366H64.3798Z" fill="#E0E0E0"/>
<path d="M16.0311 138.544V143.26H20.6711V138.544H23.6871V150.11H20.6711V145.667H16.0311V150.11H13.0093V138.544H16.0311Z" fill="#E0E0E0"/>
<path d="M229.367 76.5596V88.061H226.368V76.5596H229.367Z" fill="#E0E0E0"/>
<path d="M141.16 23.6348C141.16 27.6484 137.993 30.6586 133.748 30.6586C129.502 30.6586 126.33 27.6484 126.33 23.6348C126.33 19.6212 129.502 16.6748 133.748 16.6748C137.993 16.6748 141.16 19.6618 141.16 23.6348ZM130.007 23.6348C129.985 24.6605 130.371 25.6529 131.08 26.3944C131.789 27.136 132.763 27.5661 133.788 27.5904C134.289 27.5747 134.781 27.4602 135.237 27.2534C135.692 27.0466 136.103 26.7517 136.444 26.3856C136.785 26.0196 137.051 25.5896 137.225 25.1204C137.399 24.6513 137.479 24.1523 137.46 23.6522C137.483 23.1514 137.406 22.6511 137.233 22.1805C137.06 21.71 136.795 21.2789 136.453 20.9124C136.111 20.546 135.699 20.2517 135.241 20.0469C134.783 19.8421 134.29 19.7309 133.788 19.7198C133.28 19.725 132.779 19.8314 132.312 20.0327C131.846 20.234 131.424 20.5263 131.072 20.8924C130.72 21.2586 130.445 21.6912 130.262 22.165C130.079 22.6389 129.992 23.1445 130.007 23.6522V23.6348Z" fill="#E0E0E0"/>
<path d="M260.571 142.024L263.999 151.942L267.438 142.024H271.121L265.756 155.741H262.038L256.72 142.024H260.571Z" fill="#E0E0E0"/>
<path d="M192.403 73.6597L194.3 79.1407L196.202 73.6597H198.232L195.268 81.2345H193.215L190.28 73.6597H192.403Z" fill="#E0E0E0"/>
<path d="M25.0557 43.5812C25.0557 45.9766 23.5535 47.3744 20.9551 47.3744H19.1397V50.1932H16.4775V40.02H20.9551C23.5535 40.02 25.0557 41.3134 25.0557 43.5812ZM22.5269 43.6682C22.5269 42.6648 21.9005 42.1254 20.8217 42.1254H19.1397V45.24H20.8217C21.9005 45.24 22.5269 44.7006 22.5269 43.6682Z" fill="#E0E0E0"/>
<path d="M266.266 61.6421L268.378 66.2821L270.483 61.6421H272.751V69.5997H270.918V64.5653L269.068 68.8109H267.705L265.86 64.5653V69.5997H264.01V61.6537L266.266 61.6421Z" fill="#E0E0E0"/>
<path d="M41.957 92.04V96.0478H31.807V99.638H40.9652V103.617H31.807V107.242H42.247V111.244H26.79V92.04H41.957Z" fill="#E0E0E0"/>
<path d="M67.2797 27.2019V30.4905L57.1123 42.3921H67.4247V46.4521H50.3901V43.1635L60.5401 31.2329H50.7497V27.1729L67.2797 27.2019Z" fill="#E0E0E0"/>
<path d="M276.84 260.652C276.84 260.739 217.523 260.803 144.374 260.803C71.2241 260.803 11.8901 260.739 11.8901 260.652C11.8901 260.565 71.1951 260.501 144.374 260.501C217.552 260.501 276.84 260.571 276.84 260.652Z" fill="#263238"/>
<path d="M107.584 45.5646C107.541 45.4227 107.47 45.2907 107.376 45.1762C107.282 45.0617 107.166 44.967 107.035 44.8975C106.904 44.8279 106.76 44.785 106.613 44.7711C106.465 44.7572 106.316 44.7726 106.175 44.8164L101.094 46.3998L31.4126 64.8844L56.225 161.588L64.8612 166.129L135.784 146.409C136.058 146.333 136.314 146.203 136.537 146.027C136.76 145.851 136.946 145.631 137.083 145.382C137.22 145.133 137.306 144.859 137.336 144.576C137.366 144.294 137.339 144.008 137.257 143.735L107.584 45.5646Z" fill="#FF725E"/>
<path d="M99.7019 41.731L106.645 45.8026L136.37 144.843L64.7453 165.294L56.6079 160.875L99.7019 41.731Z" fill="#F5F5F5"/>
<path d="M126.631 140.725L56.2251 161.605L27.7587 65.54C27.5804 64.9331 27.647 64.2807 27.944 63.7223C28.2411 63.164 28.745 62.7442 29.3479 62.553L99.0001 40.687C99.1707 40.6337 99.3502 40.615 99.528 40.6321C99.7059 40.6493 99.8786 40.7018 100.036 40.7866C100.193 40.8715 100.332 40.9869 100.444 41.1262C100.556 41.2655 100.639 41.4257 100.688 41.5976L128.209 137.878C128.372 138.464 128.299 139.092 128.003 139.625C127.708 140.157 127.215 140.553 126.631 140.725Z" fill="#FF725E"/>
<path d="M65.2325 157.522C65.1571 157.522 58.6031 136.062 50.6049 109.487C42.6067 82.9111 36.1803 61.3815 36.2615 61.3467C36.3427 61.3119 42.8909 82.8067 50.8949 109.388C58.8989 135.97 65.3137 157.499 65.2325 157.522Z" fill="#263238"/>
<path d="M62.7501 160.005C62.6689 160.034 56.1207 138.545 48.1225 111.969C40.1243 85.3936 33.6979 63.8698 33.7791 63.8292C33.8603 63.7886 40.4085 85.2892 48.4067 111.871C56.4049 138.452 62.8313 159.982 62.7501 160.005Z" fill="#263238"/>
<path d="M59.6701 87.5801C60.1399 89.0649 59.3685 90.4221 57.7503 90.9267L55.6797 91.5937L54.1079 86.6058L56.2539 85.9271C57.8083 85.4283 59.2061 86.1011 59.6701 87.5801ZM58.3419 88.0151C58.2985 87.8251 58.2158 87.6463 58.0992 87.4901C57.9826 87.334 57.8346 87.2039 57.6647 87.1083C57.4948 87.0127 57.3069 86.9537 57.1128 86.9351C56.9188 86.9165 56.7231 86.9386 56.5381 87.0001L55.7203 87.2553L56.6251 90.1553L57.5067 89.877C57.6913 89.8202 57.8617 89.7246 58.0064 89.5967C58.1512 89.4688 58.267 89.3115 58.346 89.1352C58.4251 88.959 58.4656 88.7679 58.4649 88.5747C58.4642 88.3816 58.4223 88.1908 58.3419 88.0151Z" fill="white"/>
<path d="M60.8363 84.4712L62.4081 89.4592L61.1089 89.871L59.5371 84.883L60.8363 84.4712Z" fill="white"/>
<path d="M64.5134 84.4885C64.1553 84.6187 63.8612 84.8821 63.6925 85.2238C63.5238 85.5655 63.4935 85.9591 63.6079 86.3226C63.7224 86.6861 63.9727 86.9914 64.3067 87.1749C64.6407 87.3583 65.0327 87.4058 65.4008 87.3073C65.863 87.1273 66.24 86.7792 66.4564 86.3329L67.4714 86.9129C67.1098 87.6513 66.4724 88.218 65.6966 88.4905C65.3566 88.6122 64.9955 88.6636 64.6351 88.6416C64.2746 88.6197 63.9224 88.5248 63.5997 88.3626C63.277 88.2005 62.9906 87.9746 62.7578 87.6986C62.525 87.4225 62.3507 87.1021 62.2454 86.7567C62.1401 86.4113 62.106 86.0481 62.1451 85.6891C62.1843 85.3301 62.296 84.9828 62.4733 84.6683C62.6507 84.3537 62.89 84.0784 63.1769 83.8591C63.4638 83.6398 63.7922 83.481 64.1422 83.3923C64.9031 83.1603 65.7249 83.2396 66.4274 83.6127L65.9576 84.7727C65.7514 84.6244 65.5157 84.5223 65.2665 84.4732C65.0173 84.4242 64.7604 84.4294 64.5134 84.4885Z" fill="white"/>
<path d="M70.5744 81.4028L70.9108 82.4758L69.4202 82.9514L70.6556 86.8606L69.3506 87.2724L68.1152 83.3574L66.6362 83.8272L66.2998 82.7542L70.5744 81.4028Z" fill="white"/>
<path d="M72.4071 80.8286L73.9789 85.8166L72.6739 86.2284L71.1021 81.2404L72.4071 80.8286Z" fill="white"/>
<path d="M79.2339 81.4145C79.4414 81.9451 79.4843 82.5259 79.3571 83.0812C79.2298 83.6366 78.9383 84.1407 78.5204 84.5279C78.1025 84.9152 77.5777 85.1676 77.0143 85.2524C76.4509 85.3371 75.8751 85.2502 75.3618 85.0029C74.8485 84.7557 74.4216 84.3596 74.1366 83.8663C73.8516 83.3729 73.7219 82.8052 73.7642 82.237C73.8065 81.6689 74.0189 81.1266 74.3738 80.6809C74.7287 80.2353 75.2096 79.9068 75.7539 79.7383C76.0921 79.6143 76.4517 79.5594 76.8115 79.5769C77.1713 79.5944 77.5239 79.684 77.8484 79.8403C78.1729 79.9966 78.4628 80.2165 78.7008 80.4869C78.9388 80.7573 79.12 81.0728 79.2339 81.4145ZM75.1739 82.6963C75.283 83.072 75.5366 83.389 75.879 83.5782C76.2214 83.7673 76.6248 83.8131 77.0009 83.7055C77.3495 83.5612 77.6313 83.2913 77.7908 82.9493C77.9502 82.6073 77.9756 82.218 77.8619 81.8581C77.7483 81.4983 77.5039 81.1942 77.177 81.0057C76.8501 80.8173 76.4644 80.7583 76.0961 80.8403C75.9139 80.9018 75.7456 80.9986 75.6009 81.1252C75.4562 81.2518 75.3378 81.4057 75.2527 81.5782C75.1676 81.7506 75.1173 81.9381 75.1048 82.13C75.0922 82.3218 75.1177 82.5143 75.1797 82.6963H75.1739Z" fill="white"/>
<path d="M80.243 78.3577L83.4504 80.6777L82.505 77.6733L83.7171 77.2905L85.289 82.2785L84.129 82.6381L80.9273 80.3645L81.8669 83.3515L80.6547 83.7343L79.0771 78.7463L80.243 78.3577Z" fill="white"/>
<path d="M89.32 80.0397L87.1682 80.7183L87.0928 81.7159L85.7588 82.1335L86.3388 76.4727L87.6786 76.0493L91.3384 80.3819L89.9522 80.8169L89.32 80.0397ZM88.624 79.1697L87.377 77.6037L87.2436 79.6047L88.624 79.1697Z" fill="white"/>
<path d="M94.766 79.2627L93.606 78.1027L92.6664 78.3985L93.1014 79.7789L91.7964 80.1907L90.2246 75.2027L92.4634 74.4951C93.7916 74.0775 94.7428 74.4951 95.0966 75.5913C95.2219 75.9098 95.2525 76.2578 95.1845 76.5932C95.1166 76.9287 94.9532 77.2374 94.7138 77.4821L96.2682 78.7813L94.766 79.2627ZM92.3068 77.3777L93.2522 77.0819C93.3645 77.0624 93.471 77.0181 93.5639 76.9522C93.6569 76.8863 93.734 76.8004 93.7896 76.701C93.8451 76.6015 93.8778 76.4908 93.8852 76.3771C93.8926 76.2634 93.8745 76.1495 93.8322 76.0437C93.8052 75.9334 93.7536 75.8307 93.6813 75.7432C93.609 75.6556 93.5179 75.5856 93.4147 75.5382C93.3116 75.4908 93.199 75.4673 93.0855 75.4694C92.972 75.4716 92.8605 75.4994 92.7592 75.5507L91.8138 75.8465L92.3068 77.3777Z" fill="white"/>
<path d="M98.9942 76.1769L99.4988 77.7719L98.1938 78.1837L97.7066 76.6235L94.8066 73.7757L96.1058 73.3639L97.9618 75.1039L98.4432 72.5983L99.7424 72.1865L98.9942 76.1769Z" fill="white"/>
<path d="M76.2527 102.903L70.5861 104.69L70.4005 107.294L66.8799 108.408L68.3821 93.5189L71.8969 92.4111L81.5307 103.82L77.8825 104.98L76.2527 102.903ZM74.4141 100.583L71.1487 96.4769L70.7891 101.697L74.4141 100.583Z" fill="white"/>
<path d="M85.2598 95.1201L85.9326 97.2487L80.9736 98.8147L80.3008 96.6803L85.2598 95.1201Z" fill="white"/>
<path d="M96.3205 84.7148L97.0281 86.9594L92.6665 97.2544L99.7019 95.0388L100.566 97.788L88.9661 101.448L88.2643 99.2264L92.6201 88.9082L85.9443 91.0136L85.0801 88.2586L96.3205 84.7148Z" fill="white"/>
<path d="M130.314 143.26L130.152 143.324L129.659 143.492L127.768 144.072L120.808 146.253L97.7647 153.329L74.6923 160.323L67.6801 162.4L65.7719 162.98L65.2731 163.119C65.217 163.139 65.1584 163.15 65.0991 163.154C65.1504 163.126 65.205 163.105 65.2615 163.09L65.7545 162.922L67.6453 162.342L74.6053 160.161L97.6545 153.079L120.721 146.09L127.722 144.002L129.63 143.422L130.129 143.289C130.189 143.271 130.251 143.261 130.314 143.26Z" fill="#263238"/>
<path d="M90.8336 153.532L80.1558 156.809C82.6663 161.408 84.4506 166.367 85.4454 171.512C86.9644 169.17 87.7944 166.449 87.8408 163.659C89.6459 165.822 91.614 167.845 93.7278 169.708C93.8758 164.175 92.8909 158.67 90.8336 153.532Z" fill="#455A64"/>
<path d="M129.009 141.938C129.009 141.938 128.957 141.966 128.847 142.007L128.36 142.169L126.469 142.749L119.509 144.924L96.4656 152.006L73.399 159.001L66.3984 161.089L64.4902 161.64L63.9914 161.774L63.8174 161.814C63.8683 161.784 63.9229 161.761 63.9798 161.744L64.467 161.582L66.3636 160.973L73.3236 158.798L96.367 151.716L119.439 144.722L126.44 142.68L128.348 142.129L128.847 141.996L129.009 141.938Z" fill="#263238"/>
<path d="M131.173 139.2C131.137 139.121 131.108 139.04 131.086 138.956L130.871 138.237L130.077 135.476C129.392 133.064 128.406 129.595 127.177 125.315C124.741 116.731 121.348 104.876 117.526 91.8083C113.703 78.7409 110.2 66.9379 107.602 58.3945C106.32 54.1315 105.282 50.6805 104.551 48.2735C104.203 47.1135 103.925 46.1623 103.733 45.5185C103.646 45.2169 103.577 44.9791 103.53 44.8051C103.502 44.7238 103.481 44.6404 103.466 44.5557C103.502 44.6329 103.533 44.7123 103.559 44.7935C103.611 44.9675 103.693 45.1995 103.791 45.5011C103.994 46.1449 104.29 47.0613 104.667 48.2387C105.409 50.6341 106.482 54.0793 107.811 58.3307C110.438 66.8567 114.005 78.6597 117.833 91.7329C121.661 104.806 125.013 116.673 127.397 125.263C128.557 129.555 129.532 133.029 130.193 135.453L130.935 138.231C131.011 138.539 131.074 138.777 131.115 138.956C131.156 139.136 131.173 139.2 131.173 139.2Z" fill="#263238"/>
<path d="M100.526 63.0981C100.526 63.0981 100.526 63.0285 100.456 62.9009L100.265 62.3209C100.094 61.795 99.8508 61.041 99.5338 60.0589C98.9074 58.0869 97.9968 55.2159 96.8426 51.5909L96.9528 51.6489L44.022 68.2137L44.1206 68.0223C45.356 71.9779 46.5624 75.8465 47.7166 79.5643L47.531 79.4657L85.26 67.7671L96.425 64.3335L99.4468 63.4113L100.236 63.1735L100.508 63.0981L100.259 63.1909L99.4932 63.4345L96.5352 64.3799L85.4224 67.8599L47.618 79.7557L47.473 79.7963L47.4266 79.6571C46.2666 75.9393 45.0602 72.0707 43.8306 68.1209L43.7842 67.9759L43.9292 67.9295L96.9006 51.4807L96.9818 51.4517V51.5329C98.1012 55.1927 98.9828 58.0869 99.5976 60.0821C99.8876 61.0565 100.12 61.8221 100.276 62.3325C100.352 62.5819 100.404 62.7675 100.444 62.9125C100.477 62.9717 100.504 63.0339 100.526 63.0981Z" fill="white"/>
<path d="M241.053 98.9609C253.376 93.9397 259.295 79.8798 254.274 67.5572C249.252 55.2347 235.193 49.3158 222.87 54.337C210.547 59.3582 204.629 73.4181 209.65 85.7407C214.671 98.0632 228.731 103.982 241.053 98.9609Z" fill="white"/>
<path d="M212.28 100.474C212.251 100.474 212.28 100.213 212.124 99.7717C211.923 99.1475 211.534 98.6006 211.01 98.2057C210.658 97.9246 210.248 97.7263 209.809 97.6257C209.31 97.5241 208.792 97.5704 208.319 97.7591C207.765 97.9523 207.283 98.3088 206.936 98.7815C206.589 99.2542 206.394 99.821 206.376 100.407C206.358 100.993 206.517 101.571 206.834 102.064C207.151 102.558 207.61 102.943 208.151 103.171C208.613 103.383 209.126 103.46 209.63 103.391C210.072 103.321 210.494 103.155 210.865 102.904C211.412 102.543 211.833 102.023 212.071 101.413C212.234 100.978 212.245 100.711 212.269 100.717C212.276 100.781 212.276 100.845 212.269 100.909C212.267 100.985 212.255 101.061 212.234 101.135C212.218 101.24 212.191 101.343 212.153 101.442C211.966 101.988 211.636 102.473 211.197 102.848C210.758 103.222 210.227 103.472 209.659 103.571C209.117 103.659 208.562 103.584 208.064 103.356C207.507 103.107 207.032 102.705 206.695 102.196C206.315 101.665 206.112 101.028 206.115 100.375C206.147 99.7217 206.386 99.0958 206.799 98.5885C207.171 98.1136 207.667 97.7504 208.232 97.5387C208.744 97.3436 209.303 97.3033 209.838 97.4227C210.311 97.5383 210.75 97.7627 211.12 98.0781C211.655 98.5016 212.041 99.0847 212.222 99.7427C212.248 99.8458 212.267 99.9504 212.28 100.056C212.291 100.133 212.291 100.211 212.28 100.288C212.287 100.35 212.287 100.412 212.28 100.474Z" fill="#263238"/>
<path d="M227.894 100.612L228.288 100.647L229.448 100.775L230.289 100.868C230.602 100.868 230.944 100.868 231.316 100.868H232.51C232.731 100.878 232.953 100.868 233.172 100.839L233.873 100.781C236.207 100.605 238.501 100.077 240.677 99.2146C243.566 98.0914 246.212 96.4237 248.472 94.302L249.417 93.3972C249.713 93.0782 249.997 92.7302 250.293 92.3938L250.74 91.8834C250.892 91.7124 251.033 91.5322 251.163 91.344L251.969 90.184C252.103 89.9926 252.242 89.807 252.375 89.604L252.729 88.9834C252.961 88.5658 253.205 88.1482 253.443 87.7248C253.68 87.3014 253.849 86.8316 254.057 86.385C254.162 86.1588 254.26 85.9268 254.365 85.7006C254.411 85.5846 254.469 85.4744 254.51 85.3584L254.632 84.9988C254.986 84.0337 255.272 83.0454 255.49 82.0408C255.594 81.5304 255.734 81.0258 255.815 80.498C255.896 79.9702 255.937 79.4424 256 78.9088C256.029 78.642 256.076 78.3752 256.087 78.1026C256.099 77.83 256.087 77.5632 256.087 77.2906C256.087 76.7454 256.116 76.1944 256.087 75.6434C256.03 74.5242 255.898 73.41 255.693 72.3084L255.536 71.4674C255.536 71.3282 255.49 71.189 255.455 71.044L255.339 70.6322C255.177 70.0522 255.02 69.5244 254.858 68.9676C254.695 68.4108 254.434 67.883 254.226 67.332C254.11 67.0652 254.017 66.752 253.883 66.52L253.477 65.7312C252.935 64.6604 252.321 63.6276 251.639 62.6398C251.268 62.1584 250.891 61.6828 250.514 61.2014L250.229 60.836L249.91 60.5054L249.272 59.8326L248.634 59.1598L247.933 58.5798L247.237 57.9998L246.883 57.6924C246.761 57.5996 246.628 57.5126 246.5 57.4198L244.957 56.3236L243.304 55.3782C238.707 52.9114 233.43 52.0152 228.276 52.8262L226.403 53.1742L224.582 53.6962L224.129 53.8296L223.694 54.0036L222.824 54.3516L221.96 54.6938L221.131 55.1172L220.313 55.5406L219.901 55.7552L219.518 55.9988L217.976 56.9848C217.007 57.6966 216.087 58.4716 215.221 59.3048L214.6 59.908C214.385 60.111 214.206 60.3488 214.02 60.5692C213.643 61.0158 213.243 61.445 212.86 61.9032L211.857 63.3126L211.607 63.6664C211.532 63.7882 211.462 63.91 211.393 64.0376C211.248 64.2812 211.108 64.5306 210.969 64.7742C210.412 65.7479 209.92 66.7573 209.496 67.796C209.299 68.3122 209.142 68.84 208.962 69.3562C208.881 69.6114 208.794 69.8724 208.707 70.1276C208.62 70.3828 208.585 70.6554 208.522 70.9164C208.406 71.4442 208.29 71.9604 208.174 72.4824C208.058 73.0044 208.04 73.5264 207.971 74.0426C207.848 75.0624 207.794 76.0894 207.808 77.1166V77.4936C207.808 77.6212 207.808 77.743 207.837 77.8706C207.837 78.12 207.878 78.3694 207.895 78.613C207.947 79.106 207.959 79.599 208.034 80.0804C208.11 80.5618 208.208 81.0374 208.295 81.5072C208.342 81.7392 208.382 81.977 208.423 82.209L208.614 82.8876C208.748 83.34 208.875 83.7866 209.003 84.2274C209.061 84.4477 209.137 84.663 209.229 84.8712C209.31 85.0858 209.392 85.2946 209.479 85.5034C209.647 85.921 209.798 86.3386 209.977 86.7388C210.157 87.139 210.372 87.5218 210.557 87.8988C211.991 90.6483 213.94 93.096 216.299 95.1082C216.555 95.3286 216.804 95.5548 217.059 95.7636L217.848 96.3436L218.608 96.8888C218.735 96.9758 218.857 97.0686 218.985 97.144L219.368 97.3644L220.823 98.2054C221.293 98.4548 221.769 98.6404 222.204 98.8492L222.842 99.1334C223.04 99.231 223.245 99.3124 223.457 99.377L224.588 99.7598C224.941 99.8758 225.266 99.9976 225.562 100.079L226.391 100.27L227.517 100.531L227.899 100.624C227.899 100.624 227.766 100.624 227.511 100.554L226.386 100.311L225.55 100.131C225.249 100.056 224.924 99.9338 224.57 99.8236L223.41 99.4524C223.199 99.3889 222.993 99.3074 222.795 99.2088L222.152 98.9246C221.711 98.7216 221.235 98.5418 220.76 98.2924L219.304 97.4398L218.915 97.2194C218.788 97.144 218.672 97.0512 218.544 96.9642L217.778 96.4248L216.978 95.8448L216.212 95.1836C213.829 93.1709 211.859 90.7146 210.412 87.951C210.209 87.5682 210.012 87.1796 209.832 86.791C209.653 86.4024 209.496 85.9674 209.328 85.5498C209.247 85.3352 209.16 85.1264 209.073 84.9118C208.979 84.7019 208.903 84.4847 208.846 84.2622C208.719 83.8156 208.585 83.369 208.458 82.9166C208.388 82.6904 208.319 82.4642 208.261 82.2322C208.203 82.0002 208.174 81.7624 208.127 81.5246C208.04 81.049 207.953 80.5734 207.86 80.092C207.768 79.6106 207.768 79.106 207.721 78.613C207.721 78.3636 207.675 78.1142 207.657 77.859C207.657 77.7372 207.628 77.6096 207.628 77.482V77.1398C207.609 76.105 207.661 75.0701 207.785 74.0426C207.855 73.5264 207.889 72.9928 207.988 72.4708L208.336 70.8932C208.4 70.6264 208.44 70.3596 208.522 70.0986L208.783 69.3156C208.957 68.7994 209.113 68.2658 209.316 67.7438C209.74 66.6964 210.234 65.6791 210.795 64.6988L211.219 63.9506C211.294 63.823 211.358 63.6954 211.439 63.5736L211.7 63.2198C212.036 62.7519 212.373 62.2763 212.709 61.793C213.069 61.3348 213.475 60.8998 213.869 60.4474C214.066 60.227 214.246 59.9892 214.449 59.7862L215.099 59.1656C215.974 58.3327 216.902 57.5577 217.877 56.8456L219.431 55.8538L219.82 55.6044L220.232 55.3898L221.061 54.9606L221.896 54.5372L222.772 54.1834L223.648 53.8354L224.089 53.6614L224.541 53.528L226.38 52.9944L228.271 52.6464C233.472 51.8264 238.799 52.7308 243.438 55.2216L245.108 56.1786L246.662 57.2806C246.79 57.3734 246.923 57.4604 247.051 57.559L247.405 57.8722L248.118 58.487L248.832 59.1076L249.475 59.7862L250.119 60.459C250.224 60.575 250.334 60.6852 250.432 60.8012L250.722 61.1666L251.882 62.6166C252.567 63.6149 253.185 64.6573 253.733 65.737L254.139 66.5316C254.278 66.7984 254.371 67.1116 254.481 67.3552C254.695 67.9352 254.933 68.4514 255.119 69.0082L255.606 70.6844L255.722 71.102C255.757 71.2412 255.78 71.3862 255.809 71.5254C255.861 71.8096 255.913 72.1054 255.96 72.3722C256.168 73.4832 256.3 74.6072 256.354 75.7362C256.354 76.3162 256.354 76.8498 256.354 77.4008C256.354 77.6734 256.354 77.946 256.354 78.2186C256.354 78.4912 256.296 78.7638 256.267 79.0306L256.076 80.6372C255.995 81.165 255.855 81.6754 255.751 82.1916C255.528 83.2022 255.235 84.1964 254.875 85.167L254.753 85.5266C254.713 85.6426 254.655 85.7586 254.603 85.8746L254.295 86.5648C254.086 87.0172 253.907 87.4754 253.675 87.9104L252.88 89.1342L252.52 89.7606C252.387 89.9578 252.248 90.1492 252.114 90.3406L251.297 91.5006C251.168 91.6916 251.025 91.872 250.867 92.04L250.421 92.5562C250.119 92.8926 249.841 93.2406 249.533 93.5654L248.582 94.4702C246.296 96.596 243.619 98.2584 240.7 99.3654C238.515 100.228 236.211 100.753 233.868 100.92L233.166 100.972C232.946 100.992 232.725 100.992 232.505 100.972H231.304C230.933 100.972 230.585 100.972 230.277 100.943L229.431 100.839L228.271 100.688L227.894 100.612Z" fill="#263238"/>
<path d="M226.2 71.3397H229.599C229.599 70.9534 229.676 70.5711 229.826 70.215C229.975 69.8589 230.195 69.5364 230.471 69.2662C230.747 68.9961 231.074 68.7838 231.433 68.6419C231.793 68.4999 232.177 68.4312 232.563 68.4397C233.132 68.419 233.693 68.5752 234.17 68.8868C234.647 69.1984 235.015 69.6501 235.225 70.1797C235.404 70.6247 235.475 71.1057 235.433 71.5836C235.391 72.0614 235.236 72.5224 234.981 72.9289C234.401 73.8801 233.143 74.7443 230.852 74.3383V82.0001H234.21V77.5167C235.59 77.1116 236.799 76.2645 237.651 75.1056C238.503 73.9466 238.95 72.54 238.925 71.1019C238.925 66.1313 234.471 64.9829 232.545 64.9829C231.089 65.0177 226.125 65.3657 226.2 71.3397Z" fill="#263238"/>
<path d="M234.245 83.6128H230.834V86.797H234.245V83.6128Z" fill="#263238"/>
<path d="M146.27 83.0445C142.877 80.4519 142.477 75.0869 144.756 71.4793C147.035 67.8717 151.368 65.9403 155.625 65.6329C158.718 65.4374 161.813 65.9761 164.657 67.2048C167.502 68.4336 170.015 70.3176 171.993 72.7031C174.098 75.2957 175.699 78.5727 178.744 79.9415C181.418 81.1479 184.544 80.5215 187.415 81.1769C191.26 82.0237 194.346 85.0803 196.045 88.6299C197.745 92.1795 198.215 96.1699 198.331 100.12C198.435 103.733 198.371 107.66 200.622 110.502C202.872 113.344 206.578 114.132 209.426 116.203C214.779 120.106 215.87 128.696 211.659 133.806C210.319 135.442 208.469 136.88 208.144 138.968C207.848 140.87 208.939 142.692 209.356 144.571C210.435 149.42 206.085 154.68 201.12 154.529C198.615 154.448 196.028 153.242 193.696 154.158C191.365 155.075 190.321 157.673 188.72 159.581C187.095 161.425 184.885 162.653 182.462 163.061C180.038 163.468 177.548 163.03 175.409 161.82C173.669 160.759 172.057 159.123 170.003 159.082C167.95 159.042 166.204 160.631 164.169 160.822C161.506 161.095 159.192 158.949 157.823 156.646C156.455 154.344 155.596 151.693 153.763 149.744C151.362 147.192 147.743 146.299 144.541 144.867C140.994 143.285 137.827 140.959 135.256 138.047C132.685 135.135 130.77 131.704 129.64 127.988C128.51 124.271 128.191 120.355 128.706 116.505C129.22 112.654 130.556 108.96 132.622 105.67" fill="#263238"/>
<path d="M180.107 133.33C180.988 132.538 182.046 131.969 183.193 131.672L182.972 131.643C183.181 131.608 183.393 131.591 183.604 131.59C183.993 131.513 184.392 131.516 184.779 131.598C185.166 131.681 185.532 131.842 185.855 132.072C187.085 132.642 188.057 133.652 188.581 134.902C188.976 136.004 189.061 137.193 188.826 138.34C188.591 139.487 188.044 140.547 187.247 141.404C185.884 142.906 183.68 143.77 181.76 143.144C180.02 142.564 178.802 140.795 178.448 138.962C178.228 137.96 178.265 136.918 178.555 135.933C178.845 134.949 179.379 134.054 180.107 133.33Z" fill="#455A64"/>
<path d="M185.704 108.895C185.669 98.6928 179.684 85.8284 169.493 86.275L137.408 92.3824C135.914 92.4496 134.501 93.0753 133.447 94.1356C132.393 95.1958 131.776 96.6132 131.718 98.107L127.292 184.115L163.606 183.924C164.047 177.77 165.671 160.445 165.671 160.503C165.671 160.561 179.806 159.158 183.5 142.384C185.345 134.055 185.739 120.222 185.704 108.895Z" fill="#FFBF9D"/>
<path d="M178.089 122.78C178.062 123.347 177.814 123.88 177.399 124.266C176.984 124.651 176.434 124.859 175.867 124.845C175.59 124.851 175.314 124.802 175.056 124.7C174.798 124.597 174.563 124.444 174.365 124.25C174.167 124.055 174.01 123.823 173.904 123.566C173.797 123.31 173.743 123.035 173.745 122.757C173.772 122.191 174.019 121.657 174.434 121.27C174.849 120.883 175.399 120.674 175.966 120.687C176.244 120.681 176.52 120.731 176.778 120.834C177.036 120.937 177.271 121.091 177.469 121.286C177.667 121.481 177.823 121.714 177.93 121.97C178.036 122.227 178.09 122.503 178.089 122.78Z" fill="#263238"/>
<path d="M182.299 114.748C182.015 115.014 180.443 113.698 178.1 113.588C175.757 113.477 173.982 114.521 173.744 114.22C173.628 114.086 173.936 113.593 174.713 113.095C175.758 112.458 176.972 112.159 178.193 112.236C179.416 112.289 180.59 112.734 181.54 113.506C182.23 114.104 182.439 114.632 182.299 114.748Z" fill="#263238"/>
<path d="M157.064 121.336C157.037 121.902 156.789 122.435 156.374 122.821C155.959 123.207 155.409 123.415 154.843 123.401C154.565 123.407 154.288 123.357 154.03 123.255C153.771 123.152 153.536 122.999 153.338 122.803C153.14 122.608 152.983 122.375 152.877 122.118C152.771 121.861 152.717 121.585 152.72 121.307C152.748 120.741 152.996 120.209 153.411 119.824C153.826 119.438 154.375 119.229 154.941 119.242C155.219 119.237 155.495 119.287 155.753 119.39C156.011 119.493 156.246 119.647 156.444 119.842C156.642 120.037 156.799 120.27 156.905 120.526C157.012 120.783 157.066 121.058 157.064 121.336Z" fill="#263238"/>
<path d="M159.303 113.813C159.013 114.08 157.441 112.764 155.103 112.653C152.766 112.543 150.985 113.587 150.748 113.286C150.632 113.152 150.933 112.659 151.716 112.16C152.76 111.523 153.976 111.223 155.196 111.302C156.413 111.369 157.578 111.822 158.52 112.595C159.227 113.17 159.442 113.68 159.303 113.813Z" fill="#263238"/>
<path d="M166.75 131.66C166.75 131.527 168.212 131.359 170.584 131.202C171.164 131.202 171.744 131.086 171.883 130.686C172.022 130.286 171.837 129.607 171.593 128.894L170.097 124.254C168.032 117.636 166.576 112.207 166.843 112.126C167.11 112.045 169 117.346 171.065 123.958C171.558 125.594 172.034 127.148 172.48 128.633C172.666 129.323 173.008 130.118 172.654 130.993C172.555 131.198 172.411 131.378 172.232 131.519C172.053 131.659 171.845 131.757 171.622 131.805C171.285 131.878 170.94 131.905 170.595 131.887C168.2 131.863 166.75 131.788 166.75 131.66Z" fill="#263238"/>
<path d="M165.816 160.295C165.816 160.295 155.376 160.388 144.519 152.929C144.519 152.929 148.3 165.927 165.346 165.352L165.816 160.295Z" fill="#FF9A6C"/>
<path d="M166.071 137.188C165.591 136.386 164.923 135.713 164.125 135.227C163.327 134.741 162.422 134.456 161.489 134.398C160.879 134.367 160.27 134.486 159.716 134.745C159.162 135.004 158.679 135.395 158.311 135.883C157.938 136.436 157.725 137.083 157.695 137.75C157.665 138.417 157.82 139.079 158.143 139.664C158.53 140.271 159.092 140.748 159.754 141.031C160.416 141.315 161.148 141.392 161.855 141.253C163.194 141.016 164.337 140.175 165.422 139.334C165.743 139.117 166.014 138.834 166.216 138.504C166.319 138.322 166.373 138.116 166.373 137.907C166.373 137.698 166.319 137.492 166.216 137.309" fill="#FF9A6C"/>
<path d="M159.773 132.861C160.155 132.861 160.01 135.395 162.093 137.327C164.175 139.258 166.872 139.136 166.872 139.496C166.872 139.658 166.24 139.954 165.097 139.914C163.61 139.843 162.194 139.254 161.095 138.249C160.053 137.276 159.429 135.937 159.355 134.514C159.28 133.447 159.604 132.82 159.773 132.861Z" fill="#263238"/>
<path d="M160.909 104.255C160.637 104.876 158.322 104.435 155.562 104.603C152.801 104.771 150.539 105.386 150.208 104.794C150.063 104.51 150.481 103.936 151.415 103.373C152.652 102.688 154.029 102.295 155.442 102.224C156.854 102.152 158.264 102.405 159.564 102.962C160.55 103.426 161.025 103.959 160.909 104.255Z" fill="#263238"/>
<path d="M181.957 106.656C181.517 107.161 179.939 106.517 178.002 106.372C176.065 106.227 174.406 106.517 174.064 105.937C173.913 105.659 174.203 105.143 174.945 104.684C175.946 104.137 177.087 103.9 178.223 104.003C179.36 104.106 180.439 104.545 181.325 105.264C181.963 105.844 182.155 106.407 181.957 106.656Z" fill="#263238"/>
<path d="M197.426 105.195C196.846 102.596 195.628 100.056 193.534 98.4087C192.374 97.5097 191.017 96.9007 189.967 95.8915C187.7 93.7049 187.433 90.2249 186.168 87.3423C185.334 85.4859 184.069 83.8551 182.478 82.5852C180.887 81.3153 179.017 80.4428 177.022 80.0401C173.704 79.4021 170.166 80.1039 166.976 78.9961C164.616 78.1725 162.644 76.4209 160.242 75.7423C155.562 74.4199 150.841 77.4417 147.088 80.5389C146.775 83.9435 149.292 86.4607 151.728 88.8793C152.95 90.082 154.418 91.0055 156.031 91.5863C157.644 92.167 159.364 92.3912 161.072 92.2433C163.711 91.9997 166.675 90.9383 168.803 92.5217C171.042 94.1863 170.827 97.7417 172.765 99.7717C175.537 102.637 180.519 100.613 184.231 102.092C187.091 103.223 188.68 106.198 190.426 108.733C192.171 111.267 194.903 113.779 197.919 113.164C197.948 110.484 197.989 107.799 197.426 105.195Z" fill="#263238"/>
<path d="M162.98 87.6495C160.903 86.8491 156.658 85.0859 155.678 83.1313C153.549 78.8915 149.408 75.7653 144.907 75.5913C142.574 75.5686 140.297 76.3015 138.415 77.6804C136.533 79.0593 135.148 81.0102 134.467 83.2415C129.05 82.8065 123.447 85.7413 120.414 90.6307C120.03 91.2448 119.689 91.8843 119.393 92.5447C118.417 93.965 117.764 95.5812 117.479 97.2803C117.193 98.9795 117.282 100.72 117.74 102.382C118.32 104.371 119.375 106.627 118.227 108.35C117.079 110.072 114.498 109.933 112.427 110.444C110.654 110.939 109.111 112.041 108.068 113.558C107.024 115.075 106.547 116.91 106.72 118.743C106.882 120.048 107.381 121.382 106.998 122.641C106.615 123.9 105.38 124.799 104.406 125.761C103.197 126.972 102.327 128.478 101.882 130.13C101.438 131.781 101.434 133.521 101.872 135.174C102.31 136.828 103.174 138.338 104.378 139.553C105.582 140.768 107.083 141.646 108.732 142.1C110.229 142.506 111.876 142.587 113.123 143.515C114.544 144.571 115.043 146.444 115.982 147.952C116.913 149.385 118.257 150.502 119.837 151.153C121.417 151.805 123.157 151.961 124.827 151.6C125.495 151.435 126.137 151.18 126.736 150.841C127.629 152.343 129.137 153.439 131.869 153.677L134.38 118.001C134.538 118.455 134.803 118.863 135.154 119.192C135.504 119.52 135.93 119.758 136.393 119.886C141.995 121.678 143.869 109.974 142.871 106.668C145.104 105.015 147.36 103.339 149.141 101.14C150.922 98.9421 152.876 92.7071 152.795 89.8129C154.86 90.1261 163.879 87.9975 162.98 87.6495Z" fill="#263238"/>
<path d="M135.72 121.046C135.853 117.409 131.492 116.244 128.18 117.781C126.364 118.622 124.874 120.512 124.7 124.369C124.218 134.653 134.641 133.017 134.676 132.721C134.687 132.542 135.54 125.28 135.72 121.046Z" fill="#FFBF9D"/>
<path d="M131.712 128.679C131.666 128.644 131.526 128.795 131.213 128.917C130.779 129.08 130.299 129.067 129.873 128.882C128.806 128.435 127.971 126.666 128.006 124.822C128.025 123.939 128.239 123.072 128.632 122.282C128.743 121.964 128.929 121.679 129.174 121.449C129.42 121.22 129.717 121.054 130.042 120.965C130.25 120.922 130.467 120.952 130.656 121.05C130.845 121.149 130.995 121.309 131.08 121.504C131.202 121.8 131.126 122.003 131.178 122.026C131.231 122.05 131.41 121.864 131.347 121.446C131.3 121.188 131.167 120.953 130.97 120.779C130.697 120.554 130.348 120.444 129.995 120.472C129.568 120.535 129.164 120.706 128.823 120.971C128.482 121.235 128.214 121.582 128.046 121.98C127.567 122.849 127.308 123.823 127.292 124.816C127.258 126.893 128.232 128.876 129.699 129.381C129.971 129.475 130.26 129.507 130.545 129.473C130.83 129.44 131.104 129.343 131.347 129.189C131.66 128.923 131.747 128.696 131.712 128.679Z" fill="#FF9A6C"/>
<path d="M149.095 83.6362C149.159 83.7522 148.033 83.8392 146.897 85.1674C145.76 86.4956 145.157 89.1172 145.516 92.1912L145.551 92.4522L145.296 92.4928C143.788 92.7575 142.362 93.3661 141.128 94.2714C139.893 95.1767 138.884 96.3543 138.179 97.7128C137.792 98.4826 137.537 99.3119 137.425 100.166C137.369 101.079 137.396 101.996 137.506 102.904C137.625 103.883 137.67 104.87 137.64 105.856C137.62 106.933 137.24 107.972 136.561 108.808C135.117 110.635 132.982 111.407 131.138 112.178C129.324 112.796 127.623 113.707 126.104 114.875C123.586 116.947 121.949 119.896 121.522 123.128C121.255 125.312 121.525 127.528 122.31 129.584C122.89 131.04 123.383 131.759 123.32 131.799C123.166 131.65 123.033 131.48 122.925 131.295C122.588 130.785 122.295 130.248 122.049 129.688C121.135 127.61 120.777 125.329 121.011 123.07C121.379 119.681 123.041 116.564 125.651 114.37C127.218 113.134 128.983 112.173 130.871 111.528C132.716 110.757 134.728 109.98 135.987 108.367C137.263 106.912 136.932 104.835 136.799 102.973C136.687 102.011 136.664 101.04 136.729 100.073C136.859 99.1398 137.143 98.2343 137.57 97.3938C138.329 95.9491 139.415 94.7023 140.743 93.7534C142.071 92.8046 143.602 92.1802 145.215 91.9302L144.988 92.2318C144.658 89.0186 145.383 86.2868 146.67 84.9354C147.148 84.4136 147.745 84.0155 148.41 83.7754C148.632 83.7008 148.862 83.654 149.095 83.6362Z" fill="#455A64"/>
<path d="M127.542 132.176C128.423 131.384 129.481 130.815 130.628 130.517L130.401 130.483C130.613 130.454 130.826 130.436 131.039 130.43C131.428 130.354 131.828 130.357 132.215 130.441C132.602 130.525 132.968 130.687 133.29 130.918C134.519 131.484 135.49 132.492 136.01 133.742C136.407 134.844 136.494 136.035 136.259 137.183C136.025 138.33 135.479 139.392 134.682 140.25C133.313 141.746 131.115 142.616 129.195 141.99C127.455 141.41 126.237 139.67 125.883 137.808C125.66 136.806 125.696 135.763 125.986 134.778C126.276 133.793 126.811 132.898 127.542 132.176Z" fill="#455A64"/>
<path d="M90.7002 178.832C90.7002 178.832 46.3998 221.821 46.8 235.701C46.7766 235.931 46.7299 236.158 46.6608 236.379C45.0484 245.497 51.672 254.04 60.8592 255.2L77.9808 257.329L114.556 210.157L104.655 183.802L90.7002 178.832Z" fill="#FF725E"/>
<path d="M75.3999 200.002C75.3999 200.002 82.5455 187.914 90.7061 178.832C98.4317 170.242 108.715 167.812 111.006 167.684C119.474 167.284 155.179 169.697 178.083 170.584C186.592 170.926 194.996 175.868 200.558 182.317C213.011 196.759 234.848 222.5 239.232 230.428C245.45 241.657 241.088 267.224 236.727 270.634C232.365 274.044 98.5361 268.239 98.5361 268.239L75.3999 200.002Z" fill="#FF725E"/>
<path d="M225.886 230.457C225.794 230.47 225.7 230.47 225.608 230.457L224.808 230.428L224.228 230.399C224.019 230.399 223.787 230.399 223.543 230.399C222.987 230.4 222.432 230.429 221.879 230.486L220.916 230.585C220.579 230.62 220.237 230.701 219.878 230.759C219.158 230.863 218.416 231.078 217.621 231.275C214.205 232.252 211.054 233.989 208.405 236.356C207.831 236.871 207.283 237.415 206.764 237.986C206.526 238.258 206.277 238.508 206.062 238.769C205.847 239.03 205.656 239.291 205.482 239.534C205.14 239.97 204.82 240.423 204.525 240.892C204.386 241.1 204.252 241.286 204.142 241.472L203.864 241.97C203.701 242.243 203.574 242.475 203.464 242.661C203.353 242.846 203.313 242.898 203.301 242.893C203.327 242.802 203.362 242.715 203.406 242.632C203.504 242.44 203.62 242.202 203.759 241.912L204.02 241.396C204.125 241.211 204.252 241.019 204.38 240.816C204.665 240.333 204.977 239.867 205.314 239.418C205.499 239.163 205.697 238.902 205.894 238.635C206.091 238.369 206.352 238.108 206.59 237.829C207.109 237.245 207.656 236.688 208.231 236.159C210.897 233.742 214.091 231.982 217.558 231.02C218.322 230.814 219.096 230.647 219.878 230.521C220.237 230.469 220.585 230.394 220.927 230.365L221.902 230.283C222.461 230.24 223.023 230.226 223.584 230.243C223.833 230.243 224.059 230.243 224.274 230.243L224.854 230.295L225.654 230.382C225.735 230.396 225.813 230.422 225.886 230.457Z" fill="#263238"/>
<path d="M107.63 228.636C107.58 228.507 107.545 228.373 107.526 228.236L107.276 227.076C107.05 226.067 106.696 224.611 106.169 222.83C104.769 218.209 103.121 213.667 101.233 209.223C99.052 204.003 96.8132 199.363 95.0674 196.121C94.6382 195.298 94.2322 194.561 93.8668 193.923C93.5014 193.285 93.1998 192.722 92.933 192.282L92.353 191.249C92.2762 191.133 92.2121 191.008 92.1616 190.878C92.2533 190.984 92.3349 191.099 92.4052 191.22L93.0548 192.224C93.339 192.653 93.6348 193.204 94.035 193.836C94.4352 194.468 94.8354 195.199 95.2762 196.017C97.5811 200.263 99.6585 204.629 101.5 209.096C103.395 213.548 105.021 218.112 106.366 222.761C106.859 224.553 107.189 226.02 107.381 227.041C107.462 227.534 107.526 227.923 107.572 228.201C107.607 228.343 107.627 228.489 107.63 228.636Z" fill="#263238"/>
<path d="M196.04 191.232C196.045 191.28 196.045 191.329 196.04 191.377V191.8C196.04 192.201 196.04 192.746 196.04 193.436C196.04 194.863 195.953 196.916 195.842 199.456C195.634 204.537 195.193 211.549 194.416 219.275C193.638 227.001 192.676 233.955 191.858 238.995C191.458 241.506 191.11 243.531 190.849 244.928C190.721 245.613 190.617 246.146 190.541 246.541L190.454 246.958C190.45 247.007 190.436 247.054 190.414 247.098C190.411 247.049 190.411 247.001 190.414 246.953C190.414 246.837 190.448 246.697 190.472 246.529C190.53 246.135 190.617 245.595 190.721 244.911C190.941 243.478 191.255 241.431 191.637 238.96C192.386 233.937 193.325 226.977 194.102 219.24C194.88 211.503 195.349 204.52 195.622 199.445C195.744 196.928 195.842 194.88 195.912 193.436C195.947 192.746 195.97 192.195 195.987 191.8C195.987 191.626 195.987 191.487 196.016 191.377C196.018 191.328 196.026 191.279 196.04 191.232Z" fill="#263238"/>
<path d="M171.366 166.361C170.868 166.074 170.306 165.915 169.731 165.897L129.92 161.536C128.562 161.385 127.02 161.286 125.987 162.18C124.671 163.311 124.879 165.404 125.471 167.04C126.063 168.676 126.95 170.334 126.631 172.04L169.36 174.719C169.093 173.176 170.317 171.819 171.221 170.566C172.126 169.314 172.642 167.26 171.366 166.361Z" fill="#FF725E"/>
<path d="M173.269 173.896C173.119 173.952 172.963 173.995 172.805 174.023L171.448 174.319C170.868 174.447 170.131 174.598 169.285 174.731C168.438 174.864 167.481 175.05 166.385 175.166L164.708 175.381C164.128 175.45 163.508 175.491 162.876 175.549C161.617 175.682 160.26 175.729 158.816 175.798C155.721 175.891 152.623 175.817 149.536 175.578C146.45 175.307 143.381 174.867 140.343 174.261C138.951 173.96 137.622 173.681 136.399 173.345C135.784 173.182 135.186 173.043 134.624 172.875L133 172.394C131.962 172.098 131.045 171.756 130.233 171.483C129.421 171.21 128.731 170.944 128.174 170.717L126.887 170.201C126.735 170.146 126.588 170.08 126.446 170.004C126.604 170.038 126.759 170.085 126.91 170.143L128.215 170.607C128.795 170.816 129.473 171.065 130.291 171.321C131.109 171.576 132.031 171.901 133.064 172.185L134.682 172.655C135.262 172.811 135.842 172.945 136.457 173.107C137.68 173.432 139.009 173.687 140.401 173.989C146.457 175.193 152.631 175.707 158.804 175.52C160.225 175.462 161.576 175.421 162.835 175.299C163.467 175.247 164.076 175.212 164.656 175.149L166.338 174.957C167.405 174.853 168.368 174.685 169.238 174.563C170.108 174.441 170.81 174.313 171.402 174.203L172.765 173.96C172.93 173.922 173.099 173.901 173.269 173.896Z" fill="#263238"/>
<g opacity="0.3">
<path d="M75.9392 216.096C72.126 216.767 68.5712 218.475 65.6646 221.033C62.758 223.591 60.6118 226.9 59.4614 230.596C61.4508 229.941 63.3474 228.23 64.7974 226.71C68.5732 222.749 73.2306 220.098 78.671 219.518C82.4178 219.112 86.0022 220.098 89.5054 221.473C91.0888 222.099 92.8578 222.447 94.273 223.404L96.1464 223.834C91.7442 217.5 83.5546 214.867 75.9392 216.096Z" fill="black"/>
</g>
<g opacity="0.3">
<path d="M129.444 171.1C135.099 176.227 142.506 179.87 150.121 180.421C157.737 180.972 165.033 178.536 171.367 174.267C155.898 176.691 141.822 175.868 129.444 171.1Z" fill="black"/>
</g>
<g opacity="0.3">
<path d="M226.6 226.049C225.353 225.261 223.77 225.278 222.302 225.469C213.104 226.56 204.201 232.824 203.29 242.927C207.164 235.434 215.134 229.941 223.538 230.666C224.953 230.788 226.635 230.956 227.54 229.86C228.445 228.764 227.841 226.844 226.6 226.049Z" fill="black"/>
</g>
<path d="M50.3206 274.34L125.755 273.957C125.755 273.957 125.257 275.413 128.383 275.413L153.323 275.239C153.323 275.239 155.167 275.413 155.196 273.957C155.196 273.957 213.678 274.943 228.125 275.349C229.204 275.378 231.118 274.723 230.219 273.348L225.179 267.31L141.74 259.19L82.5802 265.408L62.2802 258.077H61.6074C61.3338 258.076 61.064 258.14 60.8207 258.266C60.5774 258.391 60.3678 258.573 60.2096 258.796L49.7696 273.296C49.7009 273.396 49.6609 273.513 49.6539 273.635C49.6469 273.756 49.6732 273.877 49.7299 273.984C49.7867 274.092 49.8717 274.182 49.9758 274.244C50.0798 274.307 50.1991 274.34 50.3206 274.34Z" fill="#455A64"/>
<path opacity="0.2" d="M82.2148 272.594L216.601 273.632L184.997 263.842L145.597 264.95L106.175 263.378L82.2148 272.594Z" fill="black"/>
<path d="M140.992 269.938L141.74 253.402C141.74 253.402 141.891 244.308 130.935 241.274C119.979 238.241 106.325 242.104 93.5711 242.794C80.8169 243.484 80.9678 242.516 80.9678 242.516L70.6147 258.5L111.279 264.428C111.279 264.428 134.838 265.803 135.285 265.942C135.731 266.081 140.992 269.938 140.992 269.938Z" fill="white"/>
<path d="M140.858 270.524L141.74 254.986C141.74 254.986 141.589 245.92 152.54 242.864C163.49 239.807 177.143 243.687 189.897 244.377C198.824 244.859 201.59 244.778 202.449 244.685C202.568 244.672 202.689 244.691 202.798 244.742C202.907 244.792 203.001 244.87 203.069 244.969L212.86 260.084L172.202 266.011C172.202 266.011 148.642 267.392 148.19 267.525C147.737 267.659 140.858 270.524 140.858 270.524Z" fill="white"/>
<path d="M52.9072 273.111L70.6146 258.5C70.6146 258.5 107.3 252.3 119.741 254.504C132.182 256.708 139.281 260.983 140.992 270.077L129.044 273.111C124.108 270.607 118.673 269.243 113.14 269.12C104.139 268.981 81.6288 273.116 81.6288 273.116L52.9072 273.111Z" fill="#E0E0E0"/>
<path d="M153.665 273.111L141.056 269.938C141.056 269.938 141.955 255.49 162.434 253.077C162.434 253.077 168.234 251.198 188.772 255.055C209.31 258.912 211.433 258.779 211.433 258.779L228.52 273.934C228.52 273.934 218.317 274.764 209.913 273.111C201.509 271.458 186.806 265.803 170.902 267.461C154.999 269.12 153.665 273.111 153.665 273.111Z" fill="#E0E0E0"/>
<path d="M70.6148 258.5L80.6372 243.032L62.8601 257.219L51.6313 273.111H52.9074L70.6148 258.5Z" fill="#E0E0E0"/>
<path d="M211.364 258.778L203.197 245.056C203.197 245.056 219.466 259.196 219.605 259.596C219.745 259.996 228.468 273.934 228.468 273.934L211.364 258.778Z" fill="#E0E0E0"/>
<path d="M128.383 273.111H153.595L140.992 269.938L140.331 270.077" fill="#263238"/>
<path d="M140.992 269.938C140.905 269.938 140.992 266.324 141.178 261.882C141.363 257.439 141.589 253.831 141.671 253.837C141.752 253.843 141.671 257.445 141.479 261.893C141.288 266.342 141.073 269.944 140.992 269.938Z" fill="#263238"/>
<path d="M88.2816 255.948C88.1707 255.986 88.0559 256.012 87.9393 256.024L86.936 256.198L83.2124 256.778L70.638 258.68L70.7076 258.651L68.2889 260.513L56.5497 269.462L52.9712 272.153L51.9851 272.873C51.8735 272.961 51.7552 273.04 51.6313 273.11C51.7264 273.004 51.8334 272.908 51.9503 272.826L52.8957 272.061L56.4163 269.288L68.1033 260.24L70.5219 258.384H70.5568H70.5916L83.1891 256.615L86.9186 256.116L87.9278 256C88.0434 255.97 88.1621 255.953 88.2816 255.948Z" fill="#263238"/>
<path d="M139.333 261.261C139.333 261.261 139.293 261.226 139.223 261.145L138.916 260.774C138.649 260.455 138.243 259.985 137.68 259.422C136.083 257.837 134.252 256.507 132.252 255.478C129.278 253.966 126.08 252.941 122.78 252.445C118.734 251.856 114.648 251.584 110.56 251.633C103.126 251.606 95.7019 252.169 88.3572 253.315C85.5384 253.756 83.2706 254.191 81.7046 254.504L79.9008 254.869L79.431 254.962C79.3771 254.97 79.3224 254.97 79.2686 254.962L79.4252 254.91L79.8892 254.794C80.2952 254.695 80.8984 254.544 81.6814 254.37C83.2358 254.022 85.5036 253.553 88.3224 253.089C95.6721 251.876 103.111 251.283 110.56 251.314C114.665 251.263 118.767 251.545 122.827 252.155C126.15 252.667 129.368 253.721 132.35 255.275C134.362 256.329 136.192 257.699 137.767 259.335C138.193 259.777 138.592 260.244 138.962 260.733L139.246 261.122C139.282 261.164 139.311 261.211 139.333 261.261Z" fill="#263238"/>
<path d="M139.333 259.26C139.333 259.26 139.292 259.225 139.229 259.15L138.944 258.814C138.823 258.657 138.666 258.477 138.475 258.268C138.283 258.06 138.069 257.81 137.808 257.549C136.339 256.071 134.667 254.809 132.843 253.802C130.122 252.321 127.187 251.274 124.143 250.699C120.415 250.018 116.634 249.671 112.844 249.661C105.956 249.521 99.0667 249.883 92.2312 250.746C89.6038 251.082 87.4926 251.413 86.031 251.656L84.3548 251.935L83.914 252.004H83.7632L83.9082 251.964L84.3432 251.865C84.7202 251.784 85.2828 251.662 86.0136 251.529C87.4636 251.25 89.5806 250.885 92.2022 250.525C99.0439 249.599 105.948 249.211 112.85 249.365C116.656 249.376 120.454 249.733 124.195 250.433C127.258 251.025 130.206 252.102 132.93 253.623C134.763 254.648 136.429 255.947 137.871 257.474C138.127 257.746 138.347 257.99 138.527 258.216C138.707 258.442 138.863 258.622 138.973 258.796L139.234 259.156C139.271 259.186 139.305 259.221 139.333 259.26Z" fill="#263238"/>
<path d="M139.333 257.224C139.333 257.224 139.293 257.195 139.229 257.12L138.95 256.784C138.831 256.625 138.674 256.445 138.481 256.244C138.287 256.043 138.067 255.805 137.819 255.531C136.371 254.061 134.718 252.807 132.913 251.807C130.23 250.328 127.331 249.279 124.323 248.698C120.632 248.016 116.888 247.669 113.135 247.66C106.312 247.506 99.4864 247.847 92.7129 248.681C90.1087 249 88.0149 249.319 86.5649 249.557L84.9003 249.829L84.4653 249.893C84.4155 249.903 84.3642 249.903 84.3145 249.893L84.4595 249.853L84.8887 249.76C85.2715 249.684 85.8283 249.563 86.5475 249.429C87.9859 249.157 90.0797 248.803 92.6839 248.455C99.466 247.559 106.307 247.189 113.146 247.347C116.915 247.364 120.674 247.731 124.375 248.443C127.407 249.042 130.325 250.12 133.017 251.639C134.829 252.664 136.477 253.954 137.906 255.467C138.162 255.734 138.37 255.977 138.55 256.198C138.73 256.418 138.881 256.604 138.997 256.778L139.252 257.132C139.282 257.16 139.31 257.191 139.333 257.224Z" fill="#263238"/>
<path d="M139.333 255.2C139.333 255.2 139.292 255.171 139.229 255.096L138.956 254.765C138.718 254.475 138.376 254.052 137.86 253.536C134.349 249.915 129.848 247.411 124.92 246.338C121.614 245.601 117.873 245.566 113.964 245.619C106.134 245.665 99.052 246.001 93.9538 246.541C91.4018 246.796 89.3138 247.069 87.9276 247.283L86.292 247.527L85.8628 247.585C85.8148 247.594 85.7657 247.594 85.7178 247.585C85.7651 247.569 85.8136 247.558 85.8628 247.55L86.2804 247.457C86.6516 247.388 87.1968 247.277 87.9044 247.161C89.3196 246.912 91.3844 246.581 93.9306 246.32C100.587 245.652 107.274 245.325 113.964 245.34C117.867 245.294 121.643 245.34 124.984 246.094C127.945 246.733 130.762 247.913 133.295 249.574C135.002 250.674 136.562 251.988 137.935 253.483C138.309 253.89 138.662 254.316 138.991 254.759L139.246 255.107C139.278 255.136 139.307 255.167 139.333 255.2Z" fill="#263238"/>
<path d="M139.333 253.188C139.333 253.188 139.298 253.188 139.234 253.083L138.962 252.753C138.73 252.463 138.382 252.033 137.906 251.5C136.584 249.99 135.08 248.649 133.429 247.509C132.29 246.73 131.071 246.075 129.792 245.555C128.314 244.975 126.78 244.545 125.216 244.273C121.62 243.673 117.972 243.447 114.329 243.6C106.563 243.832 99.5566 244.58 94.4758 244.975C91.9354 245.178 89.8822 245.329 88.4554 245.41L86.8198 245.491H86.3906L86.814 245.45L88.4496 245.311L94.4584 244.778C99.5334 244.331 106.54 243.548 114.323 243.316C117.989 243.155 121.662 243.383 125.28 243.995C126.867 244.279 128.422 244.724 129.92 245.323C131.211 245.858 132.441 246.533 133.585 247.335C135.239 248.498 136.733 249.872 138.028 251.424C138.492 251.97 138.828 252.41 139.043 252.718L139.292 253.066C139.309 253.105 139.323 253.146 139.333 253.188Z" fill="#263238"/>
<path d="M142.976 260.71C142.976 260.71 143.005 260.658 143.068 260.571L143.358 260.194C143.738 259.71 144.147 259.249 144.582 258.814C146.188 257.213 148.04 255.881 150.069 254.87C153.08 253.37 156.317 252.375 159.651 251.923C163.718 251.388 167.823 251.182 171.923 251.309C179.374 251.414 186.803 252.143 194.132 253.489C196.939 254.011 199.195 254.522 200.749 254.899C201.527 255.084 202.124 255.247 202.53 255.351L202.988 255.479C203.042 255.489 203.095 255.507 203.145 255.531C203.091 255.54 203.036 255.54 202.982 255.531L202.513 255.432L200.72 255.032C199.16 254.696 196.904 254.214 194.091 253.727C186.769 252.443 179.356 251.743 171.923 251.633C167.837 251.504 163.747 251.698 159.691 252.213C156.383 252.649 153.165 253.613 150.162 255.067C148.142 256.058 146.287 257.355 144.663 258.912C144.083 259.463 143.677 259.922 143.405 260.241L143.092 260.606L142.976 260.71Z" fill="#263238"/>
<path d="M143.01 258.68L143.097 258.553L143.364 258.199C143.48 258.042 143.637 257.857 143.822 257.619C144.008 257.381 144.228 257.155 144.489 256.894C145.961 255.392 147.653 254.123 149.506 253.13C152.254 251.657 155.221 250.635 158.293 250.102C162.047 249.471 165.85 249.184 169.655 249.244C176.56 249.224 183.456 249.744 190.28 250.798C192.896 251.204 195.001 251.61 196.451 251.917C197.176 252.062 197.733 252.196 198.116 252.283L198.545 252.387C198.595 252.398 198.644 252.413 198.69 252.434C198.64 252.441 198.589 252.441 198.539 252.434L198.104 252.358L196.428 252.051C194.972 251.778 192.867 251.407 190.245 251.024C183.427 250.037 176.545 249.548 169.655 249.563C165.868 249.502 162.083 249.779 158.345 250.392C155.296 250.908 152.346 251.901 149.605 253.333C147.759 254.303 146.063 255.536 144.57 256.992C144.304 257.248 144.077 257.485 143.892 257.694C143.706 257.903 143.532 258.083 143.41 258.234L143.12 258.564L143.01 258.68Z" fill="#263238"/>
<path d="M143.051 256.673C143.051 256.673 143.051 256.627 143.132 256.546L143.399 256.198C143.539 255.996 143.69 255.803 143.851 255.618C144.059 255.365 144.28 255.123 144.512 254.893C145.969 253.406 147.64 252.147 149.471 251.157C152.19 249.686 155.127 248.661 158.171 248.124C161.886 247.478 165.653 247.179 169.423 247.231C176.264 247.199 183.098 247.696 189.863 248.716C192.455 249.11 194.543 249.504 195.976 249.8C196.695 249.945 197.252 250.079 197.629 250.16L198.052 250.264C198.103 250.271 198.152 250.287 198.197 250.311C198.147 250.318 198.096 250.318 198.046 250.311L197.617 250.241L195.953 249.934C194.514 249.673 192.42 249.313 189.828 248.948C183.069 247.989 176.25 247.522 169.423 247.55C165.672 247.5 161.923 247.789 158.224 248.414C155.205 248.939 152.287 249.933 149.576 251.36C147.752 252.329 146.076 253.553 144.599 254.997C144.338 255.246 144.112 255.484 143.927 255.693C143.741 255.902 143.573 256.076 143.451 256.221L143.161 256.557C143.091 256.638 143.057 256.679 143.051 256.673Z" fill="#263238"/>
<path d="M143.086 253.187C143.509 252.585 143.998 252.031 144.542 251.534C146.033 250.183 147.748 249.101 149.611 248.339C150.882 247.793 152.181 247.315 153.503 246.906C155.008 246.397 156.547 245.992 158.108 245.694C161.426 245.073 165.143 245.114 168.995 245.247C176.732 245.491 183.68 246.448 188.715 247.034L194.665 247.753L196.284 247.944L196.701 248.002L196.846 248.031H196.701H196.278L194.654 247.892C193.244 247.764 191.203 247.55 188.691 247.271C183.657 246.732 176.714 245.816 169 245.572C165.143 245.45 161.46 245.392 158.172 245.99C156.621 246.275 155.09 246.663 153.59 247.15C152.169 247.59 150.864 248.049 149.704 248.542C147.853 249.282 146.138 250.325 144.629 251.627C144.394 251.832 144.169 252.049 143.956 252.277C143.789 252.433 143.633 252.6 143.486 252.776L143.202 253.095C143.127 253.158 143.092 253.193 143.086 253.187Z" fill="#263238"/>
<path d="M168.281 258.448V268.262L171.535 265.321L174.719 268.111L174.905 258.553C174.905 258.553 169.673 258.274 168.281 258.448Z" fill="#FF725E"/>
<path d="M205.07 264.149L204.902 264.12L204.421 264.01L202.582 263.569C200.981 263.186 198.661 262.659 195.779 262.09C192.896 261.522 189.451 260.93 185.611 260.292L179.597 259.3C177.454 258.92 175.287 258.688 173.112 258.604C170.936 258.513 168.755 258.544 166.582 258.697C164.559 258.822 162.55 259.121 160.579 259.59C157.24 260.416 154.108 261.922 151.38 264.016C150.336 264.821 149.345 265.691 148.41 266.62C147.575 267.438 146.896 268.18 146.345 268.789L145.098 270.21L144.774 270.581C144.698 270.663 144.658 270.703 144.652 270.697L144.75 270.558L145.052 270.175C145.319 269.833 145.725 269.34 146.258 268.714C146.792 268.087 147.465 267.333 148.288 266.504C149.214 265.554 150.202 264.666 151.246 263.848C153.987 261.704 157.149 260.163 160.526 259.324C162.512 258.839 164.536 258.531 166.576 258.401C168.761 258.243 170.953 258.21 173.141 258.303C175.328 258.386 177.507 258.623 179.661 259.01L185.675 260.02C189.509 260.663 192.96 261.284 195.837 261.881C198.714 262.479 201.057 263.041 202.629 263.453C203.423 263.656 204.038 263.83 204.456 263.952L204.925 264.091C204.977 264.103 205.025 264.123 205.07 264.149Z" fill="#263238"/>
<path d="M136.682 270.86C136.682 270.86 136.63 270.814 136.537 270.715L136.137 270.274C135.957 270.083 135.749 269.834 135.482 269.561C135.215 269.288 134.902 268.981 134.542 268.633C132.491 266.714 130.172 265.102 127.658 263.848C123.921 262.006 119.909 260.787 115.779 260.24C110.715 259.621 105.592 259.658 100.537 260.351C95.1487 261.018 90.0969 262.091 85.4569 263.042C80.8169 263.993 76.6815 264.817 73.1493 265.327C70.3643 265.742 67.5587 266.006 64.7451 266.116C63.7475 266.145 62.9703 266.156 62.4251 266.145C62.9471 266.145 63.7185 266.11 64.7161 266.064C67.521 265.909 70.3162 265.613 73.0913 265.176C76.6119 264.648 80.7705 263.807 85.3757 262.856C89.9809 261.905 95.0617 260.803 100.456 260.136C105.536 259.441 110.685 259.412 115.773 260.049C119.931 260.614 123.966 261.863 127.716 263.744C130.242 264.994 132.57 266.61 134.623 268.54L135.551 269.491C135.812 269.776 136.01 270.031 136.184 270.228L136.566 270.686C136.614 270.738 136.653 270.797 136.682 270.86Z" fill="#263238"/>
<path d="M136.682 272.896C136.682 272.896 136.63 272.85 136.537 272.751L136.137 272.31C135.957 272.119 135.749 271.869 135.482 271.597L134.542 270.669C132.489 268.751 130.17 267.14 127.658 265.884C123.921 264.042 119.909 262.823 115.779 262.276C110.715 261.656 105.592 261.693 100.537 262.386C95.1487 263.053 90.0969 264.126 85.4569 265.078C80.8169 266.029 76.6815 266.858 73.1493 267.363C70.3643 267.779 67.5588 268.045 64.7451 268.157C63.7475 268.157 62.9703 268.192 62.4251 268.157C62.9471 268.157 63.7185 268.123 64.7161 268.076C67.5209 267.924 70.3162 267.63 73.0913 267.195C76.6119 266.661 80.7705 265.826 85.3757 264.846C89.9809 263.865 95.0617 262.798 100.456 262.125C105.536 261.431 110.685 261.401 115.773 262.038C119.93 262.606 123.965 263.854 127.716 265.733C130.234 267.015 132.548 268.662 134.583 270.622L135.511 271.574C135.772 271.858 135.969 272.113 136.143 272.31L136.526 272.774C136.648 272.838 136.688 272.89 136.682 272.896Z" fill="#263238"/>
<path d="M130.72 271.167C130.607 271.097 130.501 271.018 130.401 270.929C130.192 270.773 129.908 270.512 129.502 270.222C128.389 269.378 127.207 268.627 125.97 267.977C124.135 267.013 122.202 266.247 120.205 265.692C117.758 265.015 115.25 264.585 112.717 264.41C108.102 264.18 103.476 264.411 98.9073 265.1L94.7429 265.68L93.5829 265.837C93.4518 265.851 93.3196 265.851 93.1885 265.837C93.3151 265.795 93.4451 265.764 93.5771 265.744L94.7023 265.535C95.6767 265.356 97.0919 265.112 98.8551 264.851C103.435 264.103 108.082 263.842 112.717 264.074C115.269 264.248 117.797 264.69 120.257 265.39C122.271 265.963 124.216 266.755 126.057 267.751C127.285 268.417 128.45 269.193 129.537 270.071C129.931 270.378 130.204 270.651 130.401 270.825C130.523 270.924 130.63 271.039 130.72 271.167Z" fill="#263238"/>
<path d="M108.39 230.121L128.876 225.695C128.876 225.695 136.555 224.147 138.04 224.964C139.525 225.782 148.08 232.626 148.816 233.264C149.553 233.902 157.731 243.704 157.731 243.704C157.731 243.704 157.545 246.807 153.056 245.56C150.736 244.922 140.923 236.338 140.923 236.338L138.62 234.529C138.62 234.529 142.199 240.073 142.129 241.895C142.059 243.716 139.78 247.352 138.997 247.851C138.214 248.35 134.293 247.666 134.293 247.666C134.293 247.666 131.509 250.67 129.323 248.304C129.323 248.304 125.593 252.184 122.566 249.933L120.942 246.749L119.393 245.549C119.393 245.549 119.155 247.741 117.653 247.985C116.151 248.228 99.3018 244.597 99.3018 244.597L105.102 228.746L108.39 230.121Z" fill="#FFBF9D"/>
<path d="M130.169 235.729C130.341 235.81 130.499 235.915 130.639 236.043C130.929 236.269 131.341 236.623 131.799 237.046C133.067 238.199 134.2 239.493 135.175 240.903C135.445 241.32 135.666 241.765 135.836 242.231C136.023 242.67 136.082 243.153 136.004 243.623C135.897 244.393 135.69 245.145 135.389 245.862C135.203 246.349 134.964 246.814 134.676 247.248C134.577 247.413 134.445 247.555 134.287 247.666C134.287 247.666 134.403 247.498 134.577 247.184C134.824 246.736 135.029 246.266 135.192 245.781C135.456 245.075 135.637 244.342 135.732 243.594C135.752 243.384 135.752 243.172 135.732 242.962C135.692 242.747 135.634 242.535 135.558 242.33C135.387 241.887 135.172 241.464 134.914 241.065C133.952 239.685 132.862 238.397 131.66 237.22C130.755 236.286 130.14 235.764 130.169 235.729Z" fill="#FF9A6C"/>
<path d="M119.596 237.551C119.793 237.448 120.007 237.379 120.228 237.348C120.824 237.218 121.438 237.192 122.043 237.272C124.056 237.568 125.871 238.645 127.095 240.271C127.73 241.177 128.21 242.183 128.516 243.246C128.772 244.101 128.966 244.973 129.096 245.856C129.212 246.604 129.276 247.219 129.311 247.643C129.337 247.862 129.337 248.084 129.311 248.304C129.259 248.304 129.154 247.376 128.87 245.891C128.702 245.025 128.486 244.169 128.22 243.327C127.912 242.292 127.44 241.313 126.823 240.427C126.174 239.578 125.361 238.868 124.433 238.339C123.674 237.902 122.843 237.604 121.98 237.458C121.185 237.37 120.381 237.401 119.596 237.551Z" fill="#FF9A6C"/>
<path d="M131.729 229.709C131.729 229.709 131.845 229.651 132.077 229.599C132.221 229.57 132.367 229.56 132.512 229.57C132.708 229.567 132.903 229.588 133.092 229.634C134.172 229.912 135.168 230.449 135.992 231.2C136.831 231.907 137.583 232.711 138.231 233.595C138.529 233.941 138.768 234.332 138.939 234.755C138.618 234.436 138.318 234.097 138.04 233.74C137.349 232.906 136.59 232.13 135.772 231.42C134.981 230.702 134.045 230.16 133.029 229.831C132.601 229.747 132.166 229.706 131.729 229.709Z" fill="#FF9A6C"/>
<path d="M104.794 226.6L94.5399 222.604L75.6609 223.573L66.2533 236.263L62.4775 254.539C62.4775 254.539 97.0513 246.947 98.1475 246.842C99.2437 246.738 101.007 244.963 101.007 244.963L104.696 245.734L109.423 229.9L104.794 226.6Z" fill="#FF725E"/>
<path d="M110.971 229.054L110.832 229.019L110.438 228.874L108.912 228.294L103.339 226.142L95.0853 222.917L90.2191 220.998C88.5001 220.27 86.7326 219.664 84.9295 219.182C83.1264 218.716 81.2551 218.572 79.4021 218.759C77.6789 218.938 75.9875 219.347 74.3735 219.977C71.637 221.073 69.0769 222.566 66.7755 224.408C64.7861 225.951 63.2955 227.308 62.2225 228.265L61.0161 229.35L60.6971 229.622C60.6217 229.686 60.5811 229.715 60.5811 229.709C60.607 229.67 60.6382 229.635 60.6739 229.605L60.9755 229.303L62.1355 228.178C63.1621 227.215 64.6527 225.812 66.6305 224.24C68.9321 222.359 71.5031 220.834 74.2575 219.716C75.8948 219.071 77.6116 218.649 79.3615 218.463C81.2471 218.273 83.1514 218.417 84.9875 218.886C86.8058 219.371 88.5871 219.986 90.3177 220.725L95.1781 222.662L103.408 225.945L108.947 228.184L110.449 228.81L110.832 228.978L110.971 229.054Z" fill="#263238"/>
<path d="M195.135 256.853C194.723 256.163 194.555 255.183 195.558 254.005L198.319 252.776C198.634 251.921 199.091 251.125 199.671 250.421C200.378 249.777 201.411 248.954 201.411 248.954C201.411 248.954 202.936 246.842 204.403 245.961C205.871 245.079 209.455 244.14 210.691 243.061C211.926 241.982 215.8 238.595 218.503 239.888C221.206 241.182 223.143 245.723 225.254 246.68C227.366 247.637 228.154 250.81 228.955 252.103C229.755 253.396 230.66 254.336 230.776 255.334C230.892 256.331 233.183 258.332 233.595 261.029C234.007 263.726 233.775 264.672 232.539 265.669C231.304 266.667 228.897 268.668 226.49 269.022C225.138 269.219 223.288 269.341 221.925 269.41C221.384 269.438 220.846 269.304 220.381 269.025C219.916 268.747 219.545 268.335 219.315 267.844L219.147 267.49C219.147 267.49 212.982 270.605 210.047 270.193C207.112 269.781 208.307 267.258 208.307 267.258C208.307 267.258 205.308 270.158 203.429 269.607C201.55 269.056 200.529 269.138 200.378 267.49C200.227 265.843 201.608 263.964 201.608 263.964C201.608 263.964 198.789 264.028 198.557 262.149C198.477 260.812 198.738 259.476 199.317 258.268L197.055 258.013C196.667 257.979 196.293 257.857 195.96 257.656C195.627 257.455 195.345 257.18 195.135 256.853Z" fill="#FFBF9D"/>
<path d="M210.917 244.267C210.847 244.498 210.754 244.722 210.639 244.934C210.52 245.192 210.385 245.442 210.232 245.682C210.047 246.008 209.843 246.324 209.624 246.628C209.053 247.422 208.422 248.173 207.739 248.872C206.973 249.661 206.091 250.49 205.152 251.343C204.212 252.196 203.342 253.019 202.576 253.802C201.904 254.493 201.281 255.232 200.715 256.012C199.752 257.358 199.381 258.332 199.317 258.291C199.382 258.059 199.469 257.834 199.578 257.619C199.681 257.353 199.807 257.097 199.955 256.853C200.13 256.521 200.323 256.2 200.535 255.89C201.088 255.082 201.705 254.32 202.379 253.611C203.133 252.81 204.015 251.975 204.949 251.123C205.882 250.27 206.77 249.452 207.541 248.681C208.225 247.997 208.863 247.269 209.449 246.5C210.441 245.183 210.859 244.232 210.917 244.267Z" fill="#FF9A6C"/>
<path d="M218.567 246.813C218.552 246.896 218.527 246.976 218.492 247.051C218.434 247.208 218.347 247.428 218.219 247.712C217.862 248.509 217.457 249.284 217.007 250.032C215.52 252.535 213.548 254.716 211.207 256.447C209.855 257.48 208.51 258.373 207.309 259.202C206.109 260.032 205.041 260.809 204.195 261.522C203.522 262.067 202.879 262.648 202.269 263.262C202.063 263.508 201.84 263.738 201.602 263.952C201.771 263.678 201.965 263.419 202.182 263.181C202.763 262.522 203.389 261.903 204.055 261.331C204.896 260.606 205.952 259.805 207.147 258.959C208.342 258.112 209.681 257.219 211.021 256.192C212.283 255.244 213.449 254.173 214.501 252.996C215.354 252.028 216.13 250.994 216.821 249.905C217.401 248.971 217.825 248.165 218.109 247.631C218.241 247.348 218.394 247.074 218.567 246.813Z" fill="#FF9A6C"/>
<path d="M219.512 247.544C219.564 247.608 219.124 248.095 218.515 248.629C217.906 249.162 217.355 249.545 217.32 249.481C217.285 249.417 217.708 248.936 218.317 248.402C218.656 248.041 219.061 247.749 219.512 247.544Z" fill="#FF9A6C"/>
<path d="M223.166 254.62C223.117 254.878 223.037 255.129 222.928 255.368C222.665 256.035 222.327 256.669 221.919 257.259C220.535 259.181 218.777 260.804 216.751 262.033C214.431 263.517 212.268 264.735 210.754 265.698C209.994 266.174 209.385 266.574 208.968 266.858C208.759 267.015 208.538 267.155 208.307 267.276C208.48 267.085 208.675 266.913 208.887 266.765C209.287 266.452 209.878 266.029 210.627 265.524C212.117 264.509 214.275 263.262 216.577 261.783C218.571 260.572 220.32 258.998 221.734 257.143C222.279 256.343 222.758 255.499 223.166 254.62Z" fill="#FF9A6C"/>
<path d="M229.169 258.442C229.113 258.617 229.033 258.783 228.931 258.935C228.769 259.243 228.502 259.672 228.154 260.188C227.227 261.528 226.16 262.765 224.97 263.877C224.313 264.485 223.622 265.054 222.899 265.582C222.301 266.007 221.678 266.395 221.032 266.742C220.759 266.893 220.504 267.009 220.278 267.113C220.052 267.218 219.854 267.299 219.698 267.357C219.533 267.437 219.357 267.49 219.176 267.514C219.176 267.467 219.872 267.177 220.916 266.551C221.538 266.186 222.14 265.787 222.72 265.356C223.369 264.863 224.065 264.295 224.755 263.657C225.926 262.551 227.001 261.348 227.969 260.061C228.717 259.075 229.1 258.419 229.169 258.442Z" fill="#FF9A6C"/>
<path d="M200.744 251.801C199.922 252.254 199.067 252.642 198.186 252.961C197.333 253.359 196.456 253.7 195.559 253.982C195.512 253.889 196.632 253.286 198.07 252.683C199.508 252.08 200.709 251.72 200.744 251.801Z" fill="#FF9A6C"/>
<path d="M202.42 241.03C203.426 240.999 204.433 241.03 205.436 241.123C203.425 241.255 201.408 241.255 199.398 241.123C200.402 241.03 201.412 240.999 202.42 241.03Z" fill="#FF725E"/>
</svg>
