<svg width="15" height="15" viewBox="0 0 15 15" fill="none" xmlns="http://www.w3.org/2000/svg">
<g clip-path="url(#clip0_207_460)">
<path fill-rule="evenodd" clip-rule="evenodd" d="M8.06762 8.51094H12.8423C13.1494 8.51094 13.4438 8.62664 13.6609 8.83259C13.878 9.03854 14 9.31787 14 9.60913V13.8982C14 14.1894 13.878 14.4687 13.6609 14.6747C13.4438 14.8806 13.1494 14.9963 12.8423 14.9963H8.06762C7.76059 14.9963 7.46614 14.8806 7.24903 14.6747C7.03193 14.4687 6.90996 14.1894 6.90996 13.8982V9.60547C6.90996 9.31421 7.03193 9.03488 7.24903 8.82893C7.46614 8.62298 7.76059 8.50728 8.06762 8.50728V8.51094ZM11.1547 4.45497H12.1683C12.2848 4.45409 12.4003 4.47521 12.508 4.51711C12.6158 4.55901 12.7137 4.62085 12.796 4.69902C12.9614 4.85743 13.0539 5.07153 13.0533 5.29448V7.34686H12.2815V5.29814C12.2817 5.2663 12.2688 5.23565 12.2455 5.21272C12.221 5.19033 12.1882 5.17804 12.1542 5.17856H11.1586V7.34564H10.3469V4.27072H6.97299C6.91901 4.27137 6.86544 4.26184 6.81537 4.24269C6.7653 4.22354 6.71974 4.19515 6.68133 4.15917C6.64292 4.12319 6.61243 4.08033 6.59161 4.03308C6.5708 3.98583 6.56009 3.93513 6.56009 3.88392V0.767511H0.812941V12.418H5.62882V13.188H2.10566V14.1544C2.10566 14.1868 2.11922 14.2178 2.14334 14.2407C2.16746 14.2636 2.20018 14.2764 2.23429 14.2764H5.62624V15H2.23687C2.0014 14.9975 1.77636 14.9075 1.60997 14.7494C1.44358 14.5914 1.34909 14.3778 1.34675 14.1544V13.1929H0.728046C0.5352 13.1931 0.350157 13.1206 0.213529 12.9915C0.145562 12.9277 0.0916767 12.8517 0.0550165 12.7679C0.0183562 12.6841 -0.000344722 12.5942 4.8107e-06 12.5035V0.689418C4.66104e-06 0.59878 0.0188453 0.509031 0.0554485 0.425307C0.0920518 0.341584 0.145699 0.265529 0.213321 0.201495C0.280943 0.13746 0.361211 0.0867038 0.449534 0.0521292C0.537856 0.0175546 0.632499 -0.000159342 0.728046 1.07993e-06H6.97299C7.03276 -0.000124845 7.09178 0.0125364 7.14568 0.0370426C7.19957 0.0615488 7.24694 0.097269 7.28427 0.141545L10.864 3.4361C10.9482 3.45876 11.0224 3.50667 11.0755 3.57265C11.1286 3.63864 11.1577 3.71916 11.1586 3.80216V4.44765L11.1547 4.45497ZM2.57259 8.16196C2.53823 8.16289 2.50442 8.17034 2.47316 8.18387C2.44189 8.1974 2.41379 8.21673 2.39053 8.24073C2.36727 8.26473 2.34932 8.29291 2.33772 8.3236C2.32613 8.35429 2.32114 8.38687 2.32305 8.41943C2.32042 8.45237 2.32488 8.48548 2.33614 8.51674C2.3474 8.54801 2.36524 8.57678 2.38858 8.60131C2.41191 8.62584 2.44025 8.64562 2.47188 8.65945C2.50351 8.67328 2.53777 8.68087 2.57259 8.68177H5.6211V8.16196H2.57259ZM2.57259 10.024C2.53822 10.0252 2.50447 10.033 2.47332 10.0468C2.44217 10.0606 2.41426 10.0802 2.39124 10.1045C2.36821 10.1287 2.35054 10.1571 2.33927 10.1879C2.328 10.2187 2.32336 10.2514 2.32562 10.2839C2.32336 10.3165 2.328 10.3491 2.33927 10.3799C2.35054 10.4107 2.36821 10.4391 2.39124 10.4633C2.41426 10.4876 2.44217 10.5072 2.47332 10.521C2.50447 10.5348 2.53822 10.5426 2.57259 10.5438H5.6211V10.024H2.57259ZM2.57259 4.43667C2.53735 4.4366 2.50247 4.4434 2.47012 4.45664C2.43776 4.46989 2.40862 4.4893 2.3845 4.51366C2.36038 4.53803 2.34179 4.56684 2.3299 4.59831C2.318 4.62977 2.31304 4.66322 2.31533 4.69658C2.31304 4.72993 2.318 4.76338 2.3299 4.79484C2.34179 4.82631 2.36038 4.85512 2.3845 4.87949C2.40862 4.90386 2.43776 4.92326 2.47012 4.93651C2.50247 4.94975 2.53735 4.95655 2.57259 4.95648H5.38828C5.42253 4.95509 5.45615 4.94721 5.48715 4.93332C5.51815 4.91943 5.5459 4.8998 5.56879 4.87559C5.59168 4.85137 5.60924 4.82306 5.62043 4.79232C5.63162 4.76158 5.63622 4.72903 5.63396 4.69658C5.63622 4.66412 5.63162 4.63157 5.62043 4.60083C5.60924 4.57009 5.59168 4.54178 5.56879 4.51756C5.5459 4.49335 5.51815 4.47372 5.48715 4.45983C5.45615 4.44594 5.42253 4.43806 5.38828 4.43667H2.57259ZM2.57259 2.57464C2.53822 2.57587 2.50447 2.58363 2.47332 2.59745C2.44217 2.61127 2.41426 2.63088 2.39124 2.65511C2.36821 2.67934 2.35054 2.7077 2.33927 2.73852C2.328 2.76934 2.32336 2.80199 2.32562 2.83454C2.32336 2.86709 2.328 2.89974 2.33927 2.93056C2.35054 2.96138 2.36821 2.98974 2.39124 3.01397C2.41426 3.0382 2.44217 3.05781 2.47332 3.07163C2.50447 3.08545 2.53822 3.09321 2.57259 3.09444H4.11614C4.15039 3.09305 4.184 3.08518 4.215 3.07129C4.246 3.0574 4.27376 3.03777 4.29665 3.01355C4.31954 2.98934 4.3371 2.96103 4.34829 2.93029C4.35948 2.89955 4.36408 2.86699 4.36182 2.83454C4.36408 2.80209 4.35948 2.76954 4.34829 2.73879C4.3371 2.70805 4.31954 2.67974 4.29665 2.65553C4.27376 2.63132 4.246 2.61169 4.215 2.5978C4.184 2.5839 4.15039 2.57603 4.11614 2.57464H2.57259ZM2.57259 6.29871C2.53751 6.29949 2.50295 6.3069 2.47092 6.32051C2.4389 6.33413 2.41007 6.35366 2.38611 6.37798C2.36215 6.4023 2.34355 6.43091 2.3314 6.46214C2.31924 6.49336 2.31378 6.52658 2.31533 6.55983C2.31304 6.59319 2.318 6.62664 2.3299 6.6581C2.34179 6.68956 2.36038 6.71837 2.3845 6.74274C2.40862 6.76711 2.43776 6.78652 2.47012 6.79976C2.50247 6.81301 2.53735 6.81981 2.57259 6.81974H7.33187C7.36683 6.81895 7.40129 6.81158 7.43322 6.79804C7.46515 6.7845 7.49393 6.76508 7.51787 6.74089C7.54181 6.7167 7.56044 6.68823 7.57267 6.65715C7.58491 6.62607 7.5905 6.59299 7.58912 6.55983C7.5916 6.52638 7.58678 6.4928 7.57496 6.46119C7.56315 6.42958 7.54459 6.40062 7.52045 6.37611C7.49631 6.35161 7.4671 6.33209 7.43466 6.31877C7.40221 6.30546 7.36722 6.29862 7.33187 6.29871H2.57259ZM7.38332 1.34955L9.80669 3.50077H7.37689V1.34955H7.38332ZM9.37964 11.1893L9.98806 11.7323L11.4403 10.3351C11.5689 10.2131 11.6499 10.1106 11.8094 10.2656L12.324 10.7671C12.4938 10.9257 12.4847 11.0185 12.324 11.1673L10.2826 13.0745C9.94561 13.3881 10.0035 13.4076 9.66263 13.0855L8.50496 11.9983C8.48826 11.9841 8.47513 11.9666 8.46655 11.947C8.45797 11.9273 8.45415 11.9061 8.45539 11.8849C8.45662 11.8637 8.46288 11.843 8.47369 11.8244C8.4845 11.8058 8.49958 11.7898 8.51783 11.7774L9.11724 11.1881C9.20856 11.099 9.2806 11.1051 9.3745 11.1881L9.37964 11.1893Z" fill="black"/>
</g>
<defs>
<clipPath id="clip0_207_460">
<rect width="15" height="15" fill="white"/>
</clipPath>
</defs>
</svg>
