<svg width="107" height="71" viewBox="0 0 107 71" fill="none" xmlns="http://www.w3.org/2000/svg">
<path opacity="0.3" d="M33.2906 10L34.1576 11.8023L35.2906 11.2573V10H33.2906ZM25.3906 13.8L23.7357 12.677L19.5667 18.8207L26.2576 15.6023L25.3906 13.8ZM27.2906 11L29.2906 11V4.49075L25.6357 9.87699L27.2906 11ZM27.2906 60.5L25.655 61.651L29.2906 66.8174V60.5H27.2906ZM25.3906 57.8L26.1415 55.9463L19.8462 53.3963L23.755 58.951L25.3906 57.8ZM33.2906 61H35.2906V59.6523L34.0415 59.1463L33.2906 61ZM33.2906 71V73H35.2906V71H33.2906ZM0.790625 71H-1.20937V73H0.790625V71ZM0.790625 61L0.0436911 59.1447L-1.20937 59.6492V61H0.790625ZM8.49063 57.9L10.1646 58.9945L13.6473 53.6679L7.74369 56.0447L8.49063 57.9ZM6.79063 60.5L4.79063 60.5L4.79063 67.2135L8.46457 61.5945L6.79063 60.5ZM6.79063 11L8.33141 9.72486L4.79063 5.44641V11H6.79063ZM9.19063 13.9L8.44024 15.7539L10.7314 12.6249L9.19063 13.9ZM0.790625 10.5H-1.20937V11.8481L0.0402399 12.3539L0.790625 10.5ZM0.790625 0.499996L0.759859 -1.49977L-1.20937 -1.46947V0.499996H0.790625ZM33.2906 -3.8147e-06H35.2906V-2.03101L33.2599 -1.99977L33.2906 -3.8147e-06ZM32.4237 8.19766L24.5237 11.9977L26.2576 15.6023L34.1576 11.8023L32.4237 8.19766ZM27.0456 14.923L28.9456 12.123L25.6357 9.87699L23.7357 12.677L27.0456 14.923ZM25.2906 11V60.5H29.2906V11L25.2906 11ZM28.9262 59.349L27.0262 56.649L23.755 58.951L25.655 61.651L28.9262 59.349ZM24.6398 59.6537L32.5398 62.8537L34.0415 59.1463L26.1415 55.9463L24.6398 59.6537ZM31.2906 61L31.2906 71H35.2906L35.2906 61H31.2906ZM33.2906 69L0.790625 69V73L33.2906 73V69ZM2.79063 71L2.79063 61H-1.20937L-1.20937 71H2.79063ZM1.53756 62.8553L9.23756 59.7553L7.74369 56.0447L0.0436911 59.1447L1.53756 62.8553ZM6.81669 56.8055L5.11669 59.4055L8.46457 61.5945L10.1646 58.9945L6.81669 56.8055ZM8.79063 60.5V11H4.79063V60.5L8.79063 60.5ZM5.24984 12.2751L7.64984 15.1751L10.7314 12.6249L8.33141 9.72486L5.24984 12.2751ZM9.94101 12.0461L1.54101 8.6461L0.0402399 12.3539L8.44024 15.7539L9.94101 12.0461ZM2.79063 10.5V0.499996H-1.20937V10.5H2.79063ZM0.821391 2.49976L33.3214 1.99976L33.2599 -1.99977L0.759859 -1.49977L0.821391 2.49976ZM31.2906 -3.8147e-06V10H35.2906V-3.8147e-06H31.2906ZM58.8328 71H56.8328V73H58.8328V71ZM58.8328 61L58.2004 59.1026L56.8328 59.5585V61H58.8328ZM69.3328 57.5L70.9713 58.6469L74.442 53.6888L68.7004 55.6026L69.3328 57.5ZM65.8328 62.5H63.8328V68.8447L67.4713 63.6469L65.8328 62.5ZM65.8328 11.5L67.0328 9.9L63.8328 7.49999V11.5H65.8328ZM69.8328 14.5V16.5L75.8328 16.5L71.0328 12.9L69.8328 14.5ZM56.3328 14.5L55.0256 12.9864L50.9571 16.5H56.3328V14.5ZM60.7328 10.7L62.6713 11.1923L64.2358 5.03208L59.4256 9.18635L60.7328 10.7ZM57.5328 23.3V25.3H59.0884L59.4713 23.7923L57.5328 23.3ZM45.5328 23.3H43.5328V25.3H45.5328V23.3ZM45.5328 -3.8147e-06V-2H43.5328V-3.8147e-06H45.5328ZM106.633 -3.8147e-06H108.633V-2H106.633V-3.8147e-06ZM106.633 23.3V25.3H108.633V23.3H106.633ZM94.6328 23.3L92.6945 23.7928L93.0777 25.3H94.6328V23.3ZM91.6328 11.5L92.7953 9.87253L88.3478 6.69572L89.6945 11.9928L91.6328 11.5ZM95.8328 14.5V16.5H102.074L96.9953 12.8725L95.8328 14.5ZM82.3328 14.5L81.1328 12.9L76.3328 16.5H82.3328V14.5ZM86.3328 11.5H88.3328V7.49999L85.1328 9.9L86.3328 11.5ZM86.3328 62.5L84.6636 63.6017L88.3328 69.1611V62.5H86.3328ZM83.0328 57.5L83.6763 55.6063L78.1465 53.7273L81.3636 58.6017L83.0328 57.5ZM93.3328 61H95.3328V59.5673L93.9763 59.1063L93.3328 61ZM93.3328 71V73H95.3328V71H93.3328ZM60.8328 71V61H56.8328V71H60.8328ZM59.4653 62.8974L69.9653 59.3974L68.7004 55.6026L58.2004 59.1026L59.4653 62.8974ZM67.6943 56.3531L64.1943 61.3531L67.4713 63.6469L70.9713 58.6469L67.6943 56.3531ZM67.8328 62.5V11.5H63.8328V62.5H67.8328ZM64.6328 13.1L68.6328 16.1L71.0328 12.9L67.0328 9.9L64.6328 13.1ZM69.8328 12.5H56.3328V16.5H69.8328V12.5ZM57.6401 16.0136L62.0401 12.2136L59.4256 9.18635L55.0256 12.9864L57.6401 16.0136ZM58.7944 10.2077L55.5944 22.8077L59.4713 23.7923L62.6713 11.1923L58.7944 10.2077ZM57.5328 21.3H45.5328V25.3H57.5328V21.3ZM47.5328 23.3V-3.8147e-06H43.5328V23.3H47.5328ZM45.5328 2L106.633 2V-2L45.5328 -2V2ZM104.633 -3.8147e-06V23.3H108.633V-3.8147e-06H104.633ZM106.633 21.3H94.6328V25.3H106.633V21.3ZM96.5711 22.8072L93.5712 11.0072L89.6945 11.9928L92.6945 23.7928L96.5711 22.8072ZM90.4703 13.1275L94.6703 16.1275L96.9953 12.8725L92.7953 9.87253L90.4703 13.1275ZM95.8328 12.5H82.3328V16.5H95.8328V12.5ZM83.5328 16.1L87.5328 13.1L85.1328 9.9L81.1328 12.9L83.5328 16.1ZM84.3328 11.5V62.5H88.3328V11.5H84.3328ZM88.002 61.3983L84.702 56.3983L81.3636 58.6017L84.6636 63.6017L88.002 61.3983ZM82.3893 59.3937L92.6893 62.8937L93.9763 59.1063L83.6763 55.6063L82.3893 59.3937ZM91.3328 61V71L95.3328 71V61L91.3328 61ZM93.3328 69L58.8328 69V73L93.3328 73V69Z" fill="white"/>
</svg>
