<svg width="102" height="51" viewBox="0 0 102 51" fill="none" xmlns="http://www.w3.org/2000/svg">
<path d="M45.675 0H7.875C3.52576 0 0 3.43977 0 7.68293V43.0244C0 47.2675 3.52576 50.7073 7.875 50.7073H45.675C50.0242 50.7073 53.55 47.2675 53.55 43.0244V7.68293C53.55 3.43977 50.0242 0 45.675 0Z" fill="#302C2D"/>
<path d="M47.2499 28.4268C47.2499 36.4888 40.551 43.0244 32.2875 43.0244H17.325V28.4268C17.325 20.3648 24.0239 13.8293 32.2875 13.8293C40.551 13.8293 47.2499 20.3648 47.2499 28.4268Z" fill="#E36F59"/>
<path d="M7.41968 12.2687H12.2001V43.0244H7.41968V12.2687ZM20.5241 15.9421H15.4485V12.2687H30.3617V15.9421H25.3045V43.0244H20.5241V15.9421Z" fill="white"/>
<path d="M44.0999 24.5854H26.7749V26.122H44.0999V24.5854Z" fill="white" fill-opacity="0.64"/>
<path d="M44.0999 27.6585H26.7749V29.1951H44.0999V27.6585Z" fill="white" fill-opacity="0.64"/>
<path d="M34.6499 30.7317H26.7749V32.2683H34.6499V30.7317Z" fill="white" fill-opacity="0.64"/>
<path d="M44.1 30.7317H36.225V32.2683H44.1V30.7317Z" fill="white" fill-opacity="0.64"/>
<path d="M65.288 19.972H66.903V24H57.384V22.632L59.094 22.138L58.79 22.67V12.03L59.094 12.543L57.384 12.087V10.719L63.027 10.624V11.992L61.222 12.543L61.507 12.03V22.461L61.089 22.043H65.231L64.851 22.48L65.288 19.972ZM76.3414 22.651L75.9804 22.119L77.6144 22.632V23.981L74.2893 24.152L73.9283 22.328L74.1183 22.385C73.6117 23.0057 73.0607 23.468 72.4654 23.772C71.87 24.076 71.2557 24.228 70.6223 24.228C69.8117 24.228 69.1403 23.9683 68.6083 23.449C68.0763 22.9297 67.8103 22.1823 67.8103 21.207C67.8103 20.485 67.9623 19.915 68.2663 19.497C68.583 19.0663 69.039 18.756 69.6343 18.566C70.2297 18.376 70.9517 18.281 71.8003 18.281H73.8714L73.6813 18.49V17.236C73.6813 16.6407 73.5357 16.2163 73.2443 15.963C72.9657 15.7097 72.554 15.583 72.0093 15.583C71.7433 15.583 71.4583 15.6083 71.1543 15.659C70.8503 15.7097 70.521 15.7857 70.1663 15.887L70.4323 15.602L70.1853 17.141H68.5323L68.3803 14.367C69.2417 14.1137 70.027 13.93 70.7363 13.816C71.4583 13.6893 72.117 13.626 72.7123 13.626C73.8903 13.626 74.7897 13.8793 75.4104 14.386C76.031 14.8927 76.3414 15.678 76.3414 16.742V22.651ZM70.4893 20.941C70.4893 21.4097 70.597 21.758 70.8123 21.986C71.0403 22.2013 71.3253 22.309 71.6673 22.309C71.984 22.309 72.3323 22.214 72.7123 22.024C73.0923 21.8213 73.4533 21.549 73.7953 21.207L73.6813 21.663V19.497L73.8714 19.687H72.2373C71.5787 19.687 71.1227 19.7883 70.8693 19.991C70.616 20.1937 70.4893 20.5103 70.4893 20.941ZM78.3847 24V22.632L79.9807 22.176L79.6577 22.556V15.317L79.9807 15.754L78.3847 15.279V13.911L81.7287 13.759L82.0707 15.583L81.7287 15.45C82.3367 14.8293 82.9827 14.3733 83.6667 14.082C84.3507 13.778 85.0031 13.626 85.6237 13.626C86.4851 13.626 87.2007 13.8983 87.7707 14.443C88.3407 14.975 88.6194 15.7857 88.6067 16.875V22.556L88.3597 22.176L89.8797 22.632V24H84.8067V22.632L86.2507 22.214L85.9467 22.613V17.445C85.9467 16.8243 85.8074 16.3683 85.5287 16.077C85.2627 15.7857 84.9081 15.64 84.4647 15.64C84.1227 15.64 83.7491 15.735 83.3437 15.925C82.9384 16.115 82.5394 16.4 82.1467 16.78L82.3177 16.381V22.613L82.0707 22.214L83.4577 22.632V24H78.3847ZM95.0013 28.598C93.4179 28.598 92.2399 28.389 91.4673 27.971C90.6946 27.553 90.3083 26.9323 90.3083 26.109C90.3083 25.4757 90.5236 24.9437 90.9543 24.513C91.3976 24.095 92.0436 23.7467 92.8923 23.468L92.8543 24C92.3729 23.962 91.9803 23.8353 91.6763 23.62C91.3723 23.4047 91.2203 23.1197 91.2203 22.765C91.2203 22.651 91.2393 22.5307 91.2773 22.404C91.3153 22.2773 91.3849 22.119 91.4863 21.929C91.5876 21.7263 91.7269 21.4793 91.9043 21.188C92.0816 20.8967 92.3033 20.5293 92.5693 20.086L92.6073 20.523C91.9739 20.2317 91.4926 19.82 91.1633 19.288C90.8339 18.756 90.6693 18.1227 90.6693 17.388C90.6693 16.21 91.0683 15.2917 91.8663 14.633C92.6769 13.9617 93.7979 13.626 95.2293 13.626C96.2553 13.626 97.1293 13.8033 97.8513 14.158L97.2433 14.044L100.416 13.93V15.355L98.9153 15.659L99.0863 15.374C99.2763 15.602 99.4219 15.868 99.5233 16.172C99.6246 16.476 99.6753 16.8243 99.6753 17.217C99.6753 18.395 99.2636 19.326 98.4403 20.01C97.6169 20.6813 96.5086 21.017 95.1153 21.017C94.4566 21.017 93.8233 20.9283 93.2153 20.751L93.6523 20.485L93.3483 22.518L92.9493 22.328H96.7493C98.0286 22.328 98.9976 22.575 99.6563 23.069C100.315 23.563 100.644 24.285 100.644 25.235C100.644 26.3243 100.169 27.154 99.2193 27.724C98.2819 28.3067 96.8759 28.598 95.0013 28.598ZM95.2293 26.736C96.2426 26.736 96.9709 26.6283 97.4143 26.413C97.8703 26.1977 98.0983 25.881 98.0983 25.463C98.0983 25.0577 97.9463 24.76 97.6423 24.57C97.3383 24.38 96.9013 24.285 96.3313 24.285H93.0253L93.6523 24.152C92.9683 24.5827 92.6263 25.0703 92.6263 25.615C92.6263 25.9823 92.8353 26.261 93.2533 26.451C93.6713 26.641 94.3299 26.736 95.2293 26.736ZM95.1153 19.231C95.7359 19.231 96.2109 19.0663 96.5403 18.737C96.8696 18.4077 97.0343 17.92 97.0343 17.274C97.0343 16.628 96.8823 16.1593 96.5783 15.868C96.2743 15.564 95.8183 15.412 95.2103 15.412C94.5896 15.412 94.1209 15.5703 93.8043 15.887C93.4876 16.2037 93.3293 16.6787 93.3293 17.312C93.3293 17.9327 93.4813 18.4077 93.7853 18.737C94.0893 19.0663 94.5326 19.231 95.1153 19.231Z" fill="#302C2D"/>
<path d="M64.395 32.605L68.04 32.53V33.175L66.54 33.52L66.735 33.235V43H65.355L59.595 33.835L59.775 33.82V42.31L59.55 42.04L61.065 42.355V43H57.435V42.355L58.95 42.04L58.725 42.31V33.235L58.89 33.505L57.435 33.25V32.605L60.195 32.53L65.88 41.545L65.7 41.56V33.235L65.91 33.505L64.395 33.25V32.605ZM75.3898 40.54H76.1398V43H68.5648V42.355L70.0498 42.04L69.8548 42.31V33.25L70.0498 33.52L68.5648 33.25V32.605L71.0698 32.53H75.9598V34.9H75.2098L74.9398 33.25L75.1948 33.445H70.8598L71.0848 33.22V37.42L70.8598 37.195H74.8648V38.095H70.8598L71.0848 37.84V42.31L70.8598 42.085H75.3898L75.1198 42.31L75.3898 40.54ZM89.0412 33.175L87.5412 33.52L87.7362 33.19V42.31L87.5412 42.04L89.0412 42.355V43H85.3062V42.355L86.8362 42.04L86.5962 42.31V33.895L86.7912 33.91L83.3862 40.27L82.5612 40.33L79.2612 33.88L79.4412 33.865V42.31L79.2612 42.055L80.7462 42.355V43H77.1312V42.355L78.6312 42.04L78.4212 42.31V33.19L78.6312 33.52L77.1312 33.25V32.605L79.9362 32.53L83.1912 39.115H83.0112L86.3712 32.605L89.0412 32.53V33.175ZM98.3806 42.31L98.0056 42.055L99.4156 42.355V43H95.6806V42.355L97.0156 42.055L96.9556 42.28L93.9256 37.855L94.3156 38.095H92.0356L92.2606 37.84V42.31L92.0656 42.025L93.5356 42.355V43H89.7406V42.355L91.2106 42.055L91.0306 42.31V33.235L91.1956 33.49L89.7406 33.25V32.605L93.5356 32.53V33.175L92.0806 33.505L92.2606 33.205V37.405L92.0356 37.18H94.3306L93.9706 37.405L96.4906 33.25L96.6106 33.46L95.1706 33.25V32.605L98.8156 32.53V33.175L97.3756 33.505L97.6906 33.265L94.9156 37.735V37.39L98.3806 42.31Z" fill="#302C2D"/>
</svg>
