<svg width="15" height="15" viewBox="0 0 15 15" fill="none" xmlns="http://www.w3.org/2000/svg">
<g clip-path="url(#clip0_207_458)">
<path fill-rule="evenodd" clip-rule="evenodd" d="M1.965 0H11.4363C11.6445 0 11.8146 0.166328 11.8146 0.369846V4.97169C11.0949 4.61649 10.2933 4.42673 9.4698 4.42673C8.7663 4.42673 8.0934 4.56378 7.4802 4.81269C6.84839 5.06786 6.27457 5.44256 5.7918 5.9152C4.4379 7.23616 3.9399 9.18935 4.4865 10.9651H1.8255C1.2555 10.9651 0.7896 11.4204 0.7896 11.9762C0.7896 12.5326 1.2561 12.9877 1.8255 12.9877H5.6832L5.7912 13.096C6.0363 13.3353 6.3027 13.5478 6.5865 13.7323H1.8648C0.8391 13.7323 0 12.9136 0 11.9124V1.91834C0 0.863267 0.8841 0 1.965 0ZM9.5844 5.42031C10.7289 5.42031 11.8221 5.86249 12.6312 6.65196C13.749 7.74305 14.1648 9.35157 13.7145 10.8283C13.6111 11.1674 13.464 11.4923 13.2768 11.7953L14.9457 13.5707C14.9826 13.61 15.002 13.662 14.9998 13.7153C14.9975 13.7686 14.9738 13.8188 14.9337 13.855L13.7082 14.9473C13.6245 15.0223 13.4943 15.0164 13.4175 14.9347L11.8212 13.2208C11.1453 13.6228 10.3761 13.8325 9.5844 13.8325C8.4399 13.8325 7.3467 13.3903 6.5376 12.6005C6.13711 12.2096 5.81937 11.7455 5.6025 11.2348C4.9347 9.66461 5.3142 7.84671 6.5382 6.65255C6.9339 6.26542 7.4082 5.95326 7.9365 5.73979C8.4447 5.53364 9.0018 5.42031 9.5844 5.42031ZM12.0156 7.25314C11.0343 6.295 9.5469 6.00714 8.2689 6.52399C5.9757 7.4508 5.4489 10.337 7.1526 11.9991C8.1357 12.9563 9.6198 13.2456 10.8996 12.7285C12.186 12.207 13.0224 10.9856 13.0224 9.62625C13.0224 9.1709 12.9303 8.73663 12.7629 8.34277C12.5883 7.93281 12.333 7.56296 12.0156 7.25314ZM1.7451 12.1841H4.9455L5.0025 12.2696C5.0727 12.3715 5.1462 12.4708 5.2227 12.5672H1.7451C1.6626 12.5672 1.5945 12.5013 1.5945 12.4204V12.3311C1.5945 12.2506 1.662 12.1841 1.7451 12.1841ZM1.7451 11.4257H4.5342C4.5903 11.5554 4.6527 11.6834 4.7211 11.8087H1.7451C1.6626 11.8087 1.5945 11.7428 1.5945 11.662V11.5727C1.5945 11.4916 1.662 11.4257 1.7451 11.4257ZM2.3301 1.49725H2.6574C2.8251 1.49725 2.9619 1.6053 2.9619 1.73766V9.27807C2.9619 9.41014 2.8248 9.5182 2.6574 9.5182H2.3301C2.1627 9.5182 2.0259 9.41014 2.0259 9.27807V1.73737C2.0259 1.6053 2.1627 1.49725 2.3301 1.49725Z" fill="black"/>
</g>
<defs>
<clipPath id="clip0_207_458">
<rect width="15" height="15" fill="white"/>
</clipPath>
</defs>
</svg>
