<svg width="15" height="15" viewBox="0 0 15 15" fill="none" xmlns="http://www.w3.org/2000/svg">
<g clip-path="url(#clip0_207_454)">
<path d="M12.7111 14.5898C12.681 14.5897 12.651 14.5848 12.6227 14.5751V8.048C12.651 8.03835 12.681 8.03339 12.7111 8.03336C13.1455 8.03336 13.5473 8.64371 13.8139 8.88785L13.7541 7.40836C13.7541 5.84586 13.2703 4.58731 12.4952 3.63272C12.3547 3.64273 12.2135 3.62353 12.0818 3.57648C11.9501 3.52942 11.831 3.45568 11.7331 3.3605L11.6447 3.27506C10.5224 2.23257 8.97347 1.7626 7.44408 1.78946C5.91469 1.81632 4.3905 2.34244 3.34099 3.28482L3.25516 3.36295C3.14671 3.46587 3.01318 3.54244 2.86612 3.58605C2.71906 3.62965 2.56289 3.63896 2.41113 3.61319C1.63083 4.57022 1.14314 5.83609 1.14314 7.41446L1.08332 9.11002C1.37593 8.77921 1.90784 8.05289 2.38382 8.03336V14.5898C1.36813 14.5702 0.638548 13.0675 0.390152 12.329H6.95144e-07V7.41446C-0.000738754 5.80648 0.588476 4.2473 1.66855 2.99918C1.61697 2.84359 1.61151 2.67775 1.65275 2.51946C1.69399 2.36118 1.78038 2.21642 1.90264 2.10074L2.03269 1.98477C3.42813 0.732331 5.41269 0.0365302 7.41287 -9.09008e-05C9.41304 -0.036712 11.4769 0.598053 12.9881 2.00919L13.1065 2.12271C13.2239 2.23715 13.3068 2.37889 13.3466 2.53336C13.3864 2.68783 13.3816 2.84946 13.3328 3.00162C14.4107 4.24882 14.9989 5.80603 14.9987 7.41202V12.329H14.7113C14.4655 13.0785 13.7307 14.5959 12.7098 14.5959L12.7111 14.5898ZM11.9893 14.9999H10.8189C10.6991 14.9999 10.5842 14.9553 10.4993 14.8759C10.4145 14.7965 10.3667 14.6888 10.3663 14.5763V8.01383C10.3667 7.90126 10.4144 7.7934 10.4992 7.7138C10.584 7.6342 10.699 7.58934 10.8189 7.58902H11.9893V14.9999ZM3.01587 7.58902H4.29166C4.41148 7.58966 4.5262 7.63462 4.61092 7.71415C4.69565 7.79368 4.74355 7.90136 4.74424 8.01383V14.5763C4.74355 14.6887 4.69561 14.7962 4.61084 14.8756C4.52608 14.9549 4.41136 14.9996 4.29166 14.9999H3.00936V7.58902H3.01587Z" fill="black"/>
</g>
<defs>
<clipPath id="clip0_207_454">
<rect width="15" height="15" fill="white"/>
</clipPath>
</defs>
</svg>
