<svg width="15" height="15" viewBox="0 0 15 15" fill="none" xmlns="http://www.w3.org/2000/svg">
<g clip-path="url(#clip0_209_462)">
<path fill-rule="evenodd" clip-rule="evenodd" d="M13.3398 2.6254L14.8303 3.94814C14.9248 4.03229 14.985 4.15405 14.9978 4.28678C15.0106 4.41951 14.975 4.5524 14.8987 4.65637L14.2322 5.56007L12.0276 3.60541L12.6953 2.70038C12.7724 2.59738 12.8834 2.53179 13.0042 2.51776C13.125 2.50373 13.246 2.5424 13.3411 2.6254H13.3398ZM2.57202 4.12487C2.46907 4.12487 2.37033 4.08001 2.29753 4.00017C2.22474 3.92033 2.18384 3.81204 2.18384 3.69913C2.18384 3.58621 2.22474 3.47792 2.29753 3.39808C2.37033 3.31824 2.46907 3.27338 2.57202 3.27338H9.04785C9.15081 3.27338 9.24954 3.31824 9.32234 3.39808C9.39514 3.47792 9.43604 3.58621 9.43604 3.69913C9.43604 3.81204 9.39514 3.92033 9.32234 4.00017C9.24954 4.08001 9.15081 4.12487 9.04785 4.12487H2.57202ZM1.15845 0H10.4626C10.7695 0.00140957 11.0634 0.135721 11.2804 0.373686C11.4973 0.611652 11.6198 0.933997 11.6211 1.27053V2.02428L11.0742 2.76464C11.0179 2.84103 10.9696 2.92411 10.9302 3.01232C10.9009 3.03775 10.8716 3.06587 10.8435 3.09532V1.27053C10.8432 1.15973 10.803 1.05355 10.7317 0.975077C10.6604 0.896605 10.5637 0.852187 10.4626 0.851482H1.15845C1.05721 0.851835 0.960216 0.896097 0.888632 0.974608C0.817047 1.05312 0.776689 1.1595 0.776367 1.27053V13.7295C0.776974 13.8404 0.817306 13.9467 0.888672 14.0253C0.923991 14.0644 0.966017 14.0954 1.01232 14.1165C1.05863 14.1377 1.10829 14.1486 1.15845 14.1485H10.4626C10.5128 14.1485 10.5624 14.1377 10.6087 14.1166C10.655 14.0955 10.697 14.0646 10.7324 14.0257C10.7678 13.9868 10.7958 13.9406 10.8149 13.8897C10.8339 13.8389 10.8437 13.7844 10.8435 13.7295V11.8083L11.0767 11.6998C11.2847 11.6155 11.4678 11.4707 11.6064 11.2808L11.6211 11.2621V13.7295C11.6182 14.065 11.4951 14.3857 11.2783 14.6225C11.0615 14.8592 10.7686 14.9929 10.4626 14.9946H1.15845C0.852248 14.9939 0.558701 14.8606 0.341729 14.6236C0.124756 14.3867 0.00193119 14.0653 0 13.7295L0 1.27053C0.00128523 0.933997 0.123748 0.611652 0.340721 0.373686C0.557694 0.135721 0.851604 0.00140957 1.15845 0V0ZM2.57202 11.728C2.47267 11.7218 2.37923 11.6743 2.31086 11.595C2.2425 11.5157 2.20441 11.4107 2.20441 11.3015C2.20441 11.1924 2.2425 11.0874 2.31086 11.0081C2.37923 10.9288 2.47267 10.8812 2.57202 10.8751H6.85913C6.82463 11.1577 6.81238 11.4431 6.82251 11.728H2.57202ZM2.57202 9.19359C2.47267 9.18748 2.37923 9.1399 2.31086 9.0606C2.2425 8.9813 2.20441 8.87631 2.20441 8.76718C2.20441 8.65805 2.2425 8.55306 2.31086 8.47376C2.37923 8.39447 2.47267 8.34688 2.57202 8.34077H7.229V8.37692L7.10083 9.19359H2.57202ZM2.57202 6.65923C2.46907 6.65923 2.37033 6.61437 2.29753 6.53453C2.22474 6.45469 2.18384 6.3464 2.18384 6.23349C2.18384 6.12057 2.22474 6.01229 2.29753 5.93244C2.37033 5.8526 2.46907 5.80775 2.57202 5.80775H8.84277L8.219 6.65923H2.57202ZM10.6506 10.4427L9.08569 11.175C7.94434 11.6396 7.99561 11.902 8.10913 10.6596L8.45215 8.48804L11.6943 4.06998L13.8916 6.02463L10.6531 10.4427H10.6506ZM8.8269 8.8214L10.2747 10.1053L9.24683 10.5873C8.44116 10.9662 8.46314 11.1536 8.60352 10.2486L8.8269 8.8214Z" fill="black"/>
</g>
<defs>
<clipPath id="clip0_209_462">
<rect width="15" height="15" fill="white"/>
</clipPath>
</defs>
</svg>
