<svg width="14" height="15" viewBox="0 0 14 15" fill="none" xmlns="http://www.w3.org/2000/svg">
<g clip-path="url(#clip0_574_255)">
<path d="M5.30008 8.36085C5.30008 8.18957 5.1635 8.05081 4.99496 8.05081H3.9302C3.76186 8.05081 3.62524 8.18957 3.62524 8.36085V9.44371C3.62524 9.61522 3.76186 9.75403 3.9302 9.75403H4.99496C5.1635 9.75403 5.30008 9.61522 5.30008 9.44371V8.36085Z" fill="#C4CACF"/>
<path d="M7.96169 8.36085C7.96169 8.18957 7.82507 8.05081 7.65686 8.05081H6.59195C6.42361 8.05081 6.28699 8.18957 6.28699 8.36085V9.44371C6.28699 9.61522 6.42361 9.75403 6.59195 9.75403H7.65686C7.82507 9.75403 7.96169 9.61522 7.96169 9.44371V8.36085Z" fill="#C4CACF"/>
<path d="M10.623 8.36085C10.623 8.18957 10.4863 8.05081 10.318 8.05081H9.25324C9.08471 8.05081 8.94812 8.18957 8.94812 8.36085V9.44371C8.94812 9.61522 9.08471 9.75403 9.25324 9.75403H10.318C10.4863 9.75403 10.623 9.61522 10.623 9.44371V8.36085Z" fill="#C4CACF"/>
<path d="M5.30008 11.0676C5.30008 10.896 5.1635 10.7574 4.99496 10.7574H3.9302C3.76186 10.7574 3.62524 10.896 3.62524 11.0676V12.1503C3.62524 12.3216 3.76186 12.4604 3.9302 12.4604H4.99496C5.1635 12.4604 5.30008 12.3216 5.30008 12.1503V11.0676Z" fill="#C4CACF"/>
<path d="M7.96169 11.0676C7.96169 10.896 7.82507 10.7574 7.65686 10.7574H6.59195C6.42361 10.7574 6.28699 10.896 6.28699 11.0676V12.1503C6.28699 12.3216 6.42361 12.4604 6.59195 12.4604H7.65686C7.82507 12.4604 7.96169 12.3216 7.96169 12.1503V11.0676Z" fill="#C4CACF"/>
<path d="M10.623 11.0676C10.623 10.896 10.4863 10.7574 10.3181 10.7574H9.25324C9.08471 10.7574 8.94812 10.896 8.94812 11.0676V12.1503C8.94812 12.3216 9.08471 12.4604 9.25324 12.4604H10.3181C10.4863 12.4604 10.623 12.3216 10.623 12.1503V11.0676Z" fill="#C4CACF"/>
<path d="M12.5264 2.33989V3.99387C12.5264 4.74145 11.9301 5.34389 11.1953 5.34389H10.3555C9.6206 5.34389 9.01644 4.74145 9.01644 3.99387V2.33395H5.2316V3.99387C5.2316 4.74145 4.62747 5.34389 3.89264 5.34389H3.05276C2.3179 5.34389 1.72168 4.74145 1.72168 3.99387V2.33989C1.0794 2.35958 0.551636 2.90014 0.551636 3.56456V13.2577C0.551636 13.9346 1.09105 14.4905 1.75657 14.4905H12.4915C13.156 14.4905 13.6964 13.9334 13.6964 13.2577V3.56456C13.6964 2.90014 13.1687 2.35958 12.5264 2.33989ZM12.1364 12.6541C12.1364 12.9466 11.9032 13.1839 11.6155 13.1839H2.60964C2.32192 13.1839 2.08873 12.9466 2.08873 12.6541V7.64722C2.08873 7.35457 2.3219 7.11724 2.60964 7.11724H11.6154C11.9032 7.11724 12.1363 7.35457 12.1363 7.64722L12.1364 12.6541Z" fill="#C4CACF"/>
<path d="M3.05064 4.45715H3.88125C4.13336 4.45715 4.33777 4.24954 4.33777 3.99311V1.28162C4.33777 1.02516 4.13336 0.817413 3.88125 0.817413H3.05064C2.7985 0.817413 2.59412 1.02516 2.59412 1.28162V3.99311C2.59412 4.24954 2.7985 4.45715 3.05064 4.45715Z" fill="#C4CACF"/>
<path d="M10.3449 4.45715H11.1755C11.4275 4.45715 11.6319 4.24954 11.6319 3.99311V1.28162C11.6319 1.02516 11.4275 0.817413 11.1755 0.817413H10.3449C10.0928 0.817413 9.88843 1.02516 9.88843 1.28162V3.99311C9.88843 4.24954 10.0928 4.45715 10.3449 4.45715Z" fill="#C4CACF"/>
</g>
<defs>
<clipPath id="clip0_574_255">
<rect width="13.4428" height="13.673" fill="white" transform="translate(0.402954 0.817413)"/>
</clipPath>
</defs>
</svg>
