<svg width="14" height="15" viewBox="0 0 14 15" fill="none" xmlns="http://www.w3.org/2000/svg">
<g clip-path="url(#clip0_574_249)">
<path d="M6.83084 5.7661C7.84211 5.7661 8.66394 6.60201 8.66394 7.6306C8.66394 8.65919 7.84211 9.4951 6.83084 9.4951C5.81956 9.4951 4.99773 8.65919 4.99773 7.6306C4.99773 6.60201 5.81959 5.7661 6.83084 5.7661Z" fill="#C4CACF"/>
<path d="M6.83072 2.96934C9.88591 2.96934 12.495 4.9022 13.5521 7.63061C12.495 10.359 9.88591 12.2919 6.83072 12.2919C3.77249 12.2919 1.16642 10.359 0.109316 7.63061C1.16642 4.9022 3.77249 2.96934 6.83072 2.96934ZM6.83072 10.7381C8.51718 10.7381 9.88591 9.34592 9.88591 7.63058C9.88591 5.91523 8.51718 4.52309 6.83072 4.52309C5.14426 4.52309 3.77553 5.91526 3.77553 7.63061C3.77553 9.34595 5.14426 10.7381 6.83072 10.7381Z" fill="#C4CACF"/>
</g>
<defs>
<clipPath id="clip0_574_249">
<rect width="13.4428" height="13.673" fill="white" transform="matrix(-1 -3.62046e-08 -3.49955e-08 1 13.5521 0.794067)"/>
</clipPath>
</defs>
</svg>
